<?xml version="1.0" encoding="utf-8"?>
<!-- Generator: Adobe Illustrator 15.0.0, SVG Export Plug-In . SVG Version: 6.00 Build 0)  -->
<!DOCTYPE svg PUBLIC "-//W3C//DTD SVG 1.1//EN" "http://www.w3.org/Graphics/SVG/1.1/DTD/svg11.dtd">
<svg version="1.1" id="Layer_1" xmlns="http://www.w3.org/2000/svg" xmlns:xlink="http://www.w3.org/1999/xlink" x="0px" y="0px"
	 width="179.709px" height="54.156px" viewBox="7.96 0 179.709 54.156" enable-background="new 7.96 0 179.709 54.156"
	 xml:space="preserve">
<path fill="#FFFFFF" d="M119.448,42.352c-10.443,7.698-25.58,11.804-38.612,11.804c-18.273,0-34.725-6.759-47.17-18
	c-0.978-0.884-0.102-2.089,1.072-1.4c13.432,7.815,30.039,12.516,47.194,12.516c11.57,0,24.297-2.394,36-7.361
	C119.699,39.16,121.177,41.069,119.448,42.352"/>
<path fill="#FFFFFF" d="M123.79,37.384c-1.33-1.706-8.824-0.806-12.188-0.407c-1.024,0.125-1.181-0.767-0.258-1.408
	c5.968-4.201,15.763-2.988,16.905-1.58c1.142,1.416-0.297,11.233-5.906,15.919c-0.86,0.72-1.682,0.336-1.299-0.618
	C122.304,46.146,125.128,39.097,123.79,37.384"/>
<g>
	<path fill="#FFFFFF" d="M68.187,0.274c-3.278,0-6.336,1.682-7.682,5.288c-1.564-3.606-3.739-5.288-7.22-5.288
		c-3.426,0-5.969,1.682-7.322,5.288h-0.102V1.831c-0.04-0.517-0.47-0.931-1.009-0.955h-5.187c-0.595,0-1.072,0.454-1.072,1.025
		v28.544c0.039,0.509,0.462,0.908,0.993,0.947h5.563c0.594,0,1.071-0.461,1.071-1.033V15.23c0-3.301-0.156-7.869,3.841-7.869
		c3.951,0,3.427,4.686,3.427,7.869l0.007,15.129c0,0.548,0.438,0.994,1.001,1.033h5.554c0.595,0,1.072-0.461,1.072-1.033V15.23
		c0-1.619-0.055-4.028,0.516-5.468s1.979-2.339,3.325-2.339c1.611,0,2.855,0.54,3.27,2.456c0.266,1.142,0.156,4.146,0.156,5.351
		v15.129c0,0.548,0.446,0.994,1.001,1.033h5.555c0.594,0,1.071-0.461,1.071-1.033l0.008-18.015c0-3.059,0.36-6.547-1.4-8.949
		C73.068,1.236,70.518,0.274,68.187,0.274z"/>
	<path fill="#FFFFFF" d="M32.156,21.003v-8.667c0-3.669,0.258-7.041-2.448-9.567C27.572,0.72,24.036,0,21.329,0
		C16.042,0,10.135,1.971,8.892,8.511C8.767,9.208,9.267,9.575,9.721,9.677l5.397,0.579c0.5-0.023,0.868-0.516,0.962-1.017
		c0.462-2.253,2.355-3.341,4.475-3.341c1.143,0,2.441,0.423,3.122,1.448c0.774,1.142,0.672,2.706,0.672,4.028v0.72
		c-3.223,0.368-7.439,0.603-10.459,1.932c-3.48,1.502-5.929,4.577-5.929,9.09c0,5.781,3.646,8.667,8.323,8.667
		c3.958,0,6.117-0.931,9.168-4.044c1.017,1.463,1.345,2.175,3.191,3.708c0.415,0.219,0.946,0.196,1.314-0.133l0.016,0.015
		c1.111-0.985,3.129-2.746,4.263-3.692c0.454-0.375,0.376-0.978,0.016-1.479C33.235,24.75,32.156,23.608,32.156,21.003z
		 M23.308,23.655c-0.884,1.565-2.284,2.527-3.849,2.527c-2.135,0-3.379-1.627-3.379-4.029c0-4.74,4.248-5.601,8.269-5.601v1.205
		C24.349,19.924,24.404,21.731,23.308,23.655z"/>
	<path fill="#FFFFFF" d="M186.214,3.638c-1.564-2.464-3.998-3.364-6.493-3.364c-3.841,0-6.023,1.862-7.58,5.765h-0.102V1.674
		c-0.11-0.446-0.509-0.774-0.994-0.798h-5.155c-0.563,0-1.025,0.407-1.072,0.931l0.008,28.553c0,0.548,0.446,0.994,1.001,1.033
		h5.539c0.594,0,1.08-0.461,1.087-1.033V14.988c0-1.925,0.102-3.661,0.884-5.406c0.618-1.377,1.862-2.284,3.215-2.284
		c3.841,0,3.481,4.568,3.481,7.689v15.505c0.055,0.485,0.477,0.86,0.986,0.899h5.578c0.547,0,1.009-0.399,1.072-0.899V12.524
		C187.669,9.763,187.669,5.922,186.214,3.638z"/>
	<path fill="#FFFFFF" d="M105.07,21.003v-8.667c0-3.669,0.258-7.041-2.448-9.567C100.487,0.72,96.951,0,94.244,0
		c-5.288,0-11.202,1.971-12.438,8.511c-0.133,0.697,0.376,1.064,0.829,1.166l5.39,0.579c0.508-0.023,0.876-0.516,0.97-1.017
		c0.462-2.253,2.347-3.341,4.467-3.341c1.149,0,2.448,0.423,3.121,1.448c0.782,1.142,0.681,2.706,0.681,4.028v0.72
		c-3.223,0.368-7.44,0.603-10.459,1.932c-3.489,1.502-5.93,4.577-5.93,9.09c0,5.781,3.638,8.667,8.323,8.667
		c3.95,0,6.117-0.931,9.168-4.044c1.009,1.463,1.346,2.175,3.192,3.708c0.415,0.219,0.946,0.196,1.314-0.133h0l0.008,0.015
		c1.11-0.985,3.129-2.746,4.263-3.692c0.454-0.375,0.375-0.978,0.023-1.479C106.15,24.75,105.07,23.608,105.07,21.003z
		 M96.223,23.655c-0.884,1.565-2.292,2.527-3.849,2.527c-2.135,0-3.387-1.627-3.387-4.029c0-4.74,4.248-5.601,8.276-5.601v1.205
		C97.263,19.924,97.318,21.731,96.223,23.655z"/>
	<path fill="#FFFFFF" d="M147.946,0.274c-8.05,0-12.517,6.907-12.517,15.793c0,8.832,4.412,15.919,12.516,15.919
		c7.784,0,12.72-6.908,12.72-15.614C160.666,7.361,156.199,0.274,147.946,0.274z M147.946,26.104c-4.365,0-4.311-7.447-4.311-10.936
		c0-3.481,0.258-9.066,4.357-9.066h0c1.768,0,3.012,0.774,3.638,2.761c0.727,2.284,0.829,5.163,0.829,7.573
		C152.46,20.096,152.256,26.104,147.946,26.104z"/>
	<path fill="#FFFFFF" d="M131.784,23.656c-3.191-1.799-6.907-2.324-10.427-2.238l9.473-13.525c0.876-1.212,1.369-1.979,1.377-2.566
		V1.831c0-0.61-0.47-1.033-1.056-1.033H112.87c-0.563,0-1.033,0.415-1.033,1.033v4.083c0,0.61,0.469,1.024,1.056,1.024h9.552
		l-10.975,15.739c-0.665,1.009-0.673,2.143-0.673,2.809v4.138c0,0.595,0.665,1.283,1.299,0.939
		c6.219-3.301,13.689-2.98,19.314-0.032c0.688,0.36,1.346-0.336,1.346-0.931v-4.357C132.7,24.657,132.504,24.063,131.784,23.656z"/>
</g>
</svg>
