<?xml version="1.0" encoding="utf-8"?>
<!-- Generator: Adobe Illustrator 15.0.0, SVG Export Plug-In . SVG Version: 6.00 Build 0)  -->
<!DOCTYPE svg PUBLIC "-//W3C//DTD SVG 1.1//EN" "http://www.w3.org/Graphics/SVG/1.1/DTD/svg11.dtd">
<svg version="1.1" id="Layer_1" xmlns="http://www.w3.org/2000/svg" xmlns:xlink="http://www.w3.org/1999/xlink" x="0px" y="0px"
	 width="141.732px" height="47.376px" viewBox="0.646 0.217 141.732 47.376" enable-background="new 0.646 0.217 141.732 47.376"
	 xml:space="preserve">
<g>
	<defs>
		<rect id="SVGID_1_" y="0" width="142.379" height="47.593"/>
	</defs>
	<clipPath id="SVGID_2_">
		<use xlink:href="#SVGID_1_"  overflow="visible"/>
	</clipPath>
	<g id="ios" clip-path="url(#SVGID_2_)">
		<g id="ios-2">
			<g id="Grupo_21" transform="translate(0 0)">
				<g id="Grupo_16">
					<g id="Grupo_15">
						<path id="Trazado_6" fill="#B6B6B6" d="M131.041,0H11.345c-0.436,0-0.868,0-1.301,0C9.679,0,9.319,0.009,8.95,0.015
							c-0.799,0.009-1.596,0.08-2.385,0.211C5.778,0.36,5.017,0.611,4.304,0.972C3.593,1.336,2.943,1.81,2.378,2.374
							C1.81,2.938,1.337,3.59,0.977,4.304C0.615,5.016,0.364,5.78,0.233,6.568C0.101,7.355,0.029,8.151,0.02,8.949
							c-0.012,0.365-0.012,0.732-0.017,1.095v27.502c0.005,0.369,0.007,0.727,0.017,1.097c0.009,0.798,0.081,1.595,0.213,2.382
							c0.13,0.789,0.381,1.554,0.744,2.266c0.36,0.712,0.833,1.361,1.401,1.921c0.563,0.567,1.213,1.041,1.926,1.402
							c0.712,0.362,1.474,0.614,2.261,0.75c0.789,0.13,1.585,0.199,2.385,0.211c0.369,0.008,0.732,0.013,1.093,0.013
							c0.435,0,0.867,0,1.301,0h119.696c0.428,0,0.862,0,1.29,0c0.362,0,0.732-0.005,1.097-0.013
							c0.798-0.011,1.593-0.081,2.381-0.211c0.789-0.137,1.554-0.389,2.27-0.75c0.712-0.361,1.362-0.835,1.924-1.402
							c0.566-0.563,1.041-1.21,1.406-1.921c0.359-0.713,0.606-1.477,0.737-2.266c0.132-0.787,0.205-1.584,0.22-2.382
							c0.005-0.369,0.005-0.728,0.005-1.097c0.01-0.432,0.01-0.862,0.01-1.302V11.344c0-0.436,0-0.868-0.01-1.302
							c0-0.365,0-0.732-0.005-1.096c-0.015-0.798-0.088-1.594-0.22-2.381c-0.131-0.788-0.378-1.551-0.737-2.264
							c-0.733-1.433-1.898-2.599-3.33-3.335c-0.716-0.36-1.48-0.611-2.27-0.746c-0.787-0.131-1.583-0.202-2.381-0.21
							c-0.362-0.007-0.731-0.013-1.097-0.015c-0.428,0-0.862,0-1.29,0V0z"/>
						<path id="Trazado_7" d="M10.048,46.551c-0.363,0-0.717-0.005-1.076-0.013c-0.745-0.01-1.488-0.075-2.224-0.195
							c-0.686-0.117-1.35-0.336-1.971-0.65c-0.616-0.312-1.177-0.72-1.663-1.21c-0.493-0.483-0.903-1.045-1.214-1.661
							c-0.314-0.62-0.533-1.285-0.646-1.972c-0.122-0.737-0.188-1.482-0.198-2.23c-0.007-0.251-0.017-1.086-0.017-1.086V10.047
							c0,0,0.01-0.822,0.017-1.064c0.009-0.747,0.075-1.491,0.197-2.228C1.369,6.067,1.588,5.4,1.904,4.778
							C2.214,4.161,2.622,3.6,3.111,3.115c0.489-0.492,1.052-0.903,1.669-1.22c0.619-0.313,1.283-0.532,1.967-0.646
							c0.738-0.122,1.484-0.187,2.231-0.196l1.074-0.015h122.272l1.087,0.015c0.74,0.009,1.479,0.074,2.212,0.194
							c0.69,0.117,1.361,0.336,1.987,0.65c1.234,0.636,2.239,1.643,2.873,2.879c0.311,0.618,0.524,1.279,0.637,1.962
							c0.125,0.742,0.192,1.492,0.207,2.246c0,0.337,0,0.699,0,1.057c0.01,0.446,0.01,0.871,0.01,1.302v24.901
							c0,0.432,0,0.854-0.01,1.279c0,0.386,0,0.741-0.005,1.105c-0.013,0.739-0.081,1.476-0.203,2.205
							c-0.111,0.691-0.327,1.361-0.643,1.986c-0.639,1.229-1.642,2.231-2.873,2.867c-0.625,0.315-1.294,0.534-1.984,0.65
							c-0.735,0.121-1.479,0.186-2.225,0.194c-0.349,0.008-0.714,0.013-1.068,0.013h-1.29L10.048,46.551z"/>
					</g>
				</g>
				<g id="Grupo_20" transform="translate(14.586 12.756)">
					<g id="Grupo_18">
						<g id="Grupo_17">
							<path id="Trazado_8" fill="#FFFFFF" d="M14.884,11.398c0.025-2.019,1.083-3.883,2.804-4.94
								c-1.09-1.557-2.85-2.508-4.75-2.568c-1.999-0.209-3.935,1.195-4.953,1.195c-1.039,0-2.603-1.174-4.293-1.138
								C1.471,4.018-0.55,5.25-1.63,7.192c-2.3,3.986-0.585,9.842,1.619,13.06c1.104,1.576,2.392,3.334,4.079,3.275
								c1.65-0.068,2.266-1.052,4.258-1.052c1.974,0,2.552,1.052,4.272,1.013c1.772-0.029,2.887-1.585,3.951-3.172
								c0.793-1.124,1.403-2.366,1.808-3.68C16.252,15.747,14.884,13.684,14.884,11.398z"/>
							<path id="Trazado_9" fill="#FFFFFF" d="M11.633,1.772c0.966-1.158,1.442-2.648,1.327-4.153
								c-1.475,0.155-2.837,0.859-3.816,1.974c-0.966,1.1-1.456,2.539-1.361,4C9.277,3.609,10.697,2.938,11.633,1.772z"/>
						</g>
					</g>
					<g id="Grupo_19" transform="translate(35.775 13.386)">
						<path id="Trazado_10" fill="#FFFFFF" d="M-0.03,6.148h-5.631l-1.353,3.993h-2.387l5.335-14.775h2.478l5.334,14.775H1.322
							L-0.03,6.148z M-5.078,4.306h4.465l-2.2-6.481h-0.062L-5.078,4.306z"/>
						<path id="Trazado_11" fill="#FFFFFF" d="M15.269,4.757c0,3.347-1.79,5.499-4.496,5.499c-1.397,0.072-2.714-0.66-3.389-1.886
							H7.335v5.336h-2.21V-0.63h2.14v1.789h0.041c0.706-1.218,2.023-1.949,3.43-1.905C13.467-0.742,15.269,1.419,15.269,4.757z
							 M12.996,4.757c0-2.181-1.127-3.614-2.847-3.614c-1.689,0-2.827,1.464-2.827,3.614c0,2.171,1.139,3.625,2.827,3.625
							C11.869,8.381,12.996,6.959,12.996,4.757z"/>
						<path id="Trazado_12" fill="#FFFFFF" d="M27.124,4.757c0,3.347-1.789,5.499-4.496,5.499c-1.396,0.072-2.713-0.66-3.389-1.886
							h-0.051v5.336h-2.21V-0.63h2.14v1.789h0.041c0.705-1.218,2.023-1.95,3.43-1.905C25.324-0.742,27.124,1.419,27.124,4.757z
							 M24.852,4.757c0-2.181-1.128-3.614-2.847-3.614c-1.69,0-2.826,1.464-2.826,3.614c0,2.171,1.139,3.625,2.826,3.625
							C23.725,8.381,24.852,6.959,24.852,4.757L24.852,4.757z"/>
						<path id="Trazado_13" fill="#FFFFFF" d="M34.96,6.026c0.164,1.464,1.587,2.428,3.533,2.428c1.864,0,3.204-0.963,3.204-2.284
							c0-1.146-0.809-1.834-2.723-2.304l-1.914-0.461c-2.713-0.656-3.973-1.924-3.973-3.986c0-2.549,2.222-4.301,5.375-4.301
							c3.122,0,5.263,1.751,5.335,4.301h-2.232c-0.134-1.475-1.354-2.364-3.134-2.364c-1.78,0-3,0.9-3,2.21
							c0,1.044,0.778,1.659,2.685,2.13l1.626,0.399c3.031,0.717,4.291,1.935,4.291,4.096c0,2.766-2.202,4.496-5.704,4.496
							c-3.276,0-5.489-1.69-5.631-4.363L34.96,6.026z"/>
						<path id="Trazado_14" fill="#FFFFFF" d="M48.806-3.179v2.549h2.049v1.751h-2.049v5.938c0,0.923,0.406,1.353,1.311,1.353
							c0.243-0.004,0.485-0.021,0.727-0.051v1.741c-0.405,0.075-0.816,0.109-1.228,0.102c-2.182,0-3.031-0.818-3.031-2.908V1.121
							h-1.566V-0.63h1.564v-2.549H48.806z"/>
						<path id="Trazado_15" fill="#FFFFFF" d="M52.041,4.758c0-3.389,1.996-5.52,5.108-5.52c3.114,0,5.11,2.13,5.11,5.52
							c0,3.39-1.976,5.519-5.11,5.519C54.017,10.276,52.041,8.157,52.041,4.758z M60.006,4.758c0-2.325-1.065-3.697-2.856-3.697
							c-1.792,0-2.856,1.383-2.856,3.697c0,2.334,1.064,3.697,2.856,3.697C58.941,8.455,60.006,7.092,60.006,4.758z"/>
						<path id="Trazado_16" fill="#FFFFFF" d="M64.083-0.63h2.105v1.834h0.051c0.294-1.181,1.376-1.993,2.591-1.947
							c0.255-0.001,0.509,0.026,0.758,0.082v2.068c-0.322-0.099-0.657-0.145-0.993-0.134c-1.23-0.05-2.267,0.907-2.317,2.137
							c-0.005,0.114,0,0.229,0.013,0.343v6.389h-2.21L64.083-0.63z"/>
						<path id="Trazado_17" fill="#FFFFFF" d="M79.783,6.978c-0.297,1.953-2.202,3.298-4.636,3.298c-3.133,0-5.078-2.1-5.078-5.468
							c0-3.368,1.951-5.57,4.984-5.57c2.98,0,4.855,2.047,4.855,5.313v0.758H72.3v0.134c-0.137,1.544,1.003,2.905,2.547,3.042
							c0.116,0.01,0.234,0.013,0.352,0.009c1.073,0.1,2.084-0.517,2.487-1.516H79.783z M72.308,3.764h5.386
							c0.079-1.428-1.013-2.65-2.44-2.731c-0.067-0.004-0.135-0.005-0.201-0.004c-1.506-0.006-2.732,1.209-2.74,2.715
							c0,0.007,0,0.014,0,0.021L72.308,3.764z"/>
					</g>
				</g>
			</g>
			<g id="Grupo_23" transform="translate(52.181 12.342)">
				<g id="Grupo_22">
					<path id="Trazado_18" fill="#FFFFFF" d="M-7.175-1.954c2.105,0,3.34,1.294,3.34,3.527c0,2.269-1.226,3.572-3.34,3.572h-2.564
						v-7.1H-7.175z M-8.639,4.142H-7.3c1.485,0,2.341-0.924,2.341-2.553c0-1.605-0.871-2.54-2.341-2.54h-1.339V4.142z"/>
					<path id="Trazado_19" fill="#FFFFFF" d="M-2.588,2.465c0-1.727,0.964-2.779,2.528-2.779s2.521,1.052,2.521,2.779
						c0,1.727-0.959,2.785-2.521,2.785C-1.622,5.25-2.588,4.201-2.588,2.465z M1.377,2.465c0-1.162-0.522-1.841-1.438-1.841
						s-1.436,0.679-1.436,1.841c0,1.161,0.517,1.844,1.436,1.844C0.859,4.309,1.377,3.631,1.377,2.465z"/>
					<path id="Trazado_20" fill="#FFFFFF" d="M9.181,5.146H8.085L6.981,1.2H6.9L5.797,5.146H4.704L3.227-0.211h1.07l0.96,4.087
						h0.081L6.44-0.211h1.014l1.101,4.087h0.082l0.955-4.087h1.057L9.181,5.146z"/>
					<path id="Trazado_21" fill="#FFFFFF" d="M11.895-0.211h1.018V0.64h0.081c0.275-0.626,0.917-1.009,1.599-0.954
						c0.959-0.072,1.796,0.647,1.868,1.606c0.01,0.128,0.005,0.259-0.014,0.387v3.468H15.39V1.943c0-0.86-0.375-1.289-1.156-1.289
						c-0.678-0.031-1.253,0.493-1.285,1.171c-0.003,0.063-0.001,0.125,0.005,0.188v3.133h-1.057L11.895-0.211z"/>
					<path id="Trazado_22" fill="#FFFFFF" d="M18.13-2.304h1.058v7.449H18.13V-2.304z"/>
					<path id="Trazado_23" fill="#FFFFFF" d="M20.657,2.465c0-1.727,0.964-2.779,2.528-2.779s2.525,1.052,2.525,2.779
						c0,1.727-0.96,2.785-2.525,2.785C21.62,5.25,20.657,4.201,20.657,2.465z M24.623,2.465c0-1.162-0.522-1.841-1.437-1.841
						s-1.437,0.679-1.437,1.841c0,1.161,0.518,1.844,1.437,1.844S24.623,3.631,24.623,2.465z"/>
					<path id="Trazado_24" fill="#FFFFFF" d="M26.824,3.631c0-0.964,0.718-1.521,1.993-1.599l1.452-0.081V1.488
						c0-0.569-0.374-0.885-1.097-0.885c-0.591,0-1,0.216-1.117,0.596h-1.023c0.108-0.921,0.976-1.511,2.188-1.511
						c1.343,0,2.101,0.668,2.101,1.8v3.66h-1.018V4.395h-0.081c-0.346,0.549-0.961,0.871-1.61,0.842
						c-0.889,0.093-1.686-0.552-1.779-1.441C26.827,3.741,26.824,3.687,26.824,3.631z M30.269,3.173V2.725l-1.308,0.082
						c-0.739,0.049-1.074,0.3-1.074,0.773c0,0.472,0.419,0.763,0.995,0.763c0.694,0.07,1.314-0.436,1.384-1.129
						C30.267,3.199,30.268,3.186,30.269,3.173L30.269,3.173z"/>
					<path id="Trazado_25" fill="#FFFFFF" d="M32.711,2.465c0-1.693,0.87-2.766,2.224-2.766c0.685-0.032,1.324,0.334,1.644,0.94
						h0.081v-2.943h1.059v7.449h-1.014V4.299h-0.081c-0.343,0.6-0.991,0.96-1.682,0.935C33.571,5.234,32.711,4.162,32.711,2.465z
						 M33.803,2.465c0,1.138,0.536,1.819,1.432,1.819c0.895,0,1.442-0.693,1.442-1.815s-0.558-1.82-1.442-1.82
						c-0.887,0-1.429,0.688-1.429,1.816H33.803z"/>
					<path id="Trazado_26" fill="#FFFFFF" d="M42.09,2.465c0-1.727,0.963-2.779,2.527-2.779s2.521,1.052,2.521,2.779
						c0,1.727-0.959,2.785-2.521,2.785S42.09,4.201,42.09,2.465z M46.054,2.465c0-1.162-0.522-1.841-1.438-1.841
						S43.18,1.303,43.18,2.465c0,1.161,0.518,1.844,1.437,1.844C45.537,4.309,46.054,3.631,46.054,2.465z"/>
					<path id="Trazado_27" fill="#FFFFFF" d="M48.561-0.211h1.017V0.64h0.082c0.274-0.626,0.916-1.009,1.598-0.954
						c0.96-0.072,1.797,0.648,1.869,1.608c0.01,0.128,0.005,0.257-0.015,0.385v3.468h-1.058V1.943c0-0.86-0.373-1.289-1.155-1.289
						c-0.678-0.031-1.253,0.493-1.285,1.171c-0.003,0.063-0.001,0.125,0.006,0.188v3.133h-1.058L48.561-0.211z"/>
					<path id="Trazado_28" fill="#FFFFFF" d="M59.085-1.546v1.359h1.162v0.891h-1.162v2.755c0,0.561,0.231,0.807,0.757,0.807
						c0.137,0,0.271-0.008,0.407-0.024v0.881c-0.189,0.033-0.382,0.052-0.575,0.054c-1.176,0-1.645-0.415-1.645-1.447V0.702h-0.851
						v-0.891h0.85v-1.359L59.085-1.546z"/>
					<path id="Trazado_29" fill="#FFFFFF" d="M61.69-2.304h1.048v2.953h0.082c0.288-0.632,0.941-1.016,1.633-0.959
						c0.975-0.053,1.806,0.693,1.859,1.667c0.005,0.11,0.001,0.221-0.014,0.33v3.459h-1.058V1.947c0-0.855-0.398-1.289-1.146-1.289
						c-0.689-0.057-1.293,0.456-1.35,1.146c-0.006,0.07-0.005,0.142,0.001,0.213v3.129h-1.058L61.69-2.304z"/>
					<path id="Trazado_30" fill="#FFFFFF" d="M72.465,3.7c-0.297,1.011-1.274,1.664-2.322,1.55c-1.534,0-2.475-1.052-2.475-2.766
						c0-1.712,0.96-2.798,2.47-2.798c1.49,0,2.391,1.018,2.391,2.702v0.369h-3.783v0.059c-0.065,0.779,0.513,1.465,1.292,1.53
						c0.046,0.004,0.09,0.005,0.135,0.005c0.518,0.062,1.021-0.195,1.274-0.65L72.465,3.7z M68.746,1.973h2.707
						c0.053-0.712-0.48-1.332-1.192-1.385c-0.042-0.003-0.085-0.004-0.127-0.003c-0.757-0.009-1.378,0.597-1.388,1.354
						C68.746,1.95,68.746,1.962,68.746,1.973z"/>
				</g>
			</g>
		</g>
	</g>
</g>
</svg>
