<svg xmlns="http://www.w3.org/2000/svg" xmlns:xlink="http://www.w3.org/1999/xlink" width="20.151" height="20.151" viewBox="0 0 20.151 20.151">
  <defs>
    <clipPath id="clip-path">
      <path id="Trazado_10332" data-name="Trazado 10332" d="M1766.249,4936.624a10.076,10.076,0,1,1-10.075-10.076A10.075,10.075,0,0,1,1766.249,4936.624Z" transform="translate(-1746.098 -4926.548)" fill="none"/>
    </clipPath>
  </defs>
  <g id="Grupo_3875" data-name="Grupo 3875" clip-path="url(#clip-path)">
    <g id="Grupo_3874" data-name="Grupo 3874" transform="translate(-5.043 0.002)">
      <path id="Trazado_10264" data-name="Trazado 10264" d="M1717.727,4926.558h30.19c.07,0,.037.074.037.136v6.557c0,.044-.049.025-.088.025H1717.8c-.061,0-.071.016-.071-.047v-6.67Zm30.227,13.434v5.3c0,.095.016,1.415-.014,1.415h-30.207a3.41,3.41,0,0,1-.006-.363v-5.921c0-.024,0-.434,0-.434h30.225Z" transform="translate(-1717.725 -4926.558)" fill="#49a9f6" fill-rule="evenodd"/>
      <path id="Trazado_10265" data-name="Trazado 10265" d="M1717.735,4964.353h30.19c.07,0,.037.074.037.136v6.557c0,.043-.049.024-.087.024h-30.068c-.061,0-.071.016-.071-.047v-6.669Z" transform="translate(-1717.733 -4957.636)" fill="#f0f0f0" fill-rule="evenodd"/>
      <g id="Grupo_3873" data-name="Grupo 3873" transform="translate(12.548 7.509)">
        <g id="Grupo_3872" data-name="Grupo 3872">
          <g id="Grupo_3826" data-name="Grupo 3826" transform="translate(2.459)">
            <g id="Grupo_3824" data-name="Grupo 3824">
              <path id="Trazado_10266" data-name="Trazado 10266" d="M1802.311,4968.845l.031.916.022.635c0,.131.05.236-.106.236s-.075-.223-.072-.321c.007-.2.013-.394.02-.59.006-.163.011-.326.017-.488,0-.107.007-.214.011-.321,0-.02,0-.04,0-.06,0-.05.076-.06.074-.006Z" transform="translate(-1802.168 -4968.809)" fill="#ffc703" stroke="#853409" stroke-miterlimit="2.414" stroke-width="0.125" fill-rule="evenodd"/>
              <path id="Trazado_10267" data-name="Trazado 10267" d="M1802.664,4973.546q.011.413.021.826a.158.158,0,0,1-.043,0q.011-.413.021-.826Z" transform="translate(-1802.558 -4972.704)" fill="#853409" fill-rule="evenodd"/>
            </g>
            <g id="Grupo_3825" data-name="Grupo 3825" transform="translate(0.155 0.065)">
              <path id="Trazado_10268" data-name="Trazado 10268" d="M1803.039,4970.754a.8.8,0,0,0,.1-.361,1.224,1.224,0,0,1,.128-.46,1,1,0,0,0,.076-.454.352.352,0,0,1,.042-.189c.005-.01.12-.155.14-.1.011.029-.068.109-.077.141a.691.691,0,0,0,.012.259c.026.219-.1.359-.135.559-.034.176-.026.354-.048.531-.017.139-.122.094-.241.078Z" transform="translate(-1803.039 -4969.176)" fill="#ffc703" stroke="#853409" stroke-miterlimit="2.414" stroke-width="0.125" fill-rule="evenodd"/>
              <path id="Trazado_10269" data-name="Trazado 10269" d="M1803.67,4974.6c.068-.236.025-.515.162-.724a1.045,1.045,0,0,0-.073.427c0,.071.017.342-.089.3Z" transform="translate(-1803.558 -4973.039)" fill="#853409" fill-rule="evenodd"/>
            </g>
          </g>
          <g id="Grupo_3829" data-name="Grupo 3829" transform="translate(1.575 0.059)">
            <g id="Grupo_3827" data-name="Grupo 3827" transform="translate(0 0.128)">
              <path id="Trazado_10270" data-name="Trazado 10270" d="M1797.249,4969.889l.379.834.263.578a.629.629,0,0,1,.076.167c0,.077-.039.074-.11.1-.1.042-.328-.723-.37-.834l-.183-.489-.106-.284c-.018-.047.021-.152.051-.073Z" transform="translate(-1797.193 -4969.861)" fill="#ffc703" stroke="#853409" stroke-miterlimit="2.414" stroke-width="0.125" fill-rule="evenodd"/>
              <path id="Trazado_10271" data-name="Trazado 10271" d="M1799.05,4974.288l.336.755a.146.146,0,0,1-.04.017l-.3-.772Z" transform="translate(-1798.72 -4973.501)" fill="#853409" fill-rule="evenodd"/>
            </g>
            <g id="Grupo_3828" data-name="Grupo 3828" transform="translate(0.442)">
              <path id="Trazado_10272" data-name="Trazado 10272" d="M1799.922,4970.775a.8.8,0,0,0-.042-.373,1.446,1.446,0,0,1-.056-.512,1,1,0,0,0-.105-.41c-.03-.07-.081-.319.047-.342.007,0-.007.172,0,.193a1.462,1.462,0,0,0,.124.243c.09.188.031.375.077.567.038.161.106.311.15.471.037.134-.077.133-.193.163Z" transform="translate(-1799.682 -4969.138)" fill="#ffc703" stroke="#853409" stroke-miterlimit="2.414" stroke-width="0.125" fill-rule="evenodd"/>
              <path id="Trazado_10273" data-name="Trazado 10273" d="M1800.942,4974.627c-.028-.244-.174-.485-.127-.731a1.048,1.048,0,0,0,.1.422c.026.065.146.31.031.309Z" transform="translate(-1800.606 -4973.05)" fill="#853409" fill-rule="evenodd"/>
            </g>
          </g>
          <g id="Grupo_3832" data-name="Grupo 3832" transform="translate(0.757 0.428)">
            <g id="Grupo_3830" data-name="Grupo 3830" transform="translate(0 0.307)">
              <path id="Trazado_10274" data-name="Trazado 10274" d="M1792.638,4972.961l.67.625.464.434c.034.031.114.081.134.125.031.07-.008.083-.063.137-.077.077-.58-.543-.661-.63l-.356-.382-.207-.222c-.034-.037-.039-.148.02-.087Z" transform="translate(-1792.593 -4972.943)" fill="#ffc703" stroke="#853409" stroke-miterlimit="2.414" stroke-width="0.125" fill-rule="evenodd"/>
              <path id="Trazado_10275" data-name="Trazado 10275" d="M1795.9,4976.4l.6.569a.136.136,0,0,1-.031.03l-.569-.6Z" transform="translate(-1795.316 -4975.782)" fill="#853409" fill-rule="evenodd"/>
            </g>
            <g id="Grupo_3831" data-name="Grupo 3831" transform="translate(0.378)">
              <path id="Trazado_10276" data-name="Trazado 10276" d="M1795.533,4972.67a.794.794,0,0,0-.182-.328,1.217,1.217,0,0,1-.234-.416,1,1,0,0,0-.268-.375c-.054-.053-.2-.264-.088-.334.006,0,.059.162.072.179a1.511,1.511,0,0,0,.208.177c.156.139.172.333.288.494.1.134.218.247.319.377.085.11-.02.152-.115.225Z" transform="translate(-1794.721 -4971.217)" fill="#ffc703" stroke="#853409" stroke-miterlimit="2.414" stroke-width="0.125" fill-rule="evenodd"/>
              <path id="Trazado_10277" data-name="Trazado 10277" d="M1797.82,4975.968c-.119-.216-.346-.382-.4-.627a1.049,1.049,0,0,0,.25.354c.049.051.253.23.147.273Z" transform="translate(-1796.943 -4974.608)" fill="#853409" fill-rule="evenodd"/>
            </g>
          </g>
          <g id="Grupo_3835" data-name="Grupo 3835" transform="translate(0.194 1.119)">
            <g id="Grupo_3833" data-name="Grupo 3833" transform="translate(0 0.443)">
              <path id="Trazado_10278" data-name="Trazado 10278" d="M1789.47,4977.6l.858.322.595.223c.123.046.237.044.177.188s-.234-.016-.324-.057l-.537-.245-.445-.2-.292-.133-.054-.024c-.046-.021-.027-.093.022-.071Z" transform="translate(-1789.422 -4977.597)" fill="#ffc703" stroke="#853409" stroke-miterlimit="2.414" stroke-width="0.125" fill-rule="evenodd"/>
              <path id="Trazado_10279" data-name="Trazado 10279" d="M1793.8,4979.548l.771.3a.129.129,0,0,1-.016.04l-.755-.336Z" transform="translate(-1793.026 -4979.201)" fill="#853409" fill-rule="evenodd"/>
            </g>
            <g id="Grupo_3834" data-name="Grupo 3834" transform="translate(0.26)">
              <path id="Trazado_10280" data-name="Trazado 10280" d="M1792.162,4976.155a.794.794,0,0,0-.293-.234,1.213,1.213,0,0,1-.376-.294.99.99,0,0,0-.391-.243.36.36,0,0,1-.173-.129c-.007-.01-.078-.152-.028-.15.03,0,.074.1.1.125a.681.681,0,0,0,.244.088c.212.06.295.228.465.339.15.1.317.159.472.247.121.069.04.149-.021.252Z" transform="translate(-1790.883 -4975.104)" fill="#ffc703" stroke="#853409" stroke-miterlimit="2.414" stroke-width="0.125" fill-rule="evenodd"/>
              <path id="Trazado_10281" data-name="Trazado 10281" d="M1795.411,4978.418c-.193-.153-.466-.22-.607-.427a1.044,1.044,0,0,0,.367.231c.064.028.322.115.24.2Z" transform="translate(-1794.107 -4977.478)" fill="#853409" fill-rule="evenodd"/>
            </g>
          </g>
          <g id="Grupo_3838" data-name="Grupo 3838" transform="translate(0 2.03)">
            <g id="Grupo_3836" data-name="Grupo 3836" transform="translate(0 0.439)">
              <path id="Trazado_10282" data-name="Trazado 10282" d="M1788.369,4982.765l.916-.032.635-.022c.13,0,.236-.049.236.106s-.255.074-.355.07l-.556-.019-.489-.017-.32-.011-.059,0c-.051,0-.06-.076-.006-.074Z" transform="translate(-1788.332 -4982.702)" fill="#ffc703" stroke="#853409" stroke-miterlimit="2.414" stroke-width="0.125" fill-rule="evenodd"/>
              <path id="Trazado_10283" data-name="Trazado 10283" d="M1793.07,4983.162l.826-.022a.141.141,0,0,1,0,.043l-.826-.021Z" transform="translate(-1792.228 -4983.062)" fill="#853409" fill-rule="evenodd"/>
            </g>
            <g id="Grupo_3837" data-name="Grupo 3837" transform="translate(0.065)">
              <path id="Trazado_10284" data-name="Trazado 10284" d="M1790.278,4980.719a.809.809,0,0,0-.361-.1,1.227,1.227,0,0,1-.46-.127.983.983,0,0,0-.454-.076.353.353,0,0,1-.19-.042c-.01-.005-.155-.12-.1-.14.029-.011.109.068.141.077a.692.692,0,0,0,.259-.012c.219-.026.359.1.559.135.176.034.354.025.531.047.138.018.094.122.077.24Z" transform="translate(-1788.7 -4980.229)" fill="#ffc703" stroke="#853409" stroke-miterlimit="2.414" stroke-width="0.125" fill-rule="evenodd"/>
              <path id="Trazado_10285" data-name="Trazado 10285" d="M1794.122,4981.6c-.237-.068-.515-.026-.724-.163a1.034,1.034,0,0,0,.427.073c.07,0,.342-.016.3.09Z" transform="translate(-1792.563 -4981.227)" fill="#853409" fill-rule="evenodd"/>
            </g>
          </g>
          <g id="Grupo_3841" data-name="Grupo 3841" transform="translate(0.059 2.676)">
            <g id="Grupo_3839" data-name="Grupo 3839" transform="translate(0.129 0.113)">
              <path id="Trazado_10286" data-name="Trazado 10286" d="M1789.417,4985.217l.85-.386.588-.268c.138-.063.178-.111.243.046.043.1-.724.328-.835.37l-.489.183-.284.107c-.049.018-.15-.023-.073-.052Z" transform="translate(-1789.388 -4984.503)" fill="#ffc703" stroke="#853409" stroke-miterlimit="2.414" stroke-width="0.125" fill-rule="evenodd"/>
              <path id="Trazado_10287" data-name="Trazado 10287" d="M1793.814,4985.419l.755-.336a.138.138,0,0,1,.017.04l-.771.3Z" transform="translate(-1793.027 -4984.98)" fill="#853409" fill-rule="evenodd"/>
            </g>
            <g id="Grupo_3840" data-name="Grupo 3840">
              <path id="Trazado_10288" data-name="Trazado 10288" d="M1790.3,4984.068a.8.8,0,0,0-.373.042,1.443,1.443,0,0,1-.513.056,1,1,0,0,0-.41.105c-.07.03-.318.081-.342-.047,0-.006.172.008.193,0a1.46,1.46,0,0,0,.243-.125c.189-.09.375-.031.567-.077.161-.039.311-.106.471-.15.134-.037.133.077.163.193Z" transform="translate(-1788.662 -4983.868)" fill="#ffc703" stroke="#853409" stroke-miterlimit="2.414" stroke-width="0.125" fill-rule="evenodd"/>
              <path id="Trazado_10289" data-name="Trazado 10289" d="M1794.151,4984.227c-.244.027-.485.174-.731.127a1.05,1.05,0,0,0,.422-.1c.065-.026.309-.146.308-.031Z" transform="translate(-1792.574 -4984.123)" fill="#853409" fill-rule="evenodd"/>
            </g>
          </g>
          <g id="Grupo_3844" data-name="Grupo 3844" transform="translate(0.428 3.039)">
            <g id="Grupo_3842" data-name="Grupo 3842" transform="translate(0.312 0.02)">
              <path id="Trazado_10290" data-name="Trazado 10290" d="M1792.508,4987.293l.625-.67.433-.464c.09-.1.131-.2.241-.091s-.128.232-.2.3l-.407.38-.358.333-.234.22-.043.04c-.037.034-.1-.011-.057-.048Z" transform="translate(-1792.495 -4986.02)" fill="#ffc703" stroke="#853409" stroke-miterlimit="2.414" stroke-width="0.125" fill-rule="evenodd"/>
              <path id="Trazado_10291" data-name="Trazado 10291" d="M1795.921,4987.347l.569-.6a.128.128,0,0,1,.031.031l-.6.569Z" transform="translate(-1795.312 -4986.618)" fill="#853409" fill-rule="evenodd"/>
            </g>
            <g id="Grupo_3843" data-name="Grupo 3843">
              <path id="Trazado_10292" data-name="Trazado 10292" d="M1792.194,4986.055a.792.792,0,0,0-.328.182,1.219,1.219,0,0,1-.416.235.987.987,0,0,0-.375.268c-.053.054-.263.2-.334.087,0-.006.162-.059.179-.072a1.469,1.469,0,0,0,.177-.208c.14-.156.334-.172.495-.289.134-.1.247-.217.377-.319.11-.085.153.021.224.116Z" transform="translate(-1790.742 -4985.908)" fill="#ffc703" stroke="#853409" stroke-miterlimit="2.414" stroke-width="0.125" fill-rule="evenodd"/>
              <path id="Trazado_10293" data-name="Trazado 10293" d="M1795.492,4986.226c-.215.119-.382.347-.627.4a1.032,1.032,0,0,0,.354-.251c.051-.049.23-.253.273-.146Z" transform="translate(-1794.132 -4986.145)" fill="#853409" fill-rule="evenodd"/>
            </g>
          </g>
          <g id="Grupo_3847" data-name="Grupo 3847" transform="translate(1.119 3.237)">
            <g id="Grupo_3845" data-name="Grupo 3845" transform="translate(0.443)">
              <path id="Trazado_10294" data-name="Trazado 10294" d="M1797.126,4988.674l.321-.858.223-.594a.62.62,0,0,1,.064-.172c.053-.055.08-.023.151.006.1.042-.279.743-.328.85l-.2.445-.133.291-.025.054c-.021.046-.093.027-.071-.022Z" transform="translate(-1797.122 -4987.02)" fill="#ffc703" stroke="#853409" stroke-miterlimit="2.414" stroke-width="0.125" fill-rule="evenodd"/>
              <path id="Trazado_10295" data-name="Trazado 10295" d="M1799.071,4988.651l.3-.771a.122.122,0,0,1,.04.017l-.336.755Z" transform="translate(-1798.725 -4987.727)" fill="#853409" fill-rule="evenodd"/>
            </g>
            <g id="Grupo_3846" data-name="Grupo 3846" transform="translate(0 0.081)">
              <path id="Trazado_10296" data-name="Trazado 10296" d="M1795.679,4987.562a.8.8,0,0,0-.234.294,1.215,1.215,0,0,1-.295.375,1,1,0,0,0-.244.391.353.353,0,0,1-.129.172c-.01.007-.152.078-.15.028,0-.03.1-.074.125-.1a.681.681,0,0,0,.088-.243c.06-.213.228-.3.339-.465.1-.15.159-.317.247-.472.069-.121.149-.04.252.021Z" transform="translate(-1794.628 -4987.479)" fill="#ffc703" stroke="#853409" stroke-miterlimit="2.414" stroke-width="0.125" fill-rule="evenodd"/>
              <path id="Trazado_10297" data-name="Trazado 10297" d="M1797.943,4987.733c-.153.192-.22.465-.427.606a1.043,1.043,0,0,0,.23-.366c.028-.064.116-.322.2-.24Z" transform="translate(-1797.003 -4987.675)" fill="#853409" fill-rule="evenodd"/>
            </g>
          </g>
          <g id="Grupo_3850" data-name="Grupo 3850" transform="translate(2.03 3.311)">
            <g id="Grupo_3848" data-name="Grupo 3848" transform="translate(0.439)">
              <path id="Trazado_10298" data-name="Trazado 10298" d="M1802.288,4989.227q-.016-.458-.031-.916c-.007-.211-.015-.423-.022-.634,0-.131-.05-.236.106-.236s.074.255.071.354c-.007.187-.013.372-.019.559l-.018.521q0,.152-.01.3c0,.051-.078.131-.075.048Z" transform="translate(-1802.225 -4987.441)" fill="#ffc703" stroke="#853409" stroke-miterlimit="2.414" stroke-width="0.125" fill-rule="evenodd"/>
              <path id="Trazado_10299" data-name="Trazado 10299" d="M1802.687,4989.124q-.011-.413-.021-.826a.159.159,0,0,1,.043,0q-.011.413-.022.826Z" transform="translate(-1802.587 -4988.144)" fill="#853409" fill-rule="evenodd"/>
            </g>
            <g id="Grupo_3849" data-name="Grupo 3849" transform="translate(0 0.158)">
              <path id="Trazado_10300" data-name="Trazado 10300" d="M1800.244,4988.35a.8.8,0,0,0-.1.361,1.227,1.227,0,0,1-.128.46.992.992,0,0,0-.076.454.351.351,0,0,1-.042.189c-.005.01-.12.155-.14.1-.011-.029.069-.109.077-.141a.685.685,0,0,0-.012-.259c-.026-.219.1-.359.135-.559.034-.176.026-.354.048-.532.017-.138.122-.093.241-.077Z" transform="translate(-1799.754 -4988.33)" fill="#ffc703" stroke="#853409" stroke-miterlimit="2.414" stroke-width="0.125" fill-rule="evenodd"/>
              <path id="Trazado_10301" data-name="Trazado 10301" d="M1801.128,4988.529c-.068.237-.025.515-.162.724a1.035,1.035,0,0,0,.073-.427c0-.07-.016-.342.089-.3Z" transform="translate(-1800.75 -4988.489)" fill="#853409" fill-rule="evenodd"/>
            </g>
          </g>
          <g id="Grupo_3853" data-name="Grupo 3853" transform="translate(2.677 3.235)">
            <g id="Grupo_3851" data-name="Grupo 3851" transform="translate(0.108)">
              <path id="Trazado_10302" data-name="Trazado 10302" d="M1804.719,4988.694l-.379-.834-.263-.578a.6.6,0,0,1-.076-.167c0-.077.039-.074.11-.1.1-.042.328.724.37.835l.183.488.107.284c.018.048-.023.151-.051.073Z" transform="translate(-1804 -4987.012)" fill="#ffc703" stroke="#853409" stroke-miterlimit="2.414" stroke-width="0.125" fill-rule="evenodd"/>
              <path id="Trazado_10303" data-name="Trazado 10303" d="M1804.944,4988.642l-.336-.755a.147.147,0,0,1,.04-.016l.3.771Z" transform="translate(-1804.5 -4987.718)" fill="#853409" fill-rule="evenodd"/>
            </g>
            <g id="Grupo_3852" data-name="Grupo 3852" transform="translate(0 0.202)">
              <path id="Trazado_10304" data-name="Trazado 10304" d="M1803.593,4988.149a.8.8,0,0,0,.042.373,1.433,1.433,0,0,1,.056.513,1.009,1.009,0,0,0,.105.41c.03.07.081.319-.047.342-.007,0,.008-.172,0-.193a1.5,1.5,0,0,0-.125-.243c-.09-.188-.031-.374-.077-.567-.038-.161-.106-.312-.15-.471-.037-.134.077-.133.193-.164Z" transform="translate(-1803.393 -4988.149)" fill="#ffc703" stroke="#853409" stroke-miterlimit="2.414" stroke-width="0.125" fill-rule="evenodd"/>
              <path id="Trazado_10305" data-name="Trazado 10305" d="M1803.75,4988.491c.028.244.174.485.127.731a1.048,1.048,0,0,0-.1-.423c-.026-.065-.146-.31-.031-.309Z" transform="translate(-1803.646 -4988.431)" fill="#853409" fill-rule="evenodd"/>
            </g>
          </g>
          <g id="Grupo_3856" data-name="Grupo 3856" transform="translate(3.039 3.054)">
            <g id="Grupo_3854" data-name="Grupo 3854" transform="translate(0.02)">
              <path id="Trazado_10306" data-name="Trazado 10306" d="M1806.816,4987.318l-.67-.625-.464-.433c-.1-.089-.2-.131-.092-.241s.21.1.278.176l.4.432.334.357.219.234.041.043c.035.038-.01.1-.048.057Z" transform="translate(-1805.543 -4985.991)" fill="#ffc703" stroke="#853409" stroke-miterlimit="2.414" stroke-width="0.125" fill-rule="evenodd"/>
              <path id="Trazado_10307" data-name="Trazado 10307" d="M1806.872,4987.331l-.6-.568a.145.145,0,0,1,.03-.031l.569.6Z" transform="translate(-1806.142 -4986.6)" fill="#853409" fill-rule="evenodd"/>
            </g>
            <g id="Grupo_3855" data-name="Grupo 3855" transform="translate(0 0.199)">
              <path id="Trazado_10308" data-name="Trazado 10308" d="M1805.579,4987.109a.793.793,0,0,0,.182.329,1.215,1.215,0,0,1,.234.415.984.984,0,0,0,.268.375c.055.053.2.264.088.334-.006,0-.059-.162-.072-.179a1.539,1.539,0,0,0-.208-.177c-.156-.14-.172-.333-.288-.494-.1-.134-.218-.247-.319-.377-.086-.11.02-.153.116-.225Z" transform="translate(-1805.432 -4987.109)" fill="#ffc703" stroke="#853409" stroke-miterlimit="2.414" stroke-width="0.125" fill-rule="evenodd"/>
              <path id="Trazado_10309" data-name="Trazado 10309" d="M1805.751,4987.632c.119.216.346.382.4.627a1.05,1.05,0,0,0-.25-.354c-.049-.05-.253-.23-.147-.273Z" transform="translate(-1805.669 -4987.539)" fill="#853409" fill-rule="evenodd"/>
            </g>
          </g>
          <g id="Grupo_3859" data-name="Grupo 3859" transform="translate(3.245 2.784)">
            <g id="Grupo_3857" data-name="Grupo 3857">
              <path id="Trazado_10310" data-name="Trazado 10310" d="M1808.238,4985.255l-.858-.322-.594-.222c-.122-.045-.237-.044-.177-.187s.263.029.355.07l.508.231.475.216.276.125c.047.021.091.123.015.088Z" transform="translate(-1806.591 -4984.472)" fill="#ffc703" stroke="#853409" stroke-miterlimit="2.414" stroke-width="0.125" fill-rule="evenodd"/>
              <path id="Trazado_10311" data-name="Trazado 10311" d="M1808.175,4985.4l-.772-.3a.129.129,0,0,1,.017-.04l.755.336Z" transform="translate(-1807.259 -4984.957)" fill="#853409" fill-rule="evenodd"/>
            </g>
            <g id="Grupo_3858" data-name="Grupo 3858" transform="translate(0.073 0.179)">
              <path id="Trazado_10312" data-name="Trazado 10312" d="M1807.085,4985.482a.79.79,0,0,0,.293.233,1.225,1.225,0,0,1,.376.294,1,1,0,0,0,.391.244.353.353,0,0,1,.173.129c.007.01.078.152.028.15-.031,0-.074-.1-.1-.125a.7.7,0,0,0-.244-.088c-.212-.06-.295-.228-.464-.339-.15-.1-.318-.159-.472-.247-.121-.069-.04-.149.021-.252Z" transform="translate(-1807.002 -4985.482)" fill="#ffc703" stroke="#853409" stroke-miterlimit="2.414" stroke-width="0.125" fill-rule="evenodd"/>
              <path id="Trazado_10313" data-name="Trazado 10313" d="M1807.257,4986.107c.192.153.466.22.607.427a1.051,1.051,0,0,0-.367-.231c-.065-.027-.322-.115-.24-.2Z" transform="translate(-1807.199 -4985.996)" fill="#853409" fill-rule="evenodd"/>
            </g>
          </g>
          <g id="Grupo_3862" data-name="Grupo 3862" transform="translate(3.311 2.459)">
            <g id="Grupo_3860" data-name="Grupo 3860">
              <path id="Trazado_10314" data-name="Trazado 10314" d="M1808.75,4982.785l-.916.031-.634.021c-.13,0-.236.05-.236-.105s.255-.074.355-.07l.557.019.489.017.32.011.059,0c.051,0,.06.076.006.074Z" transform="translate(-1806.964 -4982.642)" fill="#ffc703" stroke="#853409" stroke-miterlimit="2.414" stroke-width="0.125" fill-rule="evenodd"/>
              <path id="Trazado_10315" data-name="Trazado 10315" d="M1808.648,4983.138l-.827.022a.144.144,0,0,1,0-.043l.827.021Z" transform="translate(-1807.668 -4983.032)" fill="#853409" fill-rule="evenodd"/>
            </g>
            <g id="Grupo_3861" data-name="Grupo 3861" transform="translate(0.158 0.155)">
              <path id="Trazado_10316" data-name="Trazado 10316" d="M1807.875,4983.515a.789.789,0,0,0,.361.1,1.235,1.235,0,0,1,.46.128.99.99,0,0,0,.454.076.352.352,0,0,1,.19.042c.01.005.155.119.1.14-.029.011-.109-.068-.141-.077a.681.681,0,0,0-.259.012c-.219.026-.359-.1-.559-.135-.176-.033-.354-.026-.531-.048-.138-.018-.094-.123-.077-.241Z" transform="translate(-1807.855 -4983.515)" fill="#ffc703" stroke="#853409" stroke-miterlimit="2.414" stroke-width="0.125" fill-rule="evenodd"/>
              <path id="Trazado_10317" data-name="Trazado 10317" d="M1808.053,4984.146c.237.068.515.025.724.163a1.042,1.042,0,0,0-.427-.073c-.071,0-.342.017-.3-.089Z" transform="translate(-1808.014 -4984.034)" fill="#853409" fill-rule="evenodd"/>
            </g>
          </g>
          <g id="Grupo_3865" data-name="Grupo 3865" transform="translate(3.24 1.561)">
            <g id="Grupo_3863" data-name="Grupo 3863">
              <path id="Trazado_10318" data-name="Trazado 10318" d="M1808.242,4977.664l-.834.379-.578.263c-.12.054-.2.136-.258-.007s.207-.167.3-.2l.521-.195.458-.172.3-.112.055-.021c.048-.018.085.047.034.065Z" transform="translate(-1806.565 -4977.595)" fill="#ffc703" stroke="#853409" stroke-miterlimit="2.414" stroke-width="0.125" fill-rule="evenodd"/>
              <path id="Trazado_10319" data-name="Trazado 10319" d="M1808.167,4979.526l-.755.336a.136.136,0,0,1-.016-.04l.772-.3Z" transform="translate(-1807.247 -4979.183)" fill="#853409" fill-rule="evenodd"/>
            </g>
            <g id="Grupo_3864" data-name="Grupo 3864" transform="translate(0.197 0.455)">
              <path id="Trazado_10320" data-name="Trazado 10320" d="M1807.674,4980.4a.8.8,0,0,0,.373-.042,1.433,1.433,0,0,1,.513-.057,1,1,0,0,0,.41-.1c.07-.03.318-.082.342.046,0,.007-.172-.008-.193,0a1.483,1.483,0,0,0-.243.125c-.188.089-.375.031-.567.077-.161.038-.312.106-.471.15-.134.037-.133-.077-.163-.193Z" transform="translate(-1807.674 -4980.158)" fill="#ffc703" stroke="#853409" stroke-miterlimit="2.414" stroke-width="0.125" fill-rule="evenodd"/>
              <path id="Trazado_10321" data-name="Trazado 10321" d="M1808.016,4981.418c.245-.028.485-.173.731-.127a1.049,1.049,0,0,0-.422.1c-.066.026-.309.146-.309.031Z" transform="translate(-1807.955 -4981.082)" fill="#853409" fill-rule="evenodd"/>
            </g>
          </g>
          <g id="Grupo_3868" data-name="Grupo 3868" transform="translate(3.055 0.742)">
            <g id="Grupo_3866" data-name="Grupo 3866">
              <path id="Trazado_10322" data-name="Trazado 10322" d="M1806.849,4973.042l-.625.67-.433.464c-.089.1-.132.2-.241.092s.128-.232.2-.3l.407-.38.357-.334.234-.219.043-.04c.037-.035.1.011.057.048Z" transform="translate(-1805.524 -4972.981)" fill="#ffc703" stroke="#853409" stroke-miterlimit="2.414" stroke-width="0.125" fill-rule="evenodd"/>
              <path id="Trazado_10323" data-name="Trazado 10323" d="M1806.854,4976.38l-.569.6a.12.12,0,0,1-.031-.03l.6-.569Z" transform="translate(-1806.125 -4975.776)" fill="#853409" fill-rule="evenodd"/>
            </g>
            <g id="Grupo_3867" data-name="Grupo 3867" transform="translate(0.197 0.394)">
              <path id="Trazado_10324" data-name="Trazado 10324" d="M1806.634,4976.009a.787.787,0,0,0,.328-.182,1.218,1.218,0,0,1,.416-.234.994.994,0,0,0,.375-.268c.053-.055.263-.2.334-.088,0,.006-.162.059-.179.072a1.5,1.5,0,0,0-.177.208c-.14.156-.334.172-.495.288-.134.1-.247.218-.377.319-.11.086-.153-.02-.225-.115Z" transform="translate(-1806.634 -4975.197)" fill="#ffc703" stroke="#853409" stroke-miterlimit="2.414" stroke-width="0.125" fill-rule="evenodd"/>
              <path id="Trazado_10325" data-name="Trazado 10325" d="M1807.157,4978.3c.215-.119.382-.346.627-.4a1.047,1.047,0,0,0-.354.25c-.051.048-.23.253-.273.146Z" transform="translate(-1807.064 -4977.42)" fill="#853409" fill-rule="evenodd"/>
            </g>
          </g>
          <g id="Grupo_3871" data-name="Grupo 3871" transform="translate(2.784 0.201)">
            <g id="Grupo_3869" data-name="Grupo 3869">
              <path id="Trazado_10326" data-name="Trazado 10326" d="M1804.78,4969.98l-.321.858-.223.594c-.046.122-.044.238-.188.177s.029-.263.071-.354l.231-.509.216-.475.126-.276c.021-.046.122-.093.088-.016Z" transform="translate(-1803.997 -4969.939)" fill="#ffc703" stroke="#853409" stroke-miterlimit="2.414" stroke-width="0.125" fill-rule="evenodd"/>
              <path id="Trazado_10327" data-name="Trazado 10327" d="M1804.922,4974.28l-.3.772a.131.131,0,0,1-.04-.017l.336-.755Z" transform="translate(-1804.481 -4973.508)" fill="#853409" fill-rule="evenodd"/>
            </g>
            <g id="Grupo_3870" data-name="Grupo 3870" transform="translate(0.179 0.253)">
              <path id="Trazado_10328" data-name="Trazado 10328" d="M1805.007,4972.639a.791.791,0,0,0,.233-.294,1.219,1.219,0,0,1,.294-.375,1,1,0,0,0,.244-.391.351.351,0,0,1,.129-.173c.01-.007.152-.078.15-.028,0,.031-.1.074-.125.1a.689.689,0,0,0-.088.244c-.06.212-.227.295-.339.465-.1.149-.159.317-.247.473-.069.121-.149.039-.252-.021Z" transform="translate(-1805.007 -4971.36)" fill="#ffc703" stroke="#853409" stroke-miterlimit="2.414" stroke-width="0.125" fill-rule="evenodd"/>
              <path id="Trazado_10329" data-name="Trazado 10329" d="M1805.631,4975.887c.154-.193.22-.466.427-.607a1.045,1.045,0,0,0-.231.367c-.028.064-.115.321-.2.24Z" transform="translate(-1805.52 -4974.583)" fill="#853409" fill-rule="evenodd"/>
            </g>
          </g>
        </g>
        <path id="Trazado_10330" data-name="Trazado 10330" d="M1797.956,4977.39a1.042,1.042,0,1,1-1.041,1.042,1.052,1.052,0,0,1,1.041-1.042Z" transform="translate(-1795.39 -4975.865)" fill="#ffc703" stroke="#853409" stroke-miterlimit="2.414" stroke-width="0.208" fill-rule="evenodd"/>
        <path id="Trazado_10331" data-name="Trazado 10331" d="M1799.86,4981.235c0,.033.089.225.069.234-.074.022-.083-.3-.075-.335.066-.3.47-.224.611-.021-.177-.172-.61-.217-.605.122Zm-.041.693a.145.145,0,0,1,.138.175.138.138,0,1,0-.275,0,.145.145,0,0,1,.138-.175Zm-.167-.146c.076-.014.149.024.222,0a.271.271,0,0,1,.134,0c-.067,0-.126.026-.19.026s-.123-.029-.19-.026l.023,0Zm.035.077a.159.159,0,0,0-.106-.054c.1-.023.144.082.238.082s.14-.1.237-.082c-.076,0-.1.071-.165.1a.2.2,0,0,1-.2-.043Zm-.1-.073c.036-.035.081-.1.138-.1s.077.039.12.019c.1-.047.161.038.228.1a.4.4,0,0,0-.507,0l.021-.021Zm-.359-.6c0-.074.205-.128.255-.125.02,0,.232.085.227.114-.063.012-.152-.087-.228-.092-.052,0-.253.065-.253.1Zm1.18,0a.347.347,0,0,0-.479-.005c.17-.108.314-.163.479.005Zm-.049.019c-.027.1-.3.068-.362,0-.035-.114.3-.092.362,0Zm-.239-.053.022-.02c-.127.021-.136.111,0,.118a.068.068,0,0,1-.024-.1Zm.11.077-.022.021c.133-.015.146-.09,0-.115a.067.067,0,0,1,.019.095Zm.109.029a.777.777,0,0,1-.146.062c-.026,0-.27-.042-.232-.09a.4.4,0,0,0,.377.029Zm-1.059-.053a.258.258,0,0,1,.187-.089c.027,0,.186.034.179.086-.013.1-.343.07-.367,0Zm.217-.072a.068.068,0,0,1,0,.118c.138-.007.129-.1,0-.118Zm-.066.117a.068.068,0,0,1,0-.115c-.143.025-.131.1,0,.115Zm-.136.008c.031-.012.151.043.2.042a.828.828,0,0,0,.187-.07.229.229,0,0,1-.183.093.717.717,0,0,1-.2-.064Zm.672.32c.063,0,.061-.075.022-.1a.07.07,0,0,1,.032.116.068.068,0,0,1-.084.009c-.056-.035-.042.012-.116.012a.123.123,0,0,1-.093-.037.068.068,0,0,1-.108.016.07.07,0,0,1,.031-.116c-.076.054.029.153.073.064a.116.116,0,0,0,.193,0,.05.05,0,0,0,.051.038Zm-.265-.125a.278.278,0,0,0-.108-.459.45.45,0,0,0-.421.124c.111-.158.421-.274.573-.092a.443.443,0,0,1,.029.319c-.011.042-.03.079-.045.12-.008.021-.039.008-.03-.012Z" transform="translate(-1797.245 -4978.774)" fill="#853409" fill-rule="evenodd"/>
      </g>
    </g>
  </g>
</svg>
