<svg id="Grupo_3902" data-name="Grupo 3902" xmlns="http://www.w3.org/2000/svg" xmlns:xlink="http://www.w3.org/1999/xlink" width="20.151" height="20.151" viewBox="0 0 20.151 20.151">
  <defs>
    <clipPath id="clip-path">
      <circle id="Elipse_100" data-name="Elipse 100" cx="10.076" cy="10.076" r="10.076" fill="none"/>
    </clipPath>
  </defs>
  <g id="Grupo_3901" data-name="Grupo 3901" transform="translate(0)" clip-path="url(#clip-path)">
    <g id="Grupo_3900" data-name="Grupo 3900" transform="translate(-0.036 0)">
      <path id="Trazado_10333" data-name="Trazado 10333" d="M1899.294,4946.7h30.19c.095,0,.037-.289.037-.356v-1.6c0-.079.061-.279-.046-.279H1899.3a2.2,2.2,0,0,0-.008.356v1.882Zm30.227-4.478c0-.212,0-2.239,0-2.239h-30.2c-.061,0-.024.44-.024.5v1.571c0,.11-.043.169.063.169h30.164Zm0-4.478c0-.213,0-2.239,0-2.239h-18.235c-.041,0-.794,0-.794,0,0-.213,0-2.238,0-2.238h16.134c.158,0,2.894,0,2.894,0,0-.214,0-2.236,0-2.236h-18.263c-.046,0-.764.007-.764-.007,0-.214-.006-2.232.005-2.232h16.185c.166,0,2.842.012,2.842-.012,0-.212,0-2.227,0-2.227H1899.31c-.037,0-.016.127-.016.156v10.813a1.353,1.353,0,0,0,.005.227h30.221Z" transform="translate(-1899.283 -4926.547)" fill="#f0f0f0" fill-rule="evenodd"/>
      <path id="Trazado_10334" data-name="Trazado 10334" d="M1899.331,4954.818h30.19c.095,0,.037-.289.037-.356v-1.6c0-.081.061-.28-.046-.28h-30.172a2.2,2.2,0,0,0-.008.356v1.883Zm11.2-13.435h19.03s0-2.239,0-2.239h-19.029s0,2.027,0,2.239Zm0,4.479h19.03s0-2.239,0-2.239h-19.029s0,2.027,0,2.239Zm-11.2,4.478h30.19c.095,0,.037-.289.037-.357v-1.6c0-.08.061-.279-.046-.279h-30.172a2.2,2.2,0,0,0-.008.356v1.883Z" transform="translate(-1899.32 -4936.906)" fill="#0456bd" fill-rule="evenodd"/>
      <g id="Grupo_3899" data-name="Grupo 3899" transform="translate(1.71 1.678)">
        <g id="Grupo_3889" data-name="Grupo 3889" transform="translate(0.283 0.269)">
          <g id="Grupo_3879" data-name="Grupo 3879" transform="translate(2.15)">
            <g id="Grupo_3877" data-name="Grupo 3877" transform="translate(1.642)">
              <path id="Trazado_10335" data-name="Trazado 10335" d="M1931.929,4939.3a1.564,1.564,0,0,0,.582-.868,2.08,2.08,0,0,1,.151-.465.865.865,0,0,1,.524-.375.764.764,0,0,0-.288.5c-.021.209.052.423.047.634a2.509,2.509,0,0,1-.2.841.883.883,0,0,1-.175.331l-.322.325a2.285,2.285,0,0,1-.372-.183c-.086-.042-.018-.21-.008-.295l.058-.447Z" transform="translate(-1931.835 -4937.574)" fill="#fcd116" stroke="#000" stroke-miterlimit="2.414" stroke-width="0.377" fill-rule="evenodd"/>
              <path id="Trazado_10336" data-name="Trazado 10336" d="M1933.334,4940.048a5.271,5.271,0,0,0,.512-1.278c.095-.441.063-1.031.536-1.268.065.056-.042.092-.084.127a.725.725,0,0,0-.238.311,5.818,5.818,0,0,0-.151.782,3.683,3.683,0,0,1-.3.911c-.055.112-.113.222-.171.332-.025.046-.044.143-.1.084Z" transform="translate(-1933.068 -4937.502)"/>
            </g>
            <g id="Grupo_3878" data-name="Grupo 3878" transform="translate(0 4.642)">
              <path id="Trazado_10337" data-name="Trazado 10337" d="M1923.85,4964.544a1.563,1.563,0,0,0-.582.868,2.1,2.1,0,0,1-.151.465.866.866,0,0,1-.524.376.766.766,0,0,0,.288-.5c.021-.209-.052-.423-.047-.634a2.51,2.51,0,0,1,.2-.841.888.888,0,0,1,.175-.331l.322-.325a2.259,2.259,0,0,1,.372.182c.086.043.018.211.008.3l-.058.447Z" transform="translate(-1922.594 -4963.619)" fill="#fcd116" stroke="#000" stroke-miterlimit="2.414" stroke-width="0.377" fill-rule="evenodd"/>
              <path id="Trazado_10338" data-name="Trazado 10338" d="M1923.748,4964.122a5.26,5.26,0,0,0-.511,1.278c-.1.442-.064,1.031-.536,1.268-.065-.056.042-.092.084-.126a.73.73,0,0,0,.238-.312,5.854,5.854,0,0,0,.151-.781,3.668,3.668,0,0,1,.3-.911c.055-.111.112-.222.171-.331.025-.047.044-.143.1-.084Z" transform="translate(-1922.664 -4964.017)"/>
            </g>
          </g>
          <g id="Grupo_3882" data-name="Grupo 3882" transform="translate(2.01 0.021)">
            <g id="Grupo_3880" data-name="Grupo 3880">
              <path id="Trazado_10339" data-name="Trazado 10339" d="M1922.252,4939.718a1.548,1.548,0,0,0-.193-1.007,2.643,2.643,0,0,1-.225-.428.858.858,0,0,1,.1-.661.755.755,0,0,0,.173.583c.15.164.353.271.5.438a2.534,2.534,0,0,1,.41.681.886.886,0,0,1,.112.339l0,.473c0,.041-.343.126-.392.142-.091.031-.162-.136-.214-.2l-.275-.356Z" transform="translate(-1921.806 -4937.621)" fill="#fcd116" stroke="#000" stroke-miterlimit="2.414" stroke-width="0.377" fill-rule="evenodd"/>
              <path id="Trazado_10340" data-name="Trazado 10340" d="M1923.269,4940.239a3.749,3.749,0,0,0-.542-1.265c-.139-.216-.311-.411-.439-.634a.913.913,0,0,1-.078-.642c.082,0,.039.073.033.126a.743.743,0,0,0,.049.411,5.739,5.739,0,0,0,.446.659,4.853,4.853,0,0,1,.581,1.33.188.188,0,0,1-.05.015Z" transform="translate(-1922.119 -4937.685)"/>
            </g>
            <g id="Grupo_3881" data-name="Grupo 3881" transform="translate(1.944 4.589)">
              <path id="Trazado_10341" data-name="Trazado 10341" d="M1933.625,4964.006a1.551,1.551,0,0,0,.193,1.007,2.658,2.658,0,0,1,.225.428.859.859,0,0,1-.1.662.755.755,0,0,0-.173-.583c-.15-.164-.353-.271-.5-.438a2.51,2.51,0,0,1-.41-.681.88.88,0,0,1-.112-.339l0-.474c0-.041.343-.125.392-.142.091-.031.162.136.214.2l.275.357Z" transform="translate(-1932.743 -4963.442)" fill="#fcd116" stroke="#000" stroke-miterlimit="2.414" stroke-width="0.377" fill-rule="evenodd"/>
              <path id="Trazado_10342" data-name="Trazado 10342" d="M1933.518,4964.035a3.756,3.756,0,0,0,.542,1.266c.139.216.311.41.439.634a.915.915,0,0,1,.078.642c-.082,0-.039-.072-.033-.126a.744.744,0,0,0-.049-.411,5.715,5.715,0,0,0-.446-.66,4.854,4.854,0,0,1-.581-1.33.183.183,0,0,1,.05-.015Z" transform="translate(-1933.339 -4963.93)"/>
            </g>
          </g>
          <g id="Grupo_3885" data-name="Grupo 3885" transform="translate(0 2.15)">
            <g id="Grupo_3883" data-name="Grupo 3883">
              <path id="Trazado_10343" data-name="Trazado 10343" d="M1912.294,4950.854a1.562,1.562,0,0,0-.868-.582,2.076,2.076,0,0,1-.466-.151.868.868,0,0,1-.376-.523.767.767,0,0,0,.5.288c.209.021.423-.052.634-.047a2.519,2.519,0,0,1,.841.2.889.889,0,0,1,.331.175l.325.322a2.261,2.261,0,0,1-.182.372c-.043.086-.211.019-.3.007l-.447-.058Z" transform="translate(-1910.569 -4949.598)" fill="#fcd116" stroke="#000" stroke-miterlimit="2.414" stroke-width="0.377" fill-rule="evenodd"/>
              <path id="Trazado_10344" data-name="Trazado 10344" d="M1913.043,4950.744a2.87,2.87,0,0,0-.437-.229,3.528,3.528,0,0,0-.841-.283c-.251-.054-.511-.07-.759-.138a.931.931,0,0,1-.509-.4c.051-.06.072.014.1.054a.773.773,0,0,0,.295.252,3.881,3.881,0,0,0,.767.156,3.6,3.6,0,0,1,.884.271c.177.084.346.181.521.269a.207.207,0,0,1-.025.046Z" transform="translate(-1910.497 -4949.66)"/>
            </g>
            <g id="Grupo_3884" data-name="Grupo 3884" transform="translate(4.641 1.642)">
              <path id="Trazado_10345" data-name="Trazado 10345" d="M1937.539,4958.933a1.561,1.561,0,0,0,.868.582,2.127,2.127,0,0,1,.465.15.869.869,0,0,1,.376.524.765.765,0,0,0-.5-.288c-.209-.021-.423.052-.634.047a2.5,2.5,0,0,1-.841-.2.884.884,0,0,1-.331-.175l-.325-.322a2.238,2.238,0,0,1,.183-.372c.043-.087.211-.019.3-.008l.447.058Z" transform="translate(-1936.613 -4958.839)" fill="#fcd116" stroke="#000" stroke-miterlimit="2.414" stroke-width="0.377" fill-rule="evenodd"/>
              <path id="Trazado_10346" data-name="Trazado 10346" d="M1937.088,4960.338a2.869,2.869,0,0,0,.437.229,3.533,3.533,0,0,0,.841.283c.251.054.51.07.759.138a.933.933,0,0,1,.509.4c-.051.06-.072-.014-.1-.054a.772.772,0,0,0-.295-.252,3.879,3.879,0,0,0-.767-.155,3.646,3.646,0,0,1-.884-.271c-.176-.085-.346-.182-.521-.27a.214.214,0,0,1,.025-.045Z" transform="translate(-1936.983 -4960.072)"/>
            </g>
          </g>
          <g id="Grupo_3888" data-name="Grupo 3888" transform="translate(0.021 2.01)">
            <g id="Grupo_3886" data-name="Grupo 3886" transform="translate(0 1.944)">
              <path id="Trazado_10347" data-name="Trazado 10347" d="M1912.712,4960.63a1.547,1.547,0,0,0-1.007.192,2.642,2.642,0,0,1-.428.225.861.861,0,0,1-.662-.1.757.757,0,0,0,.584-.173c.164-.149.271-.353.438-.5a2.528,2.528,0,0,1,.681-.409.884.884,0,0,1,.339-.112l.474,0c.041,0,.125.343.142.392.03.091-.136.163-.2.214l-.357.275Z" transform="translate(-1910.615 -4959.748)" fill="#fcd116" stroke="#000" stroke-miterlimit="2.414" stroke-width="0.377" fill-rule="evenodd"/>
              <path id="Trazado_10348" data-name="Trazado 10348" d="M1913.235,4960.539a3.938,3.938,0,0,0-1.266.542c-.36.234-.795.709-1.276.517-.005-.088.113-.033.17-.028a.719.719,0,0,0,.417-.079c.252-.136.47-.333.712-.487a3.537,3.537,0,0,1,.8-.38c.113-.038.227-.073.341-.107.049-.015.1-.054.1.022Z" transform="translate(-1910.68 -4960.36)"/>
            </g>
            <g id="Grupo_3887" data-name="Grupo 3887" transform="translate(4.589)">
              <path id="Trazado_10349" data-name="Trazado 10349" d="M1937,4949.258a1.55,1.55,0,0,0,1.007-.192,2.6,2.6,0,0,1,.428-.226.864.864,0,0,1,.661.1.757.757,0,0,0-.583.173c-.165.15-.271.353-.438.5a2.507,2.507,0,0,1-.681.41.881.881,0,0,1-.339.112l-.474,0c-.041,0-.125-.343-.142-.393-.031-.091.136-.162.2-.214l.357-.275Z" transform="translate(-1936.437 -4948.811)" fill="#fcd116" stroke="#000" stroke-miterlimit="2.414" stroke-width="0.377" fill-rule="evenodd"/>
              <path id="Trazado_10350" data-name="Trazado 10350" d="M1937.03,4950.174a3.927,3.927,0,0,0,1.266-.542c.361-.233.795-.709,1.275-.517.005.089-.113.033-.17.028a.718.718,0,0,0-.417.079c-.253.137-.47.333-.712.486a3.563,3.563,0,0,1-.8.381c-.113.038-.227.073-.341.107-.049.015-.1.054-.1-.023Z" transform="translate(-1936.925 -4949.024)"/>
            </g>
          </g>
        </g>
        <g id="Grupo_3898" data-name="Grupo 3898">
          <g id="Grupo_3890" data-name="Grupo 3890" transform="translate(3.396)">
            <path id="Trazado_10351" data-name="Trazado 10351" d="M1928.538,4938.75l.524.054q-.262-1.409-.524-2.818-.261,1.408-.523,2.818l.523-.054Z" transform="translate(-1928.015 -4935.986)" fill="#fcd116" stroke="#000" stroke-miterlimit="2.414" stroke-width="0.371" fill-rule="evenodd"/>
            <path id="Trazado_10352" data-name="Trazado 10352" d="M1930.777,4939.155v-2.671c0-.014.065,0,.065.047v2.527c0,.055.023.128-.065.1Z" transform="translate(-1930.286 -4936.391)"/>
          </g>
          <g id="Grupo_3891" data-name="Grupo 3891" transform="translate(3.396 5.022)">
            <path id="Trazado_10353" data-name="Trazado 10353" d="M1928.538,4964.3l.524-.053q-.262,1.408-.524,2.817l-.523-2.817.523.053Z" transform="translate(-1928.015 -4964.246)" fill="#fcd116" stroke="#000" stroke-miterlimit="2.414" stroke-width="0.371" fill-rule="evenodd"/>
            <path id="Trazado_10354" data-name="Trazado 10354" d="M1930.777,4964.507v2.672c0,.014.065,0,.065-.047v-2.526c0-.056.023-.129-.065-.1Z" transform="translate(-1930.286 -4964.455)"/>
          </g>
          <g id="Grupo_3892" data-name="Grupo 3892" transform="translate(1.148 1.148)">
            <path id="Trazado_10355" data-name="Trazado 10355" d="M1917.318,4944.4l.408-.333-2.363-1.622,1.622,2.362.333-.407Z" transform="translate(-1915.364 -4942.447)" fill="#fcd116" stroke="#000" stroke-miterlimit="2.414" stroke-width="0.371" fill-rule="evenodd"/>
            <path id="Trazado_10356" data-name="Trazado 10356" d="M1917.494,4944.707l-1.89-1.889c.055-.114.253.161.3.208l.653.654.982.982c-.014.014-.029.038-.046.046Z" transform="translate(-1915.561 -4942.729)"/>
          </g>
          <g id="Grupo_3893" data-name="Grupo 3893" transform="translate(4.329 4.329)">
            <path id="Trazado_10357" data-name="Trazado 10357" d="M1933.672,4960.754l.332-.408,1.622,2.363-2.362-1.622.408-.333Z" transform="translate(-1933.264 -4960.346)" fill="#fcd116" stroke="#000" stroke-miterlimit="2.414" stroke-width="0.371" fill-rule="evenodd"/>
            <path id="Trazado_10358" data-name="Trazado 10358" d="M1935.427,4962.645l1.89,1.89c.114-.056-.161-.253-.208-.3l-.678-.678-.685-.686c-.048-.048-.263-.341-.318-.226Z" transform="translate(-1935.043 -4962.214)"/>
          </g>
          <g id="Grupo_3894" data-name="Grupo 3894" transform="translate(0 3.396)">
            <path id="Trazado_10359" data-name="Trazado 10359" d="M1911.668,4955.62l.054-.524-2.817.524,2.817.523-.054-.523Z" transform="translate(-1908.904 -4955.096)" fill="#fcd116" stroke="#000" stroke-miterlimit="2.414" stroke-width="0.371" fill-rule="evenodd"/>
            <path id="Trazado_10360" data-name="Trazado 10360" d="M1912.075,4957.912H1909.4c-.014,0,0-.065.047-.065h2.526c.056,0,.128-.023.1.065Z" transform="translate(-1909.31 -4957.355)"/>
          </g>
          <g id="Grupo_3895" data-name="Grupo 3895" transform="translate(5.022 3.396)">
            <path id="Trazado_10361" data-name="Trazado 10361" d="M1937.217,4955.62q-.027-.262-.054-.524l2.818.524-2.818.523q.027-.261.054-.523Z" transform="translate(-1937.163 -4955.096)" fill="#fcd116" stroke="#000" stroke-miterlimit="2.414" stroke-width="0.371" fill-rule="evenodd"/>
            <path id="Trazado_10362" data-name="Trazado 10362" d="M1937.425,4957.912h2.672c.013,0,0-.065-.047-.065h-2.526c-.056,0-.129-.023-.1.065Z" transform="translate(-1937.373 -4957.355)"/>
          </g>
          <g id="Grupo_3896" data-name="Grupo 3896" transform="translate(1.148 4.329)">
            <path id="Trazado_10363" data-name="Trazado 10363" d="M1917.318,4960.754l-.333-.408-1.622,2.363,2.363-1.622-.408-.333Z" transform="translate(-1915.364 -4960.346)" fill="#fcd116" stroke="#000" stroke-miterlimit="2.414" stroke-width="0.371" fill-rule="evenodd"/>
            <path id="Trazado_10364" data-name="Trazado 10364" d="M1917.624,4962.645l-1.89,1.89c-.114-.056.161-.253.208-.3l.678-.678.685-.686c.048-.048.263-.341.318-.226Z" transform="translate(-1915.646 -4962.214)"/>
          </g>
          <g id="Grupo_3897" data-name="Grupo 3897" transform="translate(4.329 1.148)">
            <path id="Trazado_10365" data-name="Trazado 10365" d="M1933.672,4944.4l-.408-.333,2.362-1.622-1.622,2.362-.332-.407Z" transform="translate(-1933.264 -4942.447)" fill="#fcd116" stroke="#000" stroke-miterlimit="2.414" stroke-width="0.371" fill-rule="evenodd"/>
            <path id="Trazado_10366" data-name="Trazado 10366" d="M1935.473,4944.707l1.89-1.889c-.055-.114-.253.161-.3.208l-.653.654-.982.982c.014.014.029.038.046.046Z" transform="translate(-1935.043 -4942.729)"/>
          </g>
        </g>
        <path id="Trazado_10367" data-name="Trazado 10367" d="M1924.941,4950.654a1.3,1.3,0,1,1-1.3,1.3,1.313,1.313,0,0,1,1.3-1.3Z" transform="translate(-1921.021 -4948.047)" fill="#fcd116" stroke="#000" stroke-miterlimit="2.414" stroke-width="0.377" fill-rule="evenodd"/>
        <path id="Trazado_10368" data-name="Trazado 10368" d="M1926.717,4954.241a.469.469,0,0,1,.435-.19c.033.008.4.155.344.19s-.1-.011-.15-.032a.6.6,0,0,0-.268-.054.574.574,0,0,0-.23.051c-.031.016-.124.112-.151.1a.045.045,0,0,1,.02-.061Zm-.1,1.448.037,0c.011,0-.092-.034-.1-.034s-.115.03-.1.034a.686.686,0,0,0,.171,0Zm-.627-.449a1,1,0,0,0-.127.184.249.249,0,0,1,.127-.184Zm1.121,0a1,1,0,0,1,.127.184.248.248,0,0,0-.127-.184Zm-.561.025a.727.727,0,0,1,.3,0,.645.645,0,0,0,.318.059.988.988,0,0,1-1.245,0,.551.551,0,0,0,.277-.043.779.779,0,0,1,.345-.016Zm0,.185a1.041,1.041,0,0,0,.385-.07,2.457,2.457,0,0,0-.771,0,1.042,1.042,0,0,0,.385.07Zm-.169-1.209a.469.469,0,0,0-.435-.19c-.034.008-.4.155-.344.19s.1-.011.15-.032a.6.6,0,0,1,.268-.054.577.577,0,0,1,.231.051c.031.016.124.112.15.1a.044.044,0,0,0-.02-.061Zm-.065.172c-.069-.293-.52-.087-.648.033a.766.766,0,0,1,.148-.068.134.134,0,0,0-.008.1c-.008-.006-.056-.043-.061-.038s.151.116.159.12a.34.34,0,0,0,.26.006c.031-.01.176-.128.087-.112s-.119.092-.208.092c.074-.038.153-.112.135-.2.051.02.087.083.131.1.011,0,0-.028,0-.032Zm-.4-.071a.158.158,0,0,0,.028.2c-.126-.012-.17-.179-.028-.2Zm.632.766c.085-.009.142-.065.231-.06a.47.47,0,0,1,.253.081c-.042-.076-.1-.074-.162-.113-.017-.01-.094-.214-.13-.178-.016.014.044.082.045.106,0,.085-.1.016-.125.006.055.028-.094.087-.113.085s-.168-.057-.113-.085c-.04.018-.064.063-.112.02s.059-.107.032-.132-.113.168-.13.178c-.066.039-.12.037-.162.113a.472.472,0,0,1,.253-.081c.089,0,.146.051.231.06Zm.231-.695c.068-.293.52-.087.647.033a.773.773,0,0,0-.148-.068.134.134,0,0,1,.008.1c.009-.006.057-.043.061-.038s-.151.116-.159.12a.34.34,0,0,1-.26.006c-.031-.01-.176-.128-.088-.112s.119.092.208.092c-.074-.038-.153-.112-.135-.2-.052.02-.087.083-.131.1-.011,0,0-.028,0-.032Zm.4-.071a.158.158,0,0,1-.027.2c.125-.012.17-.179.027-.2Z" transform="translate(-1922.63 -4950.833)" fill-rule="evenodd"/>
      </g>
    </g>
  </g>
</svg>
