<?xml version="1.0" encoding="utf-8"?>
<!-- Generator: Adobe Illustrator 15.0.0, SVG Export Plug-In . SVG Version: 6.00 Build 0)  -->
<!DOCTYPE svg PUBLIC "-//W3C//DTD SVG 1.1//EN" "http://www.w3.org/Graphics/SVG/1.1/DTD/svg11.dtd">
<svg version="1.1" id="Layer_1" xmlns="http://www.w3.org/2000/svg" xmlns:xlink="http://www.w3.org/1999/xlink" x="0px" y="0px"
	 width="100px" height="100px" viewBox="0 0 100 100" enable-background="new 0 0 100 100" xml:space="preserve">
<path fill="#48C3D2" d="M50,0c1.638,0,3.271,0.08,4.9,0.241c1.63,0.161,3.248,0.4,4.854,0.72c1.605,0.319,3.192,0.717,4.76,1.192
	c1.566,0.476,3.106,1.026,4.619,1.653c1.514,0.626,2.992,1.326,4.437,2.098c1.443,0.772,2.847,1.613,4.208,2.523
	c1.361,0.91,2.676,1.884,3.941,2.923c1.266,1.039,2.478,2.137,3.636,3.295c1.158,1.158,2.256,2.37,3.295,3.636
	s2.014,2.58,2.923,3.941c0.91,1.361,1.751,2.764,2.522,4.208c0.772,1.444,1.472,2.923,2.099,4.436
	c0.626,1.513,1.178,3.053,1.652,4.62c0.476,1.567,0.873,3.154,1.192,4.76s0.56,3.224,0.72,4.854C99.92,46.729,100,48.362,100,50
	s-0.08,3.271-0.241,4.9c-0.16,1.63-0.4,3.248-0.72,4.854c-0.319,1.606-0.717,3.193-1.192,4.76c-0.475,1.567-1.026,3.107-1.652,4.621
	c-0.627,1.512-1.326,2.99-2.099,4.436c-0.771,1.443-1.612,2.847-2.522,4.208c-0.909,1.362-1.884,2.676-2.923,3.941
	s-2.137,2.478-3.295,3.636s-2.37,2.256-3.636,3.295s-2.58,2.014-3.941,2.923c-1.361,0.91-2.765,1.751-4.208,2.522
	c-1.444,0.772-2.923,1.472-4.437,2.098c-1.513,0.627-3.053,1.178-4.619,1.653c-1.567,0.476-3.154,0.873-4.76,1.192
	c-1.606,0.319-3.225,0.56-4.854,0.721C53.271,99.92,51.638,100,50,100s-3.271-0.08-4.901-0.24c-1.63-0.161-3.248-0.401-4.854-0.721
	c-1.606-0.319-3.193-0.717-4.76-1.192s-3.107-1.026-4.62-1.653c-1.513-0.626-2.991-1.325-4.436-2.098
	c-1.444-0.771-2.847-1.612-4.208-2.522c-1.362-0.909-2.675-1.884-3.941-2.923c-1.266-1.039-2.478-2.137-3.636-3.295
	c-1.158-1.158-2.256-2.37-3.295-3.636c-1.039-1.266-2.013-2.579-2.923-3.941c-0.91-1.361-1.751-2.765-2.523-4.208
	c-0.772-1.445-1.471-2.924-2.098-4.436c-0.627-1.514-1.178-3.054-1.653-4.621c-0.475-1.566-0.873-3.153-1.192-4.76
	c-0.32-1.605-0.56-3.224-0.72-4.854C0.08,53.271,0,51.638,0,50s0.08-3.271,0.241-4.901s0.4-3.248,0.72-4.854
	c0.319-1.606,0.717-3.193,1.192-4.76c0.476-1.567,1.026-3.107,1.653-4.62c0.626-1.513,1.326-2.991,2.098-4.436
	s1.613-2.847,2.523-4.208c0.91-1.362,1.884-2.676,2.923-3.941c1.039-1.266,2.137-2.478,3.295-3.636
	c1.158-1.158,2.37-2.256,3.636-3.295c1.266-1.039,2.58-2.013,3.941-2.923c1.361-0.91,2.764-1.751,4.208-2.523
	s2.923-1.471,4.436-2.098c1.513-0.627,3.053-1.178,4.62-1.653c1.567-0.475,3.153-0.873,4.76-1.192c1.606-0.32,3.224-0.56,4.854-0.72
	S48.362,0,50,0z"/>
</svg>
