<?xml version="1.0" encoding="utf-8"?>
<!-- Generator: Adobe Illustrator 15.0.0, SVG Export Plug-In . SVG Version: 6.00 Build 0)  -->
<!DOCTYPE svg PUBLIC "-//W3C//DTD SVG 1.1//EN" "http://www.w3.org/Graphics/SVG/1.1/DTD/svg11.dtd">
<svg version="1.1" id="Layer_1" xmlns="http://www.w3.org/2000/svg" xmlns:xlink="http://www.w3.org/1999/xlink" x="0px" y="0px"
	 width="47.929px" height="48px" viewBox="0 0 47.929 48" enable-background="new 0 0 47.929 48" xml:space="preserve">
<g>
	<defs>
		<rect id="SVGID_1_" y="0.065" width="47.857" height="47.869"/>
	</defs>
	<clipPath id="SVGID_2_">
		<use xlink:href="#SVGID_1_"  overflow="visible"/>
	</clipPath>
	<g clip-path="url(#SVGID_2_)" enable-background="new    ">
		<g>
			<defs>
				<rect id="SVGID_3_" x="-0.071" width="48" height="48"/>
			</defs>
			<clipPath id="SVGID_4_">
				<use xlink:href="#SVGID_3_"  overflow="visible"/>
			</clipPath>
			<path clip-path="url(#SVGID_4_)" d="M29.008,25.659c0.818,0.035,1.595,0.377,2.174,0.957l2.605,2.605l2.606-2.605
				c1.278-1.278,3.349-1.278,4.626,0c1.277,1.276,1.277,3.348,0,4.625l-2.606,2.606l2.606,2.606c1.277,1.276,1.278,3.348,0,4.625
				v0.001c-1.277,1.277-3.348,1.277-4.626,0l-2.606-2.607l-2.605,2.607c-1.278,1.277-3.348,1.277-4.626,0
				c-1.277-1.278-1.277-3.35,0-4.626l2.605-2.606l-2.605-2.606c-1.278-1.276-1.28-3.348-0.003-4.625
				C27.2,25.967,28.092,25.62,29.008,25.659 M21.066,7.212c0.655,0.009,1.279,0.273,1.742,0.736c0.982,0.981,0.982,2.573,0,3.556
				l-0.001,0.001l-8.565,8.556c-1.333,1.331-3.49,1.33-4.822-0.002L5.342,15.98c-0.982-0.981-0.982-2.574,0-3.557
				c0.982-0.981,2.575-0.981,3.558,0l2.145,2.145c0.438,0.438,1.149,0.438,1.588,0l6.62-6.62
				C19.732,7.467,20.388,7.202,21.066,7.212 M14.074,0.065C6.305,0.062,0.003,6.359,0,14.129
				c-0.004,7.771,6.293,14.072,14.063,14.075c3.093,0.002,6.1-1.017,8.557-2.896c-4.726,6.168-3.556,15,2.612,19.726
				s14.999,3.556,19.726-2.612c1.885-2.46,2.903-5.474,2.9-8.573c0-7.771-6.299-14.069-14.07-14.069
				c-3.113,0.006-6.138,1.045-8.598,2.954c1.91-2.461,2.949-5.483,2.955-8.598C28.145,6.364,21.846,0.065,14.074,0.065z"/>
		</g>
	</g>
</g>
</svg>
