<?xml version="1.0" encoding="utf-8"?>
<!-- Generator: Adobe Illustrator 15.0.0, SVG Export Plug-In . SVG Version: 6.00 Build 0)  -->
<!DOCTYPE svg PUBLIC "-//W3C//DTD SVG 1.1//EN" "http://www.w3.org/Graphics/SVG/1.1/DTD/svg11.dtd">
<svg version="1.1" id="Layer_1" xmlns="http://www.w3.org/2000/svg" xmlns:xlink="http://www.w3.org/1999/xlink" x="0px" y="0px"
	 width="41.369px" height="41.167px" viewBox="0 0 41.369 41.167" enable-background="new 0 0 41.369 41.167" xml:space="preserve">
<rect x="0.685" y="1.167" fill-rule="evenodd" clip-rule="evenodd" fill="none" width="40" height="40"/>
<path fill="#FFFFFF" d="M18.623,8.211v13.226l6.79,6.79l2.915-2.916l-5.581-5.581V8.211H18.623z M20.685-0.036
	c-6.21,0-11.744,2.796-15.523,7.156L0.065,2.026v12.372h12.372L8.06,10.02c3.027-3.612,7.553-5.932,12.625-5.932
	c9.096,0,16.495,7.399,16.495,16.495c0,9.095-7.399,16.495-16.495,16.495c-9.095,0-16.495-7.4-16.495-16.495H0.065
	c0,11.369,9.25,20.619,20.619,20.619s20.619-9.25,20.619-20.619S32.054-0.036,20.685-0.036"/>
</svg>
