<?xml version="1.0" encoding="utf-8"?>
<!-- Generator: Adobe Illustrator 15.0.0, SVG Export Plug-In . SVG Version: 6.00 Build 0)  -->
<!DOCTYPE svg PUBLIC "-//W3C//DTD SVG 1.1//EN" "http://www.w3.org/Graphics/SVG/1.1/DTD/svg11.dtd">
<svg version="1.1" id="Layer_1" xmlns="http://www.w3.org/2000/svg" xmlns:xlink="http://www.w3.org/1999/xlink" x="0px" y="0px"
	 width="64.898px" height="21.788px" viewBox="1.795 17.764 64.898 21.788" enable-background="new 1.795 17.764 64.898 21.788"
	 xml:space="preserve">
<title>Logos</title>
<g>
	<path fill="#FFFFFF" d="M15.827,25.638c-3.271-3.185-8.503-3.116-11.688,0.153c-3.185,3.27-3.115,8.503,0.155,11.688
		c3.208,3.126,8.324,3.126,11.533,0v2.089h2.496V17.764h-2.496V25.638z M10.084,37.264c-3.155,0.014-5.724-2.531-5.738-5.686
		c-0.014-3.153,2.532-5.724,5.687-5.738c3.155-0.014,5.724,2.532,5.738,5.686c0,0.012,0,0.021,0,0.033
		c0.002,3.147-2.547,5.705-5.697,5.705l0,0H10.084z"/>
	<rect x="49.325" y="23.528" fill="#FFFFFF" width="2.497" height="16.023"/>
	<rect x="64.196" y="23.528" fill="#FFFFFF" width="2.497" height="16.023"/>
	<rect x="49.325" y="17.764" fill="#FFFFFF" width="2.497" height="2.578"/>
	<rect x="64.196" y="17.764" fill="#FFFFFF" width="2.497" height="2.578"/>
	<path fill="#FFFFFF" d="M34.044,25.638c-3.27-3.185-8.502-3.116-11.688,0.153c-3.185,3.27-3.114,8.503,0.155,11.688
		c3.209,3.126,8.323,3.126,11.533,0v2.089h2.495v-16.04h-2.495V25.638z M28.301,37.264c-3.155,0.014-5.722-2.536-5.732-5.69
		c-0.012-3.154,2.536-5.721,5.69-5.733c3.154-0.011,5.722,2.537,5.732,5.69c0,0.01,0,0.019,0,0.028
		c0.004,3.147-2.547,5.705-5.695,5.705c-0.002,0-0.004,0-0.005,0H28.301z"/>
	<path fill="#FFFFFF" d="M47.437,20.426v-2.589c-3.147,0.448-5.76,2.66-6.721,5.691h-2.542v2.505h2.316v13.522h2.497V26.033h4.609
		v-2.505h-4.144C44.227,21.932,45.7,20.785,47.437,20.426z"/>
	<path fill="#FFFFFF" d="M57.916,17.764h-2.579v5.743h-1.834v2.526h1.834v6.136c0.284,3.908,3.28,7.077,7.167,7.587v-2.612
		c-2.425-0.474-4.267-2.459-4.56-4.912c0-0.036,0-0.072,0-0.11v-6.088h4.612v-2.505h-4.612L57.916,17.764z"/>
</g>
</svg>
