<?xml version="1.0" encoding="utf-8"?>
<!-- Generator: Adobe Illustrator 15.0.0, SVG Export Plug-In . SVG Version: 6.00 Build 0)  -->
<!DOCTYPE svg PUBLIC "-//W3C//DTD SVG 1.1//EN" "http://www.w3.org/Graphics/SVG/1.1/DTD/svg11.dtd">
<svg version="1.1" id="Layer_1" xmlns="http://www.w3.org/2000/svg" xmlns:xlink="http://www.w3.org/1999/xlink" x="0px" y="0px"
	 width="98.542px" height="98.74px" viewBox="0 0 98.542 98.74" enable-background="new 0 0 98.542 98.74" xml:space="preserve">
<g>
	<g>
		<defs>
			<rect id="SVGID_1_" x="0.834" y="-0.065" width="97.607" height="97.613"/>
		</defs>
		<clipPath id="SVGID_2_">
			<use xlink:href="#SVGID_1_"  overflow="visible"/>
		</clipPath>
		<g clip-path="url(#SVGID_2_)">
			<g enable-background="new    ">
				<g>
					<defs>
						<rect id="SVGID_3_" x="0.74" y="-0.154" width="97.79" height="97.76"/>
					</defs>
					<clipPath id="SVGID_4_">
						<use xlink:href="#SVGID_3_"  overflow="visible"/>
					</clipPath>
					<path clip-path="url(#SVGID_4_)" fill="#FFFFFF" d="M79.263,26.09c-2.158,0-4.076-0.985-5.363-2.534l0,0
						c-0.297-0.366-0.563-0.751-0.772-1.147c-0.06-0.09-0.099-0.198-0.139-0.292c-0.059-0.089-0.108-0.192-0.158-0.301
						c-0.098-0.193-0.158-0.396-0.217-0.609v-0.02c-0.209-0.648-0.316-1.35-0.316-2.078c0-2.341,1.167-4.408,2.947-5.675
						c0.069-0.049,0.149-0.104,0.21-0.153c0.305-0.203,0.621-0.375,0.979-0.524c0.06-0.02,0.099-0.055,0.158-0.084
						c0.614-0.243,1.237-0.416,1.899-0.475c0.079-0.01,0.139-0.01,0.218-0.021c0.199-0.019,0.376-0.03,0.574-0.03
						s0.356,0.011,0.555,0.03c0.078,0,0.168,0.01,0.258,0.021c0.197,0.019,0.385,0.049,0.612,0.089
						c0.219,0.054,0.456,0.114,0.684,0.183c0.168,0.055,0.316,0.114,0.484,0.173c0.207,0.084,0.416,0.183,0.634,0.287
						c0.139,0.069,0.296,0.158,0.436,0.252c0.217,0.139,0.415,0.272,0.613,0.426c1.644,1.276,2.721,3.261,2.721,5.501
						C86.229,22.968,83.123,26.09,79.263,26.09 M95.314,2.132L95.314,2.132c-0.049-0.029-0.078-0.059-0.119-0.089
						c-0.078-0.059-0.158-0.124-0.218-0.172c-0.157-0.119-0.296-0.224-0.455-0.333c-0.098-0.063-0.188-0.123-0.277-0.183
						c-0.138-0.094-0.276-0.173-0.436-0.252c-0.098-0.064-0.207-0.124-0.315-0.183c-0.139-0.064-0.269-0.133-0.405-0.193
						c-0.13-0.049-0.248-0.124-0.367-0.163c-0.139-0.05-0.276-0.089-0.405-0.144C92.177,0.38,92.048,0.331,91.9,0.291
						c-0.128-0.03-0.267-0.064-0.406-0.104c-0.139-0.04-0.258-0.069-0.415-0.099c-0.148-0.02-0.297-0.044-0.466-0.064
						c-0.128-0.01-0.247-0.04-0.365-0.059c-0.238-0.01-0.494-0.03-0.731-0.03c-0.061,0-0.091,0-0.129,0l0,0H57.661
						c-0.308,0-0.604,0.02-0.89,0.049c-2.079,0.203-4.015,1.108-5.504,2.573L29.882,23.952l8.516,8.529
						c3.596-3.433,8.421-5.521,13.72-5.521c4.958,0.009,9.707,1.885,13.33,5.229l0,0l0,0l-4.354,4.478l-1.523,1.604
						c-2.078-1.786-4.73-2.771-7.452-2.771c-6.546,0.183-11.835,5.462-12.018,12.043c-0.183,6.808,5.195,12.499,12.018,12.686
						c5.61,0,9.848-2.948,10.837-8.089H52.119v-8.066H70.97c0.288,1.238,0.436,2.515,0.456,3.8c0,0.203,0,0.397-0.021,0.61
						c0,1.963-0.268,3.933-0.792,5.828c-0.04,0.178-0.079,0.326-0.137,0.494c-0.022,0.109-0.061,0.208-0.09,0.328
						c-0.702,2.354-1.771,4.422-3.088,6.194c-0.02,0-0.03,0.019-0.04,0.019h0.01c-0.079,0.101-0.157,0.199-0.218,0.288
						c-0.128,0.148-0.256,0.316-0.375,0.444c-0.08,0.101-0.14,0.198-0.219,0.248c-0.177,0.228-0.375,0.456-0.573,0.645
						c-0.039,0.059-0.06,0.059-0.079,0.098c-1.01,1.048-2.138,1.949-3.325,2.731c-0.02,0-0.04,0.02-0.06,0.02
						c-0.237,0.158-0.504,0.307-0.752,0.465c-0.119,0.07-0.218,0.128-0.337,0.207c-0.139,0.07-0.297,0.158-0.455,0.219
						c-0.188,0.099-0.396,0.197-0.574,0.276c-0.039,0.03-0.089,0.05-0.127,0.06C57.68,68.216,54.94,68.81,52.11,68.8
						c-0.629,0-1.258-0.049-1.876-0.108c-0.094,0-0.164-0.011-0.243-0.011c-0.247-0.03-0.519-0.068-0.761-0.108
						c-0.099-0.02-0.214-0.04-0.313-0.04c-0.222-0.039-0.479-0.099-0.692-0.147c-0.128-0.021-0.242-0.06-0.351-0.07
						c-0.233-0.049-0.47-0.118-0.673-0.178c-0.129-0.019-0.243-0.061-0.371-0.079c-0.213-0.069-0.436-0.14-0.639-0.198
						c-0.133-0.049-0.247-0.099-0.366-0.117c-0.213-0.061-0.445-0.141-0.648-0.22c-0.094-0.049-0.213-0.068-0.306-0.117
						c-0.372-0.139-0.738-0.316-1.104-0.475c-0.149-0.079-0.301-0.14-0.455-0.219c-0.153-0.069-0.302-0.159-0.436-0.219
						c-0.173-0.117-0.336-0.196-0.504-0.267c-0.134-0.088-0.288-0.188-0.417-0.247c-0.173-0.109-0.336-0.208-0.5-0.315
						c-0.128-0.1-0.262-0.159-0.386-0.268c-0.168-0.129-0.351-0.249-0.525-0.367c-0.113-0.078-0.213-0.147-0.326-0.217
						c-0.193-0.159-0.371-0.287-0.535-0.456c-0.104-0.06-0.192-0.139-0.281-0.209c-0.218-0.188-0.426-0.364-0.628-0.542
						c-0.055-0.06-0.115-0.101-0.174-0.159c-0.539-0.504-1.044-1.019-1.523-1.563c-0.01-0.04-0.041-0.06-0.06-0.06
						c-0.213-0.267-0.416-0.535-0.628-0.792c-0.01,0-0.02-0.038-0.049-0.038c-0.01-0.021-0.02-0.061-0.06-0.1
						c-0.223-0.297-0.456-0.612-0.678-0.95c-0.01,0-0.01-0.03-0.025-0.03c-0.708-1.038-1.316-2.166-1.83-3.335
						c-0.01-0.01-0.01-0.03-0.04-0.03c-0.015-0.049-0.025-0.088-0.035-0.128c0,0-0.009-0.02-0.019-0.039
						c-0.203-0.476-0.396-0.971-0.565-1.465v-0.01c-0.019-0.06-0.054-0.139-0.074-0.209c0,0,0-0.037-0.01-0.037
						c-0.153-0.437-0.272-0.876-0.386-1.313c-0.01-0.028-0.02-0.049-0.02-0.079c-0.01-0.023-0.01-0.054-0.02-0.094
						c0-0.03-0.021-0.079-0.021-0.118l-0.01-0.021c0-0.034-0.009-0.054-0.009-0.084c-0.1-0.405-0.184-0.82-0.253-1.237l0,0
						c-0.03-0.183-0.06-0.33-0.084-0.495l-0.05-0.009c-0.06-0.445-0.108-0.881-0.163-1.337v-0.014
						c-0.01-0.158-0.02-0.322-0.02-0.494l0,0c-0.049-0.485-0.059-0.98-0.059-1.49l0,0l0,0v-0.019
						c-0.011-2.41,0.406-4.805,1.167-7.031c0.039-0.064,0.049-0.134,0.069-0.193c0.059-0.182,0.119-0.346,0.183-0.519
						c0.069-0.183,0.153-0.351,0.213-0.524c0.039-0.094,0.069-0.184,0.119-0.263c0.104-0.257,0.223-0.519,0.335-0.752
						c0.011-0.02,0.03-0.049,0.05-0.068c1.083-2.281,2.573-4.32,4.349-6.023l0,0l0,0l-8.516-8.529L3.496,50.329
						c-0.86,0.853-1.528,1.865-1.974,2.949c-0.446,1.103-0.698,2.301-0.698,3.479c-0.02,2.434,0.94,4.729,2.671,6.411l31.73,31.717
						c1.692,1.703,3.993,2.672,6.394,2.672c2.409,0,4.72-0.979,6.432-2.672l26.362-26.392l0,0l21.355-21.375
						c1.722-1.663,2.691-3.983,2.672-6.389V8.995v-0.06C98.422,6.219,97.213,3.794,95.314,2.132"/>
				</g>
			</g>
		</g>
	</g>
</g>
</svg>
