<?xml version="1.0" encoding="utf-8"?>
<!-- Generator: Adobe Illustrator 15.0.0, SVG Export Plug-In . SVG Version: 6.00 Build 0)  -->
<!DOCTYPE svg PUBLIC "-//W3C//DTD SVG 1.1//EN" "http://www.w3.org/Graphics/SVG/1.1/DTD/svg11.dtd">
<svg version="1.1" id="Layer_1" xmlns="http://www.w3.org/2000/svg" xmlns:xlink="http://www.w3.org/1999/xlink" x="0px" y="0px"
	 width="158.334px" height="47.376px" viewBox="19.526 5.555 158.334 47.376" enable-background="new 19.526 5.555 158.334 47.376"
	 xml:space="preserve">
<g id="android" transform="translate(0)">
	<path id="Rectángulo_4" d="M25.539,5.785h146.307c3.321,0,6.014,2.692,6.014,6.013v34.888c0,3.32-2.692,6.014-6.014,6.014H25.539
		c-3.321,0-6.013-2.693-6.013-6.014V11.798C19.526,8.478,22.219,5.785,25.539,5.785z"/>
	<path id="Trazado_31" fill="#A6A6A6" d="M171.995,6.723c2.719,0.003,4.924,2.207,4.926,4.927v35.184
		c-0.002,2.72-2.206,4.923-4.926,4.928H25.39c-2.72-0.004-4.923-2.208-4.927-4.928V11.65c0.003-2.72,2.207-4.923,4.927-4.927
		H171.995 M171.995,5.785H25.39c-3.234,0.01-5.854,2.63-5.864,5.864v35.184c0.009,3.235,2.629,5.856,5.864,5.866h146.604
		c3.235-0.01,5.855-2.631,5.864-5.866V11.65C177.849,8.415,175.23,5.796,171.995,5.785z"/>
	<g id="Grupo_24" transform="translate(60.461 10.039)">
		<path id="Trazado_32" fill="#FFFFFF" stroke="#FFFFFF" stroke-width="0.2" stroke-miterlimit="10" d="M14.679,7.759
			c0.043,0.87-0.272,1.719-0.873,2.35c-0.674,0.7-1.615,1.08-2.585,1.043c-2.031,0.029-3.7-1.593-3.729-3.623
			c-0.03-2.03,1.592-3.699,3.623-3.729c0.035,0,0.07,0,0.106,0c0.496,0,0.988,0.099,1.444,0.295c0.423,0.172,0.8,0.441,1.1,0.786
			L13.146,5.5c-0.477-0.562-1.188-0.871-1.925-0.835C9.671,4.678,8.424,5.946,8.439,7.496c0.014,1.551,1.283,2.797,2.834,2.783
			c0.713-0.006,1.398-0.285,1.915-0.779c0.36-0.389,0.57-0.896,0.589-1.426h-2.556V7.23h3.41
			C14.663,7.404,14.679,7.581,14.679,7.759z"/>
		<path id="Trazado_33" fill="#FFFFFF" stroke="#FFFFFF" stroke-width="0.2" stroke-miterlimit="10" d="M20.086,4.823h-3.208v2.23
			h2.887v0.846h-2.887v2.23h3.208v0.865h-4.108V3.957h4.108V4.823z"/>
		<path id="Trazado_34" fill="#FFFFFF" stroke="#FFFFFF" stroke-width="0.2" stroke-miterlimit="10" d="M23.898,10.993h-0.904V4.822
			h-1.965V3.957h4.831v0.865h-1.965L23.898,10.993z"/>
		<path id="Trazado_35" fill="#FFFFFF" stroke="#FFFFFF" stroke-width="0.2" stroke-miterlimit="10" d="M29.363,10.993V3.957h0.902
			v7.036H29.363z"/>
		<path id="Trazado_36" fill="#FFFFFF" stroke="#FFFFFF" stroke-width="0.2" stroke-miterlimit="10" d="M34.277,10.993h-0.904V4.822
			h-1.967V3.957h4.836v0.865h-1.965V10.993z"/>
		<path id="Trazado_37" fill="#FFFFFF" stroke="#FFFFFF" stroke-width="0.2" stroke-miterlimit="10" d="M45.397,10.085
			c-1.426,1.422-3.734,1.422-5.16,0c-1.379-1.464-1.379-3.75,0-5.214c1.422-1.422,3.727-1.422,5.149-0.001
			c0.002,0.002,0.004,0.004,0.007,0.006c1.387,1.461,1.389,3.752,0.004,5.214V10.085z M40.906,9.497
			c1.056,1.054,2.768,1.054,3.823,0c1.044-1.146,1.044-2.896,0-4.04c-1.056-1.054-2.768-1.054-3.823,0
			C39.864,6.602,39.864,8.35,40.906,9.497z"/>
		<path id="Trazado_38" fill="#FFFFFF" stroke="#FFFFFF" stroke-width="0.2" stroke-miterlimit="10" d="M47.702,10.993V3.957h1.101
			l3.421,5.475h0.039l-0.039-1.356V3.957h0.904v7.036h-0.944l-3.578-5.739h-0.039l0.039,1.356v4.383H47.702z"/>
	</g>
	<path id="Trazado_39" fill="#FFFFFF" d="M99.439,31.296c-2.756,0.011-4.98,2.252-4.97,5.008c0.01,2.755,2.251,4.98,5.006,4.971
		c2.749-0.011,4.972-2.242,4.971-4.99c0.04-2.714-2.129-4.948-4.843-4.988C99.548,31.295,99.494,31.295,99.439,31.296z
		 M99.439,39.307c-1.669,0.118-3.12-1.137-3.239-2.807s1.138-3.12,2.807-3.24c1.669-0.118,3.119,1.14,3.238,2.809
		c0.005,0.071,0.008,0.143,0.008,0.215c0.075,1.593-1.154,2.945-2.748,3.021C99.484,39.307,99.461,39.307,99.439,39.307
		L99.439,39.307z M88.516,31.296c-2.755,0.011-4.98,2.252-4.97,5.008c0.01,2.755,2.251,4.98,5.007,4.971
		c2.748-0.011,4.97-2.242,4.97-4.99c0.04-2.714-2.128-4.948-4.844-4.988C88.625,31.295,88.571,31.295,88.516,31.296L88.516,31.296z
		 M88.516,39.307c-1.669,0.118-3.119-1.137-3.238-2.807s1.137-3.12,2.807-3.24c1.67-0.118,3.12,1.14,3.239,2.809
		c0.005,0.071,0.008,0.143,0.008,0.215c0.075,1.593-1.155,2.945-2.748,3.021C88.561,39.307,88.539,39.307,88.516,39.307
		L88.516,39.307z M75.522,32.826v2.116h5.063c-0.073,0.993-0.479,1.932-1.152,2.664c-1.026,1.047-2.447,1.609-3.911,1.55
		c-3.11-0.038-5.6-2.59-5.562-5.7c0.038-3.056,2.506-5.522,5.562-5.56c1.421-0.019,2.792,0.525,3.816,1.511l1.492-1.493
		c-1.41-1.396-3.325-2.166-5.309-2.134c-4.279-0.061-7.797,3.357-7.858,7.636c-0.061,4.278,3.358,7.797,7.637,7.858
		c0.074,0.001,0.147,0.001,0.221,0c2.029,0.084,3.998-0.707,5.404-2.174c1.48-1.729,2.111-4.029,1.72-6.272L75.522,32.826z
		 M128.661,34.469c-0.613-1.852-2.322-3.12-4.271-3.175c-2.618,0.017-4.727,2.151-4.712,4.771c0,0.071,0.004,0.146,0.007,0.219
		c-0.059,2.694,2.078,4.929,4.773,4.986c0.06,0.003,0.118,0.003,0.176,0.002c1.671,0.01,3.231-0.822,4.158-2.211l-1.701-1.133
		c-0.519,0.859-1.451,1.384-2.457,1.379c-1.038,0.039-1.997-0.56-2.417-1.513l6.669-2.759L128.661,34.469z M121.858,36.133
		c-0.098-1.508,1.047-2.81,2.554-2.907c0.018-0.002,0.036-0.003,0.054-0.003c0.774-0.051,1.504,0.367,1.852,1.059L121.858,36.133z
		 M116.436,40.969h2.19V26.307h-2.19V40.969z M112.844,32.411h-0.075c-0.674-0.732-1.631-1.139-2.627-1.116
		c-2.754,0.116-4.894,2.444-4.778,5.199c0.109,2.593,2.187,4.669,4.778,4.778c1.001,0.027,1.961-0.388,2.627-1.134h0.075v0.718
		c0,1.909-1.02,2.928-2.662,2.928c-1.122-0.027-2.113-0.729-2.514-1.775l-1.909,0.793c0.736,1.792,2.484,2.958,4.423,2.947
		c2.565,0,4.742-1.511,4.742-5.195v-8.956h-2.078L112.844,32.411z M110.333,39.309c-1.67-0.142-2.907-1.61-2.767-3.279
		c0.125-1.473,1.294-2.642,2.767-2.767c1.67,0.216,2.849,1.745,2.631,3.414C112.786,38.052,111.706,39.132,110.333,39.309z
		 M138.928,26.31h-5.244v14.662h2.188v-5.555h3.056c2.515,0.138,4.665-1.789,4.802-4.304c0.138-2.515-1.79-4.665-4.303-4.803
		C139.26,26.301,139.094,26.301,138.928,26.31L138.928,26.31z M138.984,33.377h-3.112V28.35h3.112
		c1.388-0.035,2.542,1.061,2.577,2.45c0.036,1.388-1.062,2.542-2.449,2.577C139.069,33.378,139.027,33.378,138.984,33.377z
		 M152.51,31.271c-1.633-0.095-3.166,0.787-3.904,2.246l1.943,0.811c0.394-0.725,1.178-1.146,1.999-1.075
		c1.156-0.114,2.185,0.73,2.301,1.885v0.151c-0.702-0.372-1.485-0.564-2.281-0.562c-2.095,0-4.226,1.15-4.226,3.301
		c0,1.962,1.717,3.226,3.641,3.226c1.122,0.066,2.192-0.482,2.792-1.434h0.075v1.131h2.113V35.33
		c-0.002-2.607-1.947-4.061-4.453-4.061V31.271z M152.246,39.307c-0.717,0-1.718-0.359-1.718-1.245c0-1.133,1.245-1.566,2.321-1.566
		c0.698-0.019,1.389,0.15,1.999,0.49c-0.167,1.315-1.277,2.305-2.603,2.318V39.307z M164.657,31.592l-2.509,6.356h-0.074
		l-2.603-6.356h-2.358l3.905,8.885l-2.227,4.942h2.282l6.017-13.827H164.657z M144.945,40.971h2.188V26.31h-2.188V40.971z"/>
	<g id="Grupo_26" transform="translate(14.581 10.44)">
		
			<linearGradient id="Trazado_40_1_" gradientUnits="userSpaceOnUse" x1="-208.6462" y1="432.4611" x2="-209.6873" y2="432.9977" gradientTransform="matrix(18.9043 0 0 -36.656 3826.7825 15736.3701)">
			<stop  offset="0" style="stop-color:#00A0FF"/>
			<stop  offset="0.007" style="stop-color:#00A1FF"/>
			<stop  offset="0.26" style="stop-color:#00BEFF"/>
			<stop  offset="0.512" style="stop-color:#00D2FF"/>
			<stop  offset="0.76" style="stop-color:#00DFFF"/>
			<stop  offset="1" style="stop-color:#00E3FF"/>
		</linearGradient>
		<path id="Trazado_40" fill="url(#Trazado_40_1_)" d="M17.187,4.186c-0.385,0.46-0.579,1.049-0.544,1.647v25.94
			c-0.036,0.598,0.158,1.188,0.544,1.647l0.085,0.084l14.531-14.531v-0.342L17.272,4.101L17.187,4.186z"/>
		
			<linearGradient id="Trazado_41_1_" gradientUnits="userSpaceOnUse" x1="-197.7175" y1="409.4445" x2="-199.6264" y2="409.4445" gradientTransform="matrix(14.862 0 0 -12.507 2983.1121 5139.6924)">
			<stop  offset="0" style="stop-color:#FFE000"/>
			<stop  offset="0.409" style="stop-color:#FFBD00"/>
			<stop  offset="0.775" style="stop-color:#FFA500"/>
			<stop  offset="1" style="stop-color:#FF9C00"/>
		</linearGradient>
		<path id="Trazado_41" fill="url(#Trazado_41_1_)" d="M36.645,23.82l-4.843-4.846v-0.343l4.844-4.844l0.11,0.062l5.738,3.26
			c1.64,0.931,1.64,2.456,0,3.388l-5.738,3.26L36.645,23.82z"/>
		
			<linearGradient id="Trazado_42_1_" gradientUnits="userSpaceOnUse" x1="-222.1613" y1="443.0734" x2="-223.2551" y2="444.4938" gradientTransform="matrix(24.398 0 0 -18.8027 4999.7451 7911.7036)">
			<stop  offset="0" style="stop-color:#FF3A44"/>
			<stop  offset="1" style="stop-color:#C31162"/>
		</linearGradient>
		<path id="Trazado_42" fill="url(#Trazado_42_1_)" d="M36.755,23.757l-4.953-4.954L17.184,33.419
			c0.54,0.573,1.432,0.643,2.437,0.073L36.755,23.757"/>
		
			<linearGradient id="Trazado_43_1_" gradientUnits="userSpaceOnUse" x1="-186.798" y1="441.4025" x2="-186.3108" y2="442.0353" gradientTransform="matrix(24.398 0 0 -18.8035 4999.7476 7893.2178)">
			<stop  offset="0" style="stop-color:#32A071"/>
			<stop  offset="0.068" style="stop-color:#2DA771"/>
			<stop  offset="0.476" style="stop-color:#15CF74"/>
			<stop  offset="0.801" style="stop-color:#06E775"/>
			<stop  offset="1" style="stop-color:#00F076"/>
		</linearGradient>
		<path id="Trazado_43" fill="url(#Trazado_43_1_)" d="M36.755,13.847L19.62,4.112c-1.005-0.571-1.896-0.5-2.437,0.072L31.801,18.8
			L36.755,13.847z"/>
		<g id="Grupo_25" transform="translate(0 24.843)">
			<path id="Trazado_44" opacity="0.2" enable-background="new    " d="M36.646-1.195L19.621,8.478
				c-0.692,0.529-1.651,0.533-2.35,0.014l0,0l-0.087,0.087l0,0l0.086,0.085l0,0c0.699,0.521,1.657,0.515,2.35-0.014l17.134-9.734
				L36.646-1.195z"/>
			<path id="Trazado_45" opacity="0.12" enable-background="new    " d="M17.187,8.406c-0.386-0.459-0.58-1.048-0.544-1.647v0.172
				c-0.035,0.599,0.159,1.188,0.544,1.647l0.086-0.087L17.187,8.406z"/>
		</g>
		<path id="Trazado_46" opacity="0.12" enable-background="new    " d="M42.493,20.326l-5.848,3.321l0.109,0.109l5.738-3.26
			c0.688-0.299,1.159-0.947,1.229-1.694l0,0C43.575,19.476,43.119,20.04,42.493,20.326z"/>
		<path id="Trazado_47" opacity="0.25" fill="#FFFFFF" enable-background="new    " d="M19.621,4.287l22.873,12.995
			c0.627,0.286,1.083,0.85,1.23,1.524l0,0c-0.071-0.746-0.542-1.396-1.23-1.693L19.621,4.117c-1.638-0.933-2.979-0.161-2.979,1.72
			v0.171C16.641,4.128,17.983,3.355,19.621,4.287z"/>
	</g>
</g>
</svg>
