<?xml version="1.0" encoding="utf-8"?>
<!-- Generator: Adobe Illustrator 15.0.0, SVG Export Plug-In . SVG Version: 6.00 Build 0)  -->
<!DOCTYPE svg PUBLIC "-//W3C//DTD SVG 1.1//EN" "http://www.w3.org/Graphics/SVG/1.1/DTD/svg11.dtd">
<svg version="1.1" id="Layer_1" xmlns="http://www.w3.org/2000/svg" xmlns:xlink="http://www.w3.org/1999/xlink" x="0px" y="0px"
	 width="98.542px" height="98.74px" viewBox="0 0 98.542 98.74" enable-background="new 0 0 98.542 98.74" xml:space="preserve">
<g>
	<g>
		<defs>
			<rect id="SVGID_1_" x="0" width="98.532" height="98.533"/>
		</defs>
		<clipPath id="SVGID_2_">
			<use xlink:href="#SVGID_1_"  overflow="visible"/>
		</clipPath>
		<g clip-path="url(#SVGID_2_)" enable-background="new    ">
			<g>
				<defs>
					<rect id="SVGID_3_" x="-0.208" y="-0.01" width="98.75" height="98.75"/>
				</defs>
				<clipPath id="SVGID_4_">
					<use xlink:href="#SVGID_3_"  overflow="visible"/>
				</clipPath>
				<path clip-path="url(#SVGID_4_)" fill-rule="evenodd" clip-rule="evenodd" fill="#7D7D7D" d="M51.782,60.863
					c4.203,0,7.638-1.643,9.544-4.61l-3.547-3.548h-5.997v-5.996l-7.825-7.826c-2.592,2.285-4.231,5.689-4.231,9.504
					C39.725,55.297,45.104,60.863,51.782,60.863"/>
				<path clip-path="url(#SVGID_4_)" fill-rule="evenodd" clip-rule="evenodd" fill="#7D7D7D" d="M67.069,61.996
					c-3.662,4.875-9.315,7.505-15.287,7.505c-11.315,0-20.404-9.405-20.404-21.114c0-6.16,2.517-11.683,6.549-15.533l-8.608-8.609
					L2.699,50.864C1.051,52.512,0,54.799,0,57.36c0,2.517,1.006,4.804,2.699,6.45l32.022,32.023
					c1.647,1.646,3.935,2.699,6.451,2.699c2.516,0,4.803-1.053,6.495-2.699l26.607-26.633L67.069,61.996z"/>
				<path clip-path="url(#SVGID_4_)" fill-rule="evenodd" clip-rule="evenodd" fill="#7E7E7E" d="M61.326,56.253
					c0.661-1.028,1.139-2.214,1.4-3.548h-4.947L61.326,56.253z"/>
				<path clip-path="url(#SVGID_4_)" fill-rule="evenodd" clip-rule="evenodd" fill="#7E7E7E" d="M79.177,26.393
					c-3.887,0-7.038-3.15-7.038-7.037s3.151-7.039,7.038-7.039s7.038,3.152,7.038,7.039S83.064,26.393,79.177,26.393 M89.382,0
					H57.359c-2.516,0-4.803,1.007-6.45,2.654l-21.591,21.59l8.608,8.609c3.632-3.469,8.494-5.58,13.856-5.58
					c5.193,0,9.831,2.015,13.448,5.277l-5.937,6.143c-2.04-1.727-4.637-2.783-7.512-2.783c-2.992,0-5.723,1.118-7.826,2.973
					l7.826,7.826v-2.161h19.013c0.278,1.247,0.464,2.591,0.464,3.839c0,5.572-1.596,10.154-4.19,13.609l7.206,7.205l21.558-21.578
					c1.692-1.646,2.699-3.934,2.699-6.45V9.15c0-0.021,0-0.043,0-0.064C98.514,4.051,94.417-0.018,89.382,0"/>
				<path clip-path="url(#SVGID_4_)" fill-rule="evenodd" clip-rule="evenodd" fill="#757575" d="M95.373,2.217
					C93.708,0.779,91.581-0.007,89.382,0H57.359c-2.516,0-4.803,1.007-6.45,2.654l-21.591,21.59l22.014,22.014l22.42-22.42
					c-1.045-1.26-1.614-2.846-1.612-4.482c0-3.887,3.151-7.039,7.038-7.039c1.637-0.002,3.223,0.568,4.482,1.613L95.373,2.217z"/>
				<path clip-path="url(#SVGID_4_)" fill-rule="evenodd" clip-rule="evenodd" fill="#7E7E7E" d="M51.318,34.457
					c7.896,0,14.296,6.4,14.296,14.297c0,7.895-6.4,14.295-14.296,14.295c-7.895,0-14.296-6.4-14.296-14.295
					C37.022,40.857,43.423,34.457,51.318,34.457"/>
				<path clip-path="url(#SVGID_4_)" fill-rule="evenodd" clip-rule="evenodd" fill="#BCBCBB" d="M43.957,38.883
					c-2.592,2.285-4.231,5.689-4.231,9.504c0,2.707,0.825,5.207,2.23,7.247l9.376-9.376L43.957,38.883z"/>
				<path clip-path="url(#SVGID_4_)" fill-rule="evenodd" clip-rule="evenodd" fill="#BCBCBB" d="M31.377,48.387
					c0-6.16,2.517-11.683,6.549-15.533l-8.608-8.608L2.699,50.864C1.051,52.512,0,54.799,0,57.36c0,2.517,1.006,4.804,2.699,6.45
					l15.54,15.54l17.664-17.665C33.07,58.063,31.377,53.439,31.377,48.387"/>
				<path clip-path="url(#SVGID_4_)" fill-rule="evenodd" clip-rule="evenodd" fill="#FFFFFF" d="M70.795,44.548H51.782v8.157
					h10.944c-1.02,5.184-5.286,8.158-10.944,8.158c-6.678,0-12.058-5.566-12.058-12.477s5.38-12.477,12.058-12.477
					c2.876,0,5.473,1.056,7.513,2.783l5.937-6.143c-3.617-3.263-8.255-5.278-13.449-5.278c-11.315,0-20.404,9.405-20.404,21.114
					s9.089,21.114,20.404,21.114c10.203,0,19.478-7.679,19.478-21.114C71.259,47.139,71.074,45.795,70.795,44.548z"/>
			</g>
		</g>
	</g>
</g>
</svg>
