<?xml version="1.0" encoding="utf-8"?>
<!-- Generator: Adobe Illustrator 15.0.0, SVG Export Plug-In . SVG Version: 6.00 Build 0)  -->
<!DOCTYPE svg PUBLIC "-//W3C//DTD SVG 1.1//EN" "http://www.w3.org/Graphics/SVG/1.1/DTD/svg11.dtd">
<svg version="1.1" id="Layer_1" xmlns="http://www.w3.org/2000/svg" xmlns:xlink="http://www.w3.org/1999/xlink" x="0px" y="0px"
	 width="30px" height="9.633px" viewBox="0 0 30 9.633" enable-background="new 0 0 30 9.633" xml:space="preserve">
<title>Logos</title>
<g>
	<defs>
		<rect id="SVGID_1_" x="10.184" y="0" width="9.633" height="9.633"/>
	</defs>
	<clipPath id="SVGID_2_">
		<use xlink:href="#SVGID_1_"  overflow="visible"/>
	</clipPath>
	<g clip-path="url(#SVGID_2_)" enable-background="new    ">
		<g>
			<defs>
				<rect id="SVGID_3_" x="10.175" y="-0.009" width="9.65" height="9.648"/>
			</defs>
			<clipPath id="SVGID_4_">
				<use xlink:href="#SVGID_3_"  overflow="visible"/>
			</clipPath>
			<path clip-path="url(#SVGID_4_)" fill-rule="evenodd" clip-rule="evenodd" fill="#FFFFFF" d="M17.924,2.581
				c-0.213,0-0.403-0.097-0.53-0.25h0.001c-0.03-0.036-0.056-0.074-0.077-0.113c-0.005-0.009-0.009-0.02-0.014-0.029
				s-0.01-0.019-0.015-0.03c-0.009-0.019-0.016-0.039-0.021-0.06V2.097c-0.021-0.064-0.031-0.133-0.031-0.205
				c0-0.231,0.114-0.435,0.29-0.56c0.007-0.005,0.015-0.01,0.021-0.015c0.03-0.02,0.062-0.037,0.096-0.052
				c0.006-0.002,0.011-0.005,0.016-0.008c0.06-0.024,0.122-0.041,0.188-0.047c0.007-0.001,0.013-0.001,0.021-0.002
				c0.019-0.002,0.037-0.003,0.057-0.003c0.019,0,0.035,0.001,0.054,0.003c0.008,0,0.017,0.001,0.026,0.002
				c0.02,0.002,0.038,0.005,0.06,0.009c0.022,0.005,0.046,0.011,0.068,0.018c0.016,0.005,0.031,0.011,0.047,0.017
				c0.021,0.008,0.041,0.018,0.063,0.028c0.014,0.007,0.029,0.016,0.043,0.025c0.021,0.014,0.041,0.027,0.061,0.042
				c0.162,0.126,0.268,0.322,0.268,0.543C18.612,2.273,18.305,2.581,17.924,2.581 M19.508,0.217L19.508,0.217
				c-0.005-0.003-0.008-0.006-0.012-0.009c-0.008-0.006-0.015-0.012-0.021-0.017c-0.016-0.012-0.03-0.022-0.045-0.033
				c-0.01-0.006-0.019-0.012-0.027-0.018c-0.014-0.009-0.028-0.017-0.043-0.025c-0.011-0.006-0.021-0.012-0.032-0.018
				c-0.013-0.006-0.026-0.013-0.04-0.019c-0.012-0.005-0.024-0.012-0.036-0.016c-0.014-0.005-0.027-0.009-0.04-0.014
				c-0.014-0.004-0.026-0.009-0.041-0.013c-0.013-0.003-0.026-0.006-0.04-0.01s-0.026-0.007-0.041-0.01
				c-0.015-0.002-0.03-0.004-0.046-0.006c-0.013-0.001-0.024-0.004-0.036-0.006c-0.024-0.001-0.049-0.003-0.073-0.003
				c-0.005,0-0.008,0-0.012,0l0,0h-3.131c-0.03,0-0.06,0.002-0.088,0.005c-0.205,0.02-0.396,0.109-0.543,0.254l-2.11,2.111
				l0.84,0.842c0.355-0.339,0.831-0.545,1.354-0.545c0.489,0.001,0.958,0.186,1.316,0.516l0,0l0,0l-0.43,0.442L15.98,3.783
				c-0.204-0.176-0.466-0.273-0.735-0.273c-0.646,0.018-1.168,0.539-1.186,1.188c-0.018,0.672,0.513,1.234,1.186,1.252
				c0.554,0,0.972-0.291,1.07-0.798h-1.07V4.356h1.86c0.029,0.122,0.043,0.248,0.046,0.375c0,0.02-0.001,0.039-0.003,0.06
				c0,0.194-0.026,0.388-0.077,0.575c-0.005,0.018-0.009,0.033-0.014,0.049c-0.002,0.011-0.006,0.021-0.009,0.032
				c-0.07,0.232-0.175,0.437-0.305,0.612c-0.002,0-0.003,0.002-0.004,0.002h0.001c-0.007,0.01-0.015,0.019-0.021,0.028
				c-0.013,0.015-0.025,0.031-0.038,0.044c-0.007,0.01-0.013,0.019-0.021,0.024c-0.018,0.023-0.037,0.045-0.057,0.064
				c-0.003,0.005-0.006,0.006-0.007,0.009c-0.1,0.104-0.211,0.193-0.328,0.27c-0.003,0-0.004,0.002-0.006,0.002
				c-0.024,0.016-0.05,0.03-0.075,0.046c-0.011,0.006-0.021,0.013-0.032,0.02c-0.015,0.007-0.03,0.016-0.045,0.022
				c-0.019,0.009-0.039,0.02-0.057,0.027c-0.004,0.003-0.009,0.005-0.013,0.006c-0.246,0.115-0.517,0.174-0.796,0.173
				c-0.062,0-0.124-0.005-0.185-0.011c-0.009,0-0.016-0.001-0.024-0.001c-0.024-0.003-0.051-0.007-0.075-0.011
				c-0.01-0.002-0.021-0.003-0.031-0.004c-0.022-0.004-0.047-0.009-0.068-0.014c-0.013-0.002-0.024-0.006-0.035-0.007
				c-0.023-0.005-0.046-0.011-0.066-0.018c-0.013-0.002-0.024-0.006-0.037-0.008c-0.021-0.006-0.043-0.013-0.063-0.019
				c-0.013-0.005-0.024-0.01-0.036-0.012C14.603,6.686,14.58,6.678,14.56,6.67c-0.009-0.005-0.021-0.007-0.03-0.012
				c-0.037-0.014-0.073-0.031-0.109-0.047c-0.015-0.008-0.03-0.014-0.045-0.021c-0.015-0.007-0.03-0.016-0.043-0.022
				c-0.017-0.011-0.033-0.019-0.05-0.026c-0.013-0.009-0.028-0.018-0.041-0.024c-0.017-0.011-0.033-0.021-0.049-0.032
				C14.18,6.477,14.167,6.47,14.155,6.46c-0.017-0.013-0.035-0.024-0.052-0.036c-0.011-0.008-0.021-0.015-0.032-0.022
				c-0.019-0.015-0.037-0.028-0.053-0.044c-0.01-0.007-0.019-0.014-0.028-0.021c-0.021-0.018-0.042-0.036-0.062-0.054
				c-0.005-0.005-0.011-0.01-0.017-0.016c-0.053-0.049-0.103-0.1-0.15-0.154c-0.001-0.003-0.004-0.005-0.006-0.006
				c-0.021-0.026-0.041-0.052-0.062-0.077c-0.001-0.001-0.002-0.004-0.005-0.005c-0.001-0.002-0.002-0.006-0.006-0.009
				c-0.022-0.03-0.045-0.061-0.067-0.094c-0.001,0-0.001-0.003-0.002-0.003c-0.07-0.103-0.13-0.214-0.181-0.329
				c-0.001-0.001-0.001-0.003-0.004-0.003c-0.001-0.005-0.002-0.009-0.003-0.013c0,0-0.001-0.002-0.002-0.003
				c-0.02-0.048-0.039-0.096-0.056-0.145V5.425c-0.002-0.006-0.005-0.014-0.007-0.02c0-0.001,0-0.004-0.001-0.005
				c-0.015-0.042-0.027-0.086-0.038-0.129c-0.001-0.003-0.002-0.005-0.002-0.008c-0.001-0.002-0.001-0.005-0.002-0.009
				c0-0.003-0.002-0.008-0.002-0.012l-0.001-0.002c0-0.003-0.001-0.005-0.001-0.008c-0.01-0.04-0.018-0.081-0.025-0.122V5.11
				c-0.003-0.018-0.006-0.033-0.008-0.049L13.275,5.06c-0.006-0.044-0.011-0.087-0.016-0.132V4.927
				c-0.001-0.016-0.002-0.032-0.002-0.049l0,0c-0.005-0.048-0.006-0.097-0.006-0.147l0,0l0,0V4.729
				c-0.001-0.238,0.04-0.474,0.115-0.694c0.004-0.006,0.005-0.013,0.007-0.019c0.006-0.018,0.012-0.034,0.018-0.051
				c0.007-0.018,0.015-0.035,0.021-0.052c0.004-0.009,0.007-0.018,0.012-0.026c0.01-0.025,0.022-0.051,0.033-0.074
				c0.001-0.002,0.003-0.005,0.005-0.007c0.107-0.225,0.254-0.426,0.429-0.594l0,0l0,0l-0.84-0.842l-2.604,2.603
				c-0.085,0.084-0.151,0.184-0.195,0.291c-0.044,0.109-0.069,0.227-0.069,0.344c-0.002,0.239,0.093,0.466,0.264,0.632l3.131,3.13
				c0.167,0.168,0.394,0.264,0.631,0.264c0.238,0,0.466-0.097,0.635-0.264l2.602-2.604l0,0l2.107-2.11
				c0.169-0.164,0.265-0.393,0.264-0.63V0.894V0.888C19.815,0.62,19.695,0.381,19.508,0.217"/>
		</g>
	</g>
</g>
</svg>
