<?xml version="1.0" encoding="utf-8"?>
<!-- Generator: Adobe Illustrator 15.0.0, SVG Export Plug-In . SVG Version: 6.00 Build 0)  -->
<!DOCTYPE svg PUBLIC "-//W3C//DTD SVG 1.1//EN" "http://www.w3.org/Graphics/SVG/1.1/DTD/svg11.dtd">
<svg version="1.1" id="Layer_2" xmlns="http://www.w3.org/2000/svg" xmlns:xlink="http://www.w3.org/1999/xlink" x="0px" y="0px"
	 width="50.396px" height="45px" viewBox="0 0 50.396 45" enable-background="new 0 0 50.396 45" xml:space="preserve">
<path fill="#5D41DD" d="M39.599,37.8c-1.988,0-3.6,1.61-3.6,3.601c0,1.988,1.611,3.6,3.6,3.6c1.989,0,3.601-1.611,3.601-3.6
	C43.199,39.41,41.588,37.8,39.599,37.8z M21.599,37.8c-1.988,0-3.6,1.61-3.6,3.601c0,1.988,1.611,3.6,3.6,3.6
	c1.989,0,3.601-1.611,3.601-3.6C25.2,39.41,23.589,37.8,21.599,37.8z M1.8,25.199C0.809,25.199,0,26.01,0,27s0.81,1.8,1.8,1.8h14.4
	c0.989,0,1.8-0.81,1.8-1.8s-0.811-1.801-1.8-1.801H1.8z M5.4,18c-0.99,0-1.801,0.811-1.801,1.8c0,0.99,0.811,1.8,1.801,1.8H19.8
	c0.99,0,1.8-0.81,1.8-1.8c0-0.989-0.81-1.8-1.8-1.8H5.4z M16.65,32.363c0,0-0.019,0.002-0.019-0.016
	c-0.018,0-0.017-0.002-0.034,0.016H16.65z M3.599,0C2.61-0.018,1.782,0.773,1.782,1.781C1.763,2.771,2.557,3.582,3.548,3.6h3.438
	c0.396,0,0.734,0.25,0.86,0.646l2.99,10.154H19.8c2.97,0,5.4,2.43,5.4,5.399c0,2.483-1.694,4.592-3.998,5.204
	c0.252,0.611,0.397,1.294,0.397,1.996c0,2.808-2.178,5.148-4.949,5.363c0.989,1.135,2.466,1.836,4.05,1.836h19.747
	c2.431,0,4.568-1.639,5.217-3.979l4.666-17.152c0.27-0.955-0.29-1.946-1.263-2.198c-0.144-0.054-0.306-0.07-0.468-0.07H13.517
	l-2.216-7.579C10.726,1.313,8.966,0,6.985,0H3.599z"/>
</svg>
