<?xml version="1.0" encoding="utf-8"?>
<!-- Generator: Adobe Illustrator 15.0.0, SVG Export Plug-In . SVG Version: 6.00 Build 0)  -->
<!DOCTYPE svg PUBLIC "-//W3C//DTD SVG 1.1//EN" "http://www.w3.org/Graphics/SVG/1.1/DTD/svg11.dtd">
<svg version="1.1" id="Layer_2" xmlns="http://www.w3.org/2000/svg" xmlns:xlink="http://www.w3.org/1999/xlink" x="0px" y="0px"
	 width="50.396px" height="45px" viewBox="0 0 50.396 45" enable-background="new 0 0 50.396 45" xml:space="preserve">
<path fill="#5D41DD" d="M34.5,33c-3.31,0-6,2.691-6,6s2.69,6,6,6c3.309,0,6-2.691,6-6S37.809,33,34.5,33z M15.5,33
	c-3.31,0-6,2.691-6,6s2.69,6,6,6c3.309,0,6-2.691,6-6S18.809,33,15.5,33z M44,16.5c-3.31,0-6,2.691-6,6c0,3.309,2.69,6,6,6
	c3.309,0,6-2.691,6-6C50,19.191,47.309,16.5,44,16.5z M6,16.5c-3.31,0-6,2.691-6,6c0,3.309,2.69,6,6,6c3.309,0,6-2.691,6-6
	C12,19.191,9.309,16.5,6,16.5z M34.5,0c-3.31,0-6,2.691-6,6s2.69,6,6,6c3.309,0,6-2.691,6-6S37.809,0,34.5,0z M15.5,0
	c-3.125,0-5.691,2.414-5.97,5.469C9.516,5.609,9.504,5.734,9.5,5.875V6v0.031c0,0.168,0.016,0.328,0.03,0.5
	c0.005,0.043-0.004,0.086,0,0.125c0.021,0.16,0.063,0.34,0.095,0.5l0.03,0.156C9.691,7.46,9.734,7.628,9.781,7.781
	c0.009,0.023-0.008,0.039,0,0.063c0.138,0.426,0.321,0.852,0.563,1.281c0.113,0.184,0.246,0.352,0.406,0.531
	c0.918,1.184,2.297,2.012,3.844,2.25c0.027,0.004,0.035,0.027,0.062,0.031c0.067,0.008,0.153,0.023,0.22,0.031
	c0.012,0,0.016-0.004,0.03,0c1.302,0.156,2.435,0.086,3.095,1.219l0.313,0.625c0.8,1.398-0.07,2.539-0.969,3.938
	c-0.02,0.031-0.012,0.094-0.031,0.125C16.492,19.23,16,20.801,16,22.5c0,1.695,0.465,3.27,1.28,4.625
	c0.044,0.082,0.078,0.203,0.125,0.281c0.849,1.504,2.341,2.668,4.063,3.375c0.156,0.066,0.308,0.129,0.469,0.188
	c0.085,0.027,0.164,0.035,0.25,0.063c0.464,0.151,0.941,0.27,1.438,0.344c0.145,0.022,0.293,0.047,0.438,0.063
	c0.016,0.004,0.046,0.03,0.063,0.03c2.078,0.234,4.227-0.19,5.969-1.469c4.094-2.996,4.801-7.836,3-11.438l-0.063-0.125
	C31.543,15.516,28.504,13.5,25,13.5h-0.063h-0.032c-1.698,0-3.319,0.211-4.218-1.188l-0.282-0.625
	c-0.526-0.906-0.112-1.848,0.345-2.813c0.147-0.27,0.27-0.523,0.375-0.813c0.016-0.035,0.051-0.09,0.063-0.125
	c0.007-0.02-0.008-0.043,0-0.063C21.383,7.285,21.5,6.656,21.5,6C21.5,2.691,18.809,0,15.5,0z"/>
</svg>
