<?xml version="1.0" encoding="utf-8"?>
<!-- Generator: Adobe Illustrator 15.0.0, SVG Export Plug-In . SVG Version: 6.00 Build 0)  -->
<!DOCTYPE svg PUBLIC "-//W3C//DTD SVG 1.1//EN" "http://www.w3.org/Graphics/SVG/1.1/DTD/svg11.dtd">
<svg version="1.1" id="Layer_1" xmlns="http://www.w3.org/2000/svg" xmlns:xlink="http://www.w3.org/1999/xlink" x="0px" y="0px"
	 width="129.642px" height="51.575px" viewBox="0 0 129.642 51.575" enable-background="new 0 0 129.642 51.575"
	 xml:space="preserve">
<rect x="28.851" y="1.167" fill-rule="evenodd" clip-rule="evenodd" fill="none" width="40" height="40"/>
<path fill="#44C3D2" d="M127.379,2.343c-3.023-3.02-7.936-3.02-10.955,0l-15.545,15.543L85.26,2.268C83.796,0.806,81.854,0,79.788,0
	h-0.025c-2.072,0-4.017,0.806-5.478,2.268l-12.508,12.51L49.24,2.207C47.762,0.772,45.856,0,43.828,0h-0.032
	c-2.077,0-4.021,0.806-5.485,2.268c0.036-0.025-0.029,0.058-0.121,0.152L2.264,38.348c-3.019,3.02-3.019,7.934,0,10.953
	c2.927,2.927,8.03,2.927,10.953,0l30.591-30.587l12.562,12.58c1.455,1.412,3.366,2.188,5.4,2.188h0.011
	c2.035,0,3.946-0.774,5.398-2.187l0.116-0.13l10.993-10.992l-3.395-6.367l4.879,4.881l7.099,7.099l3.055,3.055l-9.585,9.585
	c-3.017,3.019-3.017,7.934,0,10.953c2.93,2.928,8.03,2.928,10.955,0l36.083-36.083C130.396,10.277,130.396,5.365,127.379,2.343z"/>
</svg>
