<?xml version="1.0" encoding="utf-8"?>
<!-- Generator: Adobe Illustrator 15.0.0, SVG Export Plug-In . SVG Version: 6.00 Build 0)  -->
<!DOCTYPE svg PUBLIC "-//W3C//DTD SVG 1.1//EN" "http://www.w3.org/Graphics/SVG/1.1/DTD/svg11.dtd">
<svg version="1.1" id="Layer_1" xmlns="http://www.w3.org/2000/svg" xmlns:xlink="http://www.w3.org/1999/xlink" x="0px" y="0px"
	 width="194.311px" height="26.94px" viewBox="0 0 194.311 26.94" enable-background="new 0 0 194.311 26.94" xml:space="preserve">
<g>
	<path fill="#FFFFFF" d="M101.081,11.955v9.28h-1.832v-9.4c0-3.365-1.834-4.807-4.174-4.807c-2.885,0-4.535,2.343-4.957,4.776v9.431
		h-1.832v-9.4c0-3.365-2.073-4.807-4.266-4.807c-3.004,0-4.505,2.644-4.865,4.776v9.431h-1.832V5.617h1.832v3.903
		c0.149-1.229,1.683-4.144,5.167-4.144c2.042,0,4.535,1.142,5.437,4.085c0.57-1.832,2.492-4.085,5.615-4.085
		C98.077,5.377,101.081,7.06,101.081,11.955z"/>
	<polygon fill="#FFFFFF" points="117.839,5.617 108.348,26.94 106.516,26.94 109.25,20.784 102.523,5.617 104.383,5.617 
		110.18,18.682 115.978,5.617 	"/>
	<path fill="#FFFFFF" d="M125.442,8.44c-0.962,0-1.743,0.57-1.743,1.381c0,0.781,0.45,1.262,1.472,1.653l1.832,0.629
		c2.343,0.843,4.477,1.744,4.477,4.688c0,3.093-3.035,4.774-6.068,4.774c-2.823,0-5.437-1.621-6.066-4.324l3.064-0.933
		c0.418,1.173,1.381,2.193,3.002,2.193c1.231,0,2.252-0.751,2.252-1.743c0-0.69-0.509-1.2-1.591-1.621l-1.802-0.63
		c-3.003-1.082-4.325-2.644-4.325-4.716c0-2.764,2.493-4.446,5.346-4.446s4.775,1.533,5.617,3.876l-3.215,0.87
		C127.183,8.95,126.432,8.44,125.442,8.44z"/>
	<path fill="#FFFFFF" d="M137.366,12.014h8.379c-0.451-2.222-2.432-3.362-4.176-3.362C139.829,8.651,137.936,9.792,137.366,12.014z
		 M149.138,14.808h-11.803c0.51,2.282,2.402,3.455,4.655,3.455c2.012,0,2.914-0.482,4.025-1.202l2.162,2.071
		c-1.383,1.472-3.335,2.404-6.308,2.404c-3.935,0-8.44-2.703-8.44-8.08c0-5.407,4.596-8.11,8.139-8.11
		C145.115,5.346,149.981,8.049,149.138,14.808z"/>
	<rect x="151.872" fill="#FFFFFF" width="3.873" height="21.235"/>
	<rect x="158.93" fill="#FFFFFF" width="3.874" height="21.235"/>
	<path fill="#FFFFFF" d="M169.381,12.014h8.38c-0.45-2.222-2.432-3.362-4.175-3.362C171.845,8.651,169.952,9.792,169.381,12.014z
		 M181.155,14.808h-11.803c0.51,2.282,2.402,3.455,4.655,3.455c2.013,0,2.914-0.482,4.025-1.202l2.162,2.071
		c-1.381,1.472-3.335,2.404-6.308,2.404c-3.936,0-8.44-2.703-8.44-8.08c0-5.407,4.596-8.11,8.14-8.11
		C177.131,5.346,181.997,8.049,181.155,14.808z"/>
	<path fill="#FFFFFF" d="M194.311,5.437v3.694c-0.33-0.061-0.689-0.061-0.959-0.061c-2.914,0-5.287,2.073-5.588,5.228v6.938h-3.874
		V5.617h3.874v3.935c0.66-2.343,2.583-4.175,5.467-4.175C193.622,5.377,193.952,5.377,194.311,5.437z"/>
	<path fill="#44C3D2" d="M61.051,2.22c-1.449-1.446-3.804-1.446-5.25,0L48.35,9.669l-7.486-7.486
		c-0.701-0.7-1.632-1.087-2.621-1.087h-0.014c-0.992,0-1.924,0.387-2.625,1.087L29.61,8.179L23.6,2.154
		c-0.709-0.688-1.621-1.059-2.594-1.059h-0.016c-0.995,0-1.928,0.387-2.628,1.087c0.017-0.012-0.015,0.028-0.058,0.073L1.085,19.477
		c-1.447,1.446-1.447,3.802,0,5.249c1.403,1.403,3.849,1.403,5.249,0l14.662-14.66l6.021,6.029c0.696,0.677,1.613,1.05,2.588,1.05
		h0.006c0.975,0,1.891-0.372,2.587-1.048l0.056-0.063l5.268-5.269l-1.627-3.052l2.34,2.34l3.402,3.402l1.464,1.464l-4.594,4.594
		c-1.446,1.446-1.446,3.802,0,5.249c1.403,1.403,3.849,1.403,5.249,0L61.051,7.47C62.498,6.022,62.498,3.668,61.051,2.22z"/>
</g>
</svg>
