<?xml version="1.0" encoding="utf-8"?>
<!-- Generator: Adobe Illustrator 15.0.0, SVG Export Plug-In . SVG Version: 6.00 Build 0)  -->
<!DOCTYPE svg PUBLIC "-//W3C//DTD SVG 1.1//EN" "http://www.w3.org/Graphics/SVG/1.1/DTD/svg11.dtd">
<svg version="1.1" id="Layer_1" xmlns="http://www.w3.org/2000/svg" xmlns:xlink="http://www.w3.org/1999/xlink" x="0px" y="0px"
	 width="31.638px" height="24.063px" viewBox="0 0 31.638 24.063" enable-background="new 0 0 31.638 24.063" xml:space="preserve">
<g>
	<path fill="#FFFFFF" d="M0,2.667c0-0.175,0.017-0.348,0.051-0.52s0.084-0.338,0.152-0.5C0.27,1.484,0.352,1.331,0.449,1.185
		c0.098-0.146,0.208-0.28,0.332-0.404C0.905,0.657,1.04,0.547,1.186,0.45c0.145-0.098,0.299-0.18,0.461-0.247
		c0.162-0.067,0.328-0.118,0.5-0.152C2.318,0.018,2.492,0,2.667,0h26.222c0.175,0,0.349,0.018,0.521,0.051
		c0.171,0.034,0.338,0.084,0.5,0.152c0.162,0.067,0.315,0.149,0.461,0.247c0.146,0.097,0.28,0.208,0.404,0.332
		c0.124,0.124,0.234,0.258,0.332,0.404c0.098,0.146,0.18,0.299,0.247,0.461c0.067,0.162,0.118,0.328,0.152,0.5
		s0.051,0.345,0.051,0.52s-0.017,0.349-0.051,0.52c-0.034,0.172-0.084,0.339-0.152,0.5c-0.067,0.162-0.149,0.315-0.247,0.461
		c-0.097,0.146-0.208,0.28-0.332,0.404s-0.258,0.234-0.404,0.332c-0.146,0.097-0.299,0.18-0.461,0.247
		c-0.162,0.067-0.329,0.118-0.5,0.152c-0.172,0.034-0.345,0.051-0.521,0.051H2.667c-0.175,0-0.348-0.018-0.52-0.051
		c-0.172-0.034-0.338-0.085-0.5-0.152C1.484,5.063,1.331,4.981,1.186,4.884C1.04,4.787,0.905,4.676,0.781,4.552
		C0.657,4.428,0.547,4.294,0.449,4.148C0.352,4.002,0.27,3.849,0.203,3.687c-0.067-0.162-0.118-0.329-0.152-0.5
		C0.017,3.015,0,2.842,0,2.667z"/>
	<path fill="#FFFFFF" d="M0,12c0-0.175,0.017-0.349,0.051-0.52c0.034-0.172,0.084-0.338,0.152-0.5
		c0.067-0.162,0.149-0.315,0.246-0.461c0.098-0.145,0.208-0.28,0.332-0.403C0.905,9.99,1.04,9.88,1.186,9.783
		c0.145-0.098,0.299-0.18,0.461-0.247c0.162-0.067,0.328-0.118,0.5-0.152s0.345-0.051,0.52-0.051h26.222
		c0.175,0,0.349,0.017,0.521,0.051c0.171,0.034,0.338,0.084,0.5,0.152c0.162,0.067,0.315,0.149,0.461,0.247
		c0.146,0.097,0.28,0.207,0.404,0.332c0.124,0.124,0.234,0.258,0.332,0.403c0.098,0.146,0.18,0.3,0.247,0.461
		c0.067,0.162,0.118,0.329,0.152,0.5c0.034,0.171,0.051,0.345,0.051,0.52s-0.017,0.349-0.051,0.52
		c-0.034,0.172-0.084,0.338-0.152,0.5c-0.067,0.162-0.149,0.315-0.247,0.461c-0.097,0.145-0.208,0.28-0.332,0.403
		c-0.124,0.125-0.258,0.234-0.404,0.332c-0.146,0.098-0.299,0.18-0.461,0.247c-0.162,0.067-0.329,0.118-0.5,0.152
		c-0.172,0.034-0.345,0.051-0.521,0.051H2.667c-0.175,0-0.348-0.017-0.52-0.051s-0.338-0.084-0.5-0.152
		c-0.162-0.067-0.316-0.149-0.461-0.247C1.04,14.12,0.905,14.01,0.781,13.885c-0.124-0.124-0.234-0.258-0.332-0.403
		c-0.097-0.146-0.179-0.3-0.246-0.461c-0.067-0.162-0.118-0.329-0.152-0.5C0.017,12.349,0,12.175,0,12z"/>
	<path fill="#FFFFFF" d="M0,21.333c0-0.175,0.017-0.349,0.051-0.52c0.034-0.172,0.084-0.339,0.152-0.5
		c0.067-0.162,0.149-0.315,0.246-0.461c0.098-0.146,0.208-0.28,0.332-0.404c0.124-0.124,0.258-0.234,0.404-0.332
		c0.145-0.098,0.299-0.18,0.461-0.247c0.162-0.067,0.328-0.118,0.5-0.152c0.172-0.034,0.345-0.051,0.52-0.051h26.222
		c0.175,0,0.349,0.018,0.521,0.051c0.171,0.034,0.338,0.085,0.5,0.152c0.162,0.067,0.315,0.149,0.461,0.247
		c0.146,0.097,0.28,0.208,0.404,0.332s0.234,0.258,0.332,0.404c0.098,0.146,0.18,0.299,0.247,0.461
		c0.067,0.162,0.118,0.329,0.152,0.5c0.034,0.171,0.051,0.345,0.051,0.52s-0.017,0.348-0.051,0.52s-0.084,0.338-0.152,0.5
		c-0.067,0.162-0.149,0.316-0.247,0.461c-0.097,0.146-0.208,0.28-0.332,0.404c-0.124,0.124-0.258,0.234-0.404,0.332
		c-0.146,0.097-0.299,0.18-0.461,0.247c-0.162,0.067-0.329,0.118-0.5,0.152C29.237,23.982,29.064,24,28.889,24H2.667
		c-0.175,0-0.348-0.018-0.52-0.051c-0.172-0.034-0.338-0.084-0.5-0.152c-0.162-0.067-0.316-0.149-0.461-0.247
		c-0.146-0.097-0.281-0.208-0.404-0.332c-0.124-0.124-0.234-0.258-0.332-0.404c-0.097-0.146-0.179-0.299-0.246-0.461
		c-0.067-0.162-0.118-0.328-0.152-0.5S0,21.509,0,21.333z"/>
</g>
</svg>
