<?xml version="1.0" encoding="utf-8"?>
<!-- Generator: Adobe Illustrator 15.0.0, SVG Export Plug-In . SVG Version: 6.00 Build 0)  -->
<!DOCTYPE svg PUBLIC "-//W3C//DTD SVG 1.1//EN" "http://www.w3.org/Graphics/SVG/1.1/DTD/svg11.dtd">
<svg version="1.1" id="Layer_1" xmlns="http://www.w3.org/2000/svg" xmlns:xlink="http://www.w3.org/1999/xlink" x="0px" y="0px"
	 width="30px" height="7.682px" viewBox="0 0 30 7.682" enable-background="new 0 0 30 7.682" xml:space="preserve">
<title>Logos</title>
<g>
	<path fill="#FFFFFF" d="M5.009,5.192c-0.133,0.149-0.326,0.194-0.66,0.215C4.06,5.423,3.546,5.472,3.289,5.468
		C3.032,5.465,2.748,5.466,2.235,5.419C1.391,5.341,1.233,5.238,1.038,5.234C0.932,5.232,0.854,5.278,0.805,5.32
		C0.441,4.876,0.233,4.373,0.227,3.839c0.458-0.058,1.005-0.086,1.885,0.124c1.005,0.24,1.544,0.564,1.544,0.564
		S3.534,4.323,3.502,3.902C3.469,3.482,3.495,2.727,3.44,2.388C3.385,2.05,3.254,1.803,3.167,1.636
		C3.072,1.519,2.942,1.575,2.834,1.575s-0.4-0.101-0.515-0.169c-0.051-0.031-0.165-0.058-0.28-0.08
		C1.899,1.299,1.756,1.28,1.724,1.269c-0.059-0.02-0.166-0.065-0.12-0.16s0.264-0.01,0.371,0.046c0.098,0.05,0.15,0.104,0.262,0.07
		c0.011-0.003,0.022-0.007,0.034-0.012C2.408,1.158,2.46,1.132,2.528,1.207c0.068,0.075,0.166,0.201,0.244,0.211
		c0.078,0.01,0.137-0.006,0.137-0.006S2.662,1.188,2.561,1.08C2.556,1.076,2.552,1.071,2.548,1.067
		C2.457,0.966,2.419,0.888,2.474,0.799c0.032-0.047,0.057-0.108,0.059-0.112C2.529,0.689,2.49,0.704,2.442,0.74
		C2.413,0.762,2.338,0.813,2.338,0.813S2.275,0.796,2.257,0.739C2.239,0.683,2.215,0.602,2.215,0.602s-0.043,0.12-0.03,0.218
		c0,0-0.021,0.032-0.116,0.023c0,0,0.036,0.041,0.105,0.042c0,0-0.002,0.058-0.004,0.086c0,0,0.044-0.015,0.073-0.054
		S2.321,0.891,2.34,0.913c0.018,0.022,0.059,0.084,0.067,0.111C2.415,1.05,2.365,1.071,2.31,1.083
		C2.256,1.095,2.198,1.124,2.141,1.113C2.083,1.101,2.009,1.054,1.942,0.973c-0.066-0.08-0.168-0.168-0.167-0.234
		c0.001-0.066,0.21-0.194,0.307-0.259s0.25-0.169,0.277-0.191C2.386,0.267,2.475,0.211,2.576,0.31
		c0.079,0.079,0.39,0.388,0.566,0.564C3.191,0.923,3.23,0.962,3.251,0.982C3.349,1.08,3.56,1.314,3.656,1.49
		s0.517,1.039,0.702,1.456C4.543,3.362,4.94,4.312,5.009,4.501C5.077,4.691,5.143,5.042,5.009,5.192z M4.937,3.844
		c-0.108-0.257-0.499-1.13-0.647-1.492C4.14,1.99,3.939,1.572,3.714,1.266C3.563,1.06,3.349,0.835,3.172,0.656
		C3.087,0.57,3.01,0.494,2.954,0.438C2.781,0.265,2.705,0.192,2.636,0.14s-0.229-0.092-0.374,0C2.117,0.233,1.973,0.337,1.86,0.418
		C1.748,0.498,1.619,0.618,1.611,0.739C1.603,0.86,1.667,0.916,1.667,0.916S1.506,0.912,1.438,1.041
		C1.38,1.149,1.393,1.301,1.563,1.38c0.032,0.014,0.069,0.026,0.111,0.036C1.945,1.47,2.119,1.516,2.296,1.605
		c0.177,0.088,0.36,0.14,0.504,0.136c0.145-0.004,0.221-0.016,0.221-0.016S3.13,1.97,3.203,2.211C3.281,2.466,3.3,2.725,3.284,3.131
		c-0.016,0.406-0.013,0.78,0.063,1.042c0,0-0.309-0.129-1.013-0.334S1.261,3.583,0.706,3.607C0.367,3.621,0.157,3.642,0.027,3.672
		C0.024,3.719,0.022,3.767,0.022,3.815c0,0.049,0,0.185,0,0.202c0,0.455,0.105,0.893,0.305,1.293
		c0.231,0.188,0.471,0.305,0.471,0.305c0.121-0.146,0.163-0.191,0.244-0.191c0.08,0,0.387,0.085,0.676,0.125
		c0.29,0.041,0.857,0.121,1.469,0.098c0.611-0.024,1.25-0.057,1.537-0.113C5.009,5.477,5.237,5.361,5.246,4.95
		C5.254,4.54,5.045,4.101,4.937,3.844z"/>
	<path fill="#FFFFFF" d="M9.641,5.315C9.592,5.273,9.514,5.228,9.408,5.23C9.214,5.232,9.056,5.336,8.213,5.414
		C7.702,5.462,7.418,5.46,7.161,5.463C6.905,5.466,6.393,5.418,6.104,5.402c-0.334-0.02-0.526-0.065-0.659-0.215
		c-0.134-0.149-0.068-0.5,0-0.689C5.514,4.31,5.909,3.361,6.095,2.945c0.186-0.416,0.604-1.277,0.7-1.452
		c0.097-0.176,0.307-0.409,0.404-0.507c0.021-0.021,0.06-0.059,0.108-0.107c0.177-0.176,0.486-0.485,0.565-0.563
		c0.101-0.1,0.189-0.043,0.217-0.022c0.026,0.022,0.18,0.125,0.275,0.19C8.462,0.55,8.671,0.677,8.672,0.744
		C8.674,0.81,8.571,0.897,8.505,0.978c-0.065,0.08-0.141,0.126-0.197,0.138C8.25,1.128,8.192,1.099,8.139,1.087
		c-0.055-0.012-0.104-0.034-0.097-0.06C8.05,1.001,8.091,0.938,8.109,0.917c0.018-0.021,0.067-0.035,0.096,0.004
		s0.073,0.054,0.073,0.054C8.275,0.947,8.273,0.889,8.273,0.889c0.069-0.001,0.105-0.042,0.105-0.042
		C8.284,0.856,8.263,0.825,8.263,0.825c0.014-0.098-0.029-0.218-0.029-0.218S8.21,0.687,8.191,0.744
		C8.173,0.8,8.11,0.817,8.11,0.817S8.036,0.766,8.007,0.744C7.959,0.708,7.92,0.693,7.916,0.692
		c0.002,0.004,0.027,0.064,0.059,0.111C8.03,0.892,7.992,0.97,7.901,1.071C7.896,1.074,7.893,1.079,7.888,1.084
		C7.787,1.192,7.54,1.415,7.54,1.415s0.059,0.016,0.137,0.006C7.755,1.412,7.853,1.285,7.921,1.21
		c0.067-0.075,0.12-0.049,0.256,0.006C8.188,1.221,8.2,1.225,8.211,1.229c0.112,0.033,0.164-0.02,0.262-0.07
		c0.107-0.055,0.325-0.14,0.37-0.046c0.046,0.095-0.062,0.14-0.12,0.159C8.69,1.283,8.549,1.302,8.408,1.329
		C8.293,1.351,8.18,1.378,8.129,1.408C8.015,1.477,7.723,1.577,7.615,1.577S7.378,1.522,7.284,1.639
		c-0.088,0.165-0.218,0.412-0.273,0.75C6.956,2.727,6.981,3.481,6.949,3.9C6.917,4.32,6.795,4.523,6.795,4.523
		S7.333,4.199,8.336,3.96c0.879-0.21,1.425-0.182,1.882-0.124C10.212,4.37,10.004,4.872,9.641,5.315z M10.422,3.813
		c0-0.047-0.002-0.095-0.005-0.143c-0.13-0.03-0.34-0.05-0.678-0.065C9.186,3.581,8.816,3.632,8.113,3.836
		C7.411,4.041,7.103,4.17,7.103,4.17c0.077-0.26,0.08-0.634,0.063-1.039C7.15,2.725,7.169,2.467,7.247,2.213
		c0.073-0.24,0.181-0.486,0.181-0.486s0.076,0.012,0.221,0.016s0.327-0.047,0.504-0.136s0.351-0.134,0.62-0.189
		c0.042-0.009,0.08-0.021,0.111-0.036c0.17-0.079,0.183-0.229,0.125-0.338C8.94,0.916,8.78,0.92,8.78,0.92s0.064-0.056,0.057-0.176
		C8.828,0.623,8.7,0.503,8.588,0.423C8.476,0.342,8.331,0.238,8.187,0.145c-0.145-0.092-0.306-0.052-0.373,0
		C7.745,0.198,7.669,0.27,7.496,0.443C7.439,0.499,7.363,0.574,7.277,0.661c-0.176,0.178-0.389,0.403-0.54,0.608
		C6.513,1.574,6.312,1.992,6.163,2.353C6.015,2.714,5.626,3.585,5.518,3.842S5.2,4.536,5.209,4.946
		c0.008,0.409,0.236,0.526,0.521,0.582C6.015,5.584,6.653,5.616,7.264,5.64c0.609,0.024,1.176-0.057,1.465-0.097
		s0.596-0.125,0.676-0.125s0.122,0.046,0.243,0.19c0,0,0.239-0.116,0.47-0.303c0.199-0.401,0.305-0.836,0.305-1.292
		C10.422,3.997,10.422,3.862,10.422,3.813z"/>
	<rect x="12.995" y="4.063" fill="#FFFFFF" width="0.542" height="0.494"/>
	<rect x="12.995" y="4.806" fill="#FFFFFF" width="0.542" height="2.112"/>
	<path fill="#FFFFFF" d="M18.363,5.59c0.003-0.04,0.012-0.087,0.026-0.138c0.016-0.051,0.041-0.1,0.077-0.146
		c0.037-0.046,0.086-0.084,0.146-0.116c0.062-0.03,0.138-0.046,0.229-0.046c0.141,0,0.246,0.037,0.315,0.113
		c0.068,0.076,0.117,0.188,0.144,0.333H18.363z M19.839,5.49c-0.038-0.15-0.1-0.282-0.186-0.398
		c-0.085-0.117-0.194-0.209-0.327-0.279c-0.133-0.068-0.288-0.104-0.467-0.104c-0.16,0-0.306,0.029-0.437,0.086
		c-0.132,0.057-0.245,0.135-0.34,0.233s-0.168,0.216-0.219,0.352c-0.052,0.136-0.077,0.282-0.077,0.438
		c0,0.162,0.024,0.312,0.075,0.447c0.05,0.135,0.121,0.252,0.213,0.35c0.093,0.097,0.205,0.172,0.337,0.225
		c0.133,0.053,0.282,0.08,0.447,0.08c0.238,0,0.441-0.055,0.609-0.163s0.293-0.288,0.374-0.54h-0.508
		c-0.02,0.064-0.07,0.127-0.154,0.186c-0.084,0.058-0.185,0.086-0.301,0.086c-0.163,0-0.287-0.041-0.374-0.125
		s-0.134-0.22-0.143-0.406h1.516C19.89,5.793,19.876,5.638,19.839,5.49z"/>
	<path fill="#FFFFFF" d="M17.396,5.282c-0.302,0-0.443,0.195-0.443,0.509v1.12h-0.55V5.8c0.016-0.697,0.36-1.084,1.082-1.084h0.163
		v0.563L17.396,5.282z"/>
	<path fill="#FFFFFF" d="M15.065,6.457c-0.31,0-0.456-0.22-0.452-0.655c0.017-0.416,0.167-0.619,0.46-0.619
		c0.294,0,0.444,0.203,0.457,0.619C15.53,6.238,15.375,6.457,15.065,6.457z M15.225,4.697c-0.269,0-0.473,0.111-0.611,0.335V4.063
		h-0.062c-0.271,0.003-0.412,0.147-0.48,0.266v1.624c0,0.648,0.338,0.97,1.011,0.966c0.668-0.013,1.002-0.375,1.002-1.093
		C16.084,5.093,15.799,4.718,15.225,4.697z"/>
	<path fill="#FFFFFF" d="M11.872,6.918V4.412c0-0.082,0.168-0.349,0.399-0.349h0.143v2.855H11.872z"/>
	<path fill="#FFFFFF" d="M27.832,2.571c-0.017,0.083-0.046,0.157-0.086,0.223c-0.041,0.066-0.096,0.119-0.164,0.158
		C27.513,2.99,27.428,3.01,27.327,3.01s-0.186-0.02-0.252-0.059c-0.067-0.039-0.122-0.092-0.163-0.158
		c-0.04-0.065-0.068-0.14-0.086-0.223c-0.017-0.083-0.024-0.168-0.024-0.254c0-0.087,0.008-0.173,0.024-0.257
		c0.018-0.084,0.046-0.158,0.086-0.223c0.041-0.064,0.096-0.117,0.163-0.158c0.066-0.041,0.151-0.061,0.252-0.061
		s0.186,0.02,0.255,0.061c0.068,0.041,0.123,0.093,0.164,0.158c0.04,0.065,0.069,0.139,0.086,0.223s0.025,0.169,0.025,0.257
		C27.857,2.403,27.849,2.488,27.832,2.571z M28.375,1.843c-0.054-0.142-0.129-0.262-0.228-0.362s-0.217-0.177-0.355-0.231
		s-0.294-0.082-0.465-0.082s-0.325,0.027-0.463,0.082s-0.255,0.132-0.354,0.231s-0.174,0.22-0.228,0.362
		c-0.053,0.142-0.079,0.3-0.079,0.474s0.026,0.331,0.079,0.471c0.054,0.141,0.129,0.26,0.228,0.36s0.216,0.176,0.354,0.229
		s0.292,0.08,0.463,0.08s0.326-0.027,0.465-0.08s0.257-0.13,0.355-0.229s0.174-0.219,0.228-0.36c0.053-0.14,0.08-0.297,0.08-0.471
		S28.428,1.984,28.375,1.843z"/>
	<path fill="#FFFFFF" d="M20.333,1.618c-0.096,0-0.176,0.021-0.24,0.065s-0.117,0.1-0.157,0.168
		c-0.041,0.069-0.07,0.145-0.087,0.228s-0.025,0.165-0.025,0.246c0,0.079,0.009,0.159,0.025,0.24
		c0.017,0.082,0.044,0.155,0.082,0.221c0.038,0.066,0.089,0.12,0.153,0.162s0.144,0.063,0.235,0.063c0.144,0,0.254-0.04,0.331-0.12
		s0.125-0.188,0.145-0.322h0.577c-0.04,0.289-0.151,0.509-0.337,0.661c-0.186,0.151-0.422,0.227-0.711,0.227
		c-0.162,0-0.312-0.027-0.448-0.082c-0.136-0.055-0.252-0.131-0.347-0.229c-0.096-0.098-0.17-0.215-0.224-0.351
		c-0.053-0.136-0.079-0.286-0.079-0.448c0-0.168,0.024-0.325,0.073-0.469c0.049-0.145,0.121-0.27,0.217-0.375
		c0.095-0.105,0.212-0.188,0.349-0.247c0.138-0.059,0.295-0.088,0.472-0.088c0.129,0,0.253,0.017,0.372,0.051
		s0.226,0.085,0.32,0.153c0.094,0.069,0.17,0.154,0.229,0.257c0.06,0.103,0.093,0.224,0.102,0.364h-0.585
		C20.735,1.742,20.588,1.618,20.333,1.618z"/>
	<path fill="#FFFFFF" d="M15.925,2.083c0.003-0.042,0.012-0.089,0.027-0.142s0.042-0.103,0.079-0.15
		c0.038-0.047,0.088-0.087,0.15-0.119c0.063-0.032,0.141-0.048,0.235-0.048c0.145,0,0.252,0.039,0.322,0.117
		c0.071,0.078,0.12,0.192,0.148,0.342H15.925z M17.438,1.979c-0.039-0.153-0.103-0.289-0.189-0.408
		c-0.088-0.12-0.199-0.215-0.336-0.286c-0.136-0.071-0.295-0.106-0.479-0.106c-0.164,0-0.313,0.03-0.448,0.088
		c-0.134,0.059-0.25,0.138-0.348,0.239c-0.097,0.102-0.172,0.222-0.225,0.36c-0.053,0.139-0.079,0.289-0.079,0.45
		c0,0.167,0.025,0.319,0.077,0.458s0.124,0.258,0.219,0.358c0.094,0.1,0.209,0.177,0.346,0.231c0.136,0.054,0.288,0.081,0.458,0.081
		c0.244,0,0.453-0.055,0.625-0.167c0.172-0.111,0.3-0.296,0.383-0.554h-0.521c-0.02,0.066-0.072,0.129-0.158,0.189
		c-0.086,0.06-0.189,0.089-0.309,0.089c-0.166,0-0.294-0.043-0.383-0.129s-0.138-0.225-0.146-0.417h1.555
		C17.49,2.291,17.477,2.132,17.438,1.979z"/>
	<path fill="#FFFFFF" d="M24.828,2.991c-0.317,0-0.468-0.226-0.464-0.673c0.018-0.426,0.172-0.635,0.473-0.635
		s0.455,0.209,0.468,0.635C25.305,2.765,25.146,2.991,24.828,2.991z M25.306,0.686l-0.001,0.138v0.705
		c-0.142-0.23-0.355-0.343-0.631-0.343c-0.589,0.021-0.882,0.405-0.882,1.157c0,0.735,0.343,1.107,1.028,1.12
		c0.689,0.004,1.036-0.326,1.036-0.99V0.481C25.856,0.481,25.482,0.427,25.306,0.686z"/>
	<path fill="#FFFFFF" d="M22.934,2.504c0,0.313-0.188,0.497-0.497,0.497c-0.175,0-0.268-0.083-0.279-0.259
		c0-0.163,0.112-0.267,0.334-0.309c0.163-0.034,0.313-0.056,0.442-0.11V2.504z M22.541,1.167c-0.631,0-0.846,0.285-0.865,0.711
		l0.518,0c0.029-0.104,0.112-0.26,0.373-0.257c0.229,0.003,0.347,0.063,0.359,0.188c0,0.121-0.121,0.192-0.359,0.221
		c-0.56,0.054-0.944,0.196-0.957,0.728c0,0.489,0.368,0.735,0.898,0.693c0.598-0.042,0.965-0.313,0.965-0.923V1.777
		C23.46,1.367,23.151,1.167,22.541,1.167z"/>
	<path fill="#FFFFFF" d="M18.823,1.768c-0.309,0-0.454,0.2-0.454,0.521v1.148h-0.564v-1.14c0.017-0.715,0.37-1.112,1.109-1.112
		h0.168v0.577L18.823,1.768z"/>
	<path fill="#FFFFFF" d="M14.792,3.438c-0.184-0.012-0.275-0.101-0.275-0.276V2.026c-0.013-0.23-0.138-0.343-0.385-0.343
		c-0.246,0-0.372,0.113-0.376,0.343v1.404h-0.56V2.017c-0.013-0.23-0.138-0.343-0.385-0.343c-0.246,0-0.372,0.113-0.376,0.343v1.412
		h-0.563V2.13c0-0.631,0.317-0.944,0.948-0.944c0.284,0,0.501,0.063,0.66,0.188c0.158-0.121,0.376-0.18,0.66-0.18
		c0.631,0,0.944,0.313,0.939,0.944v1.299H14.792z"/>
	<path fill="#FFFFFF" d="M3.143,0.875c0.005,0.004,0.009,0.008,0.013,0.013c0.63-0.183,1.33-0.286,2.066-0.286
		c0.74,0,1.442,0.103,2.075,0.288l0.011-0.011c0.043-0.042,0.094-0.094,0.147-0.147c-0.677-0.211-1.435-0.33-2.234-0.33
		c-0.745,0-1.454,0.103-2.095,0.288C3.083,0.701,3.04,0.715,2.997,0.729C3.05,0.781,3.1,0.832,3.143,0.875z"/>
	<path fill="#FFFFFF" d="M8.702,1.277C8.649,1.289,8.528,1.306,8.408,1.329C8.405,1.33,8.402,1.33,8.399,1.331
		c1.112,0.586,1.821,1.475,1.821,2.468c0,0.141-0.015,0.279-0.042,0.415c-0.076,0.393-0.262,0.764-0.538,1.101
		C9.638,5.312,9.634,5.31,9.631,5.307c-0.842,1.006-2.501,1.69-4.409,1.69c-1.906,0-3.562-0.684-4.405-1.688
		C0.813,5.314,0.808,5.317,0.805,5.32c-0.277-0.338-0.464-0.711-0.54-1.105c-0.026-0.127-0.04-0.258-0.042-0.39
		c0-0.008,0-0.017,0-0.025c0-0.984,0.695-1.864,1.787-2.451c0.013-0.007,0.027-0.014,0.041-0.02C2.047,1.327,2.043,1.326,2.04,1.326
		C1.92,1.303,1.799,1.285,1.746,1.274c-0.07,0.041-0.139,0.083-0.206,0.127C0.65,1.986,0.082,2.781,0.027,3.66
		C0.024,3.707,0.022,3.754,0.022,3.801c0,0.048,0,0.182,0,0.199c0,0.448,0.104,0.878,0.301,1.274
		c0.676,1.357,2.448,2.322,4.898,2.322c3.184,0,5.199-1.609,5.199-3.597V3.801C10.42,2.802,9.757,1.9,8.702,1.277z"/>
</g>
</svg>
