<?xml version="1.0" encoding="utf-8"?>
<!-- Generator: Adobe Illustrator 15.0.0, SVG Export Plug-In . SVG Version: 6.00 Build 0)  -->
<!DOCTYPE svg PUBLIC "-//W3C//DTD SVG 1.1//EN" "http://www.w3.org/Graphics/SVG/1.1/DTD/svg11.dtd">
<svg version="1.1" id="Layer_1" xmlns="http://www.w3.org/2000/svg" xmlns:xlink="http://www.w3.org/1999/xlink" x="0px" y="0px"
	 width="76.499px" height="68.306px" viewBox="0 0 76.499 68.306" enable-background="new 0 0 76.499 68.306" xml:space="preserve">
<path fill="#48C3D2" d="M51.749,49.074c-4.702,0-8.526,3.824-8.526,8.526c0,4.702,3.824,8.526,8.526,8.526s8.526-3.824,8.526-8.526
	C60.275,52.897,56.451,49.074,51.749,49.074z M24.75,49.074c-4.703,0-8.526,3.824-8.526,8.526c0,4.702,3.824,8.526,8.526,8.526
	c4.702,0,8.526-3.824,8.526-8.526C33.275,52.897,29.452,49.074,24.75,49.074z M65.249,25.627c-4.702,0-8.526,3.824-8.526,8.526
	c0,4.702,3.824,8.526,8.526,8.526s8.526-3.824,8.526-8.526C73.775,29.451,69.951,25.627,65.249,25.627z M11.25,25.627
	c-4.702,0-8.526,3.824-8.526,8.526c0,4.702,3.824,8.526,8.526,8.526c4.703,0,8.526-3.824,8.526-8.526
	C19.776,29.451,15.952,25.627,11.25,25.627z M51.749,2.18c-4.702,0-8.526,3.824-8.526,8.526c0,4.703,3.824,8.526,8.526,8.526
	s8.526-3.824,8.526-8.526C60.275,6.004,56.451,2.18,51.749,2.18z M24.75,2.18c-4.441,0-8.087,3.43-8.482,7.771
	c-0.021,0.199-0.038,0.376-0.044,0.577v0.178v0.044c0,0.239,0.023,0.466,0.044,0.711c0.006,0.061-0.005,0.122,0,0.178
	c0.029,0.227,0.09,0.483,0.134,0.71l0.044,0.223c0.05,0.21,0.111,0.449,0.178,0.666c0.012,0.034-0.011,0.055,0,0.089
	c0.195,0.605,0.456,1.209,0.8,1.82c0.16,0.262,0.35,0.5,0.577,0.755c1.305,1.682,3.264,2.858,5.462,3.197
	c0.039,0.005,0.05,0.04,0.088,0.045c0.095,0.01,0.217,0.033,0.311,0.044c0.017,0,0.023-0.006,0.044,0
	c1.849,0.221,3.459,0.122,4.397,1.732l0.444,0.888c1.137,1.987-0.101,3.608-1.377,5.594c-0.028,0.044-0.017,0.134-0.044,0.178
	c-1.167,1.926-1.866,4.158-1.866,6.573c0,2.408,0.661,4.646,1.82,6.572c0.061,0.117,0.111,0.289,0.178,0.399
	c1.205,2.137,3.325,3.791,5.773,4.796c0.222,0.095,0.438,0.184,0.667,0.268c0.121,0.038,0.233,0.05,0.355,0.088
	c0.659,0.217,1.337,0.383,2.042,0.489c0.207,0.033,0.417,0.067,0.623,0.089c0.021,0.004,0.065,0.044,0.088,0.044
	c2.953,0.332,6.006-0.273,8.482-2.088c5.818-4.257,6.823-11.135,4.263-16.252l-0.089-0.178c-2.115-4.152-6.433-7.017-11.413-7.017
	h-0.088h-0.045c-2.415,0-4.718,0.3-5.994-1.687l-0.401-0.888c-0.749-1.289-0.161-2.626,0.489-3.998
	c0.21-0.384,0.384-0.743,0.533-1.154c0.023-0.051,0.073-0.128,0.09-0.178c0.01-0.029-0.012-0.061,0-0.089
	c0.277-0.838,0.443-1.732,0.443-2.665C33.275,6.004,29.452,2.18,24.75,2.18z"/>
</svg>
