<?xml version="1.0" encoding="utf-8"?>
<!-- Generator: Adobe Illustrator 15.0.0, SVG Export Plug-In . SVG Version: 6.00 Build 0)  -->
<!DOCTYPE svg PUBLIC "-//W3C//DTD SVG 1.1//EN" "http://www.w3.org/Graphics/SVG/1.1/DTD/svg11.dtd">
<svg version="1.1" id="Layer_1" xmlns="http://www.w3.org/2000/svg" xmlns:xlink="http://www.w3.org/1999/xlink" x="0px" y="0px"
	 width="190.096px" height="68.306px" viewBox="0 0 190.096 68.306" enable-background="new 0 0 190.096 68.306"
	 xml:space="preserve">
<g>
	<path fill="#48C3D2" d="M49.025,49.074c-4.702,0-8.526,3.824-8.526,8.526c0,4.702,3.824,8.526,8.526,8.526s8.526-3.824,8.526-8.526
		C57.551,52.897,53.728,49.074,49.025,49.074z M22.026,49.074c-4.703,0-8.526,3.824-8.526,8.526c0,4.702,3.824,8.526,8.526,8.526
		c4.702,0,8.526-3.824,8.526-8.526C30.552,52.897,26.728,49.074,22.026,49.074z M62.525,25.627c-4.702,0-8.526,3.824-8.526,8.526
		c0,4.702,3.824,8.526,8.526,8.526s8.526-3.824,8.526-8.526C71.051,29.451,67.227,25.627,62.525,25.627z M8.526,25.627
		C3.824,25.627,0,29.451,0,34.153c0,4.702,3.824,8.526,8.526,8.526c4.703,0,8.526-3.824,8.526-8.526
		C17.052,29.451,13.229,25.627,8.526,25.627z M49.025,2.18c-4.702,0-8.526,3.824-8.526,8.526c0,4.703,3.824,8.526,8.526,8.526
		s8.526-3.824,8.526-8.526C57.551,6.004,53.728,2.18,49.025,2.18z M22.026,2.18c-4.441,0-8.087,3.43-8.482,7.771
		c-0.021,0.199-0.038,0.376-0.044,0.577v0.178v0.044c0,0.239,0.023,0.466,0.044,0.711c0.006,0.061-0.005,0.122,0,0.178
		c0.029,0.227,0.09,0.483,0.134,0.71l0.044,0.223c0.05,0.21,0.111,0.449,0.178,0.666c0.012,0.034-0.011,0.055,0,0.089
		c0.195,0.605,0.456,1.209,0.8,1.82c0.16,0.262,0.35,0.5,0.577,0.755c1.305,1.682,3.264,2.858,5.462,3.197
		c0.039,0.005,0.05,0.04,0.088,0.045c0.095,0.01,0.217,0.033,0.311,0.044c0.017,0,0.023-0.006,0.044,0
		c1.849,0.221,3.459,0.122,4.397,1.732l0.444,0.888c1.137,1.987-0.101,3.608-1.377,5.594c-0.028,0.044-0.017,0.134-0.044,0.178
		c-1.167,1.926-1.866,4.158-1.866,6.573c0,2.408,0.661,4.646,1.82,6.572c0.061,0.117,0.111,0.289,0.178,0.399
		c1.205,2.137,3.325,3.791,5.773,4.796c0.222,0.095,0.438,0.184,0.667,0.268c0.121,0.038,0.233,0.05,0.355,0.088
		c0.659,0.217,1.337,0.383,2.042,0.489c0.207,0.033,0.417,0.067,0.623,0.089c0.021,0.004,0.065,0.044,0.088,0.044
		c2.953,0.332,6.006-0.273,8.482-2.088c5.818-4.257,6.823-11.135,4.263-16.252l-0.089-0.178c-2.115-4.152-6.433-7.017-11.413-7.017
		h-0.088h-0.045c-2.415,0-4.718,0.3-5.994-1.687l-0.401-0.888c-0.749-1.289-0.161-2.626,0.489-3.998
		c0.21-0.384,0.384-0.743,0.533-1.154c0.023-0.051,0.073-0.128,0.09-0.178c0.01-0.029-0.012-0.061,0-0.089
		c0.277-0.838,0.443-1.732,0.443-2.665C30.552,6.004,26.728,2.18,22.026,2.18z"/>
	<path fill="#48C3D2" d="M167.981,57.377c-3.019,0-5.464,2.446-5.464,5.465s2.445,5.464,5.464,5.464
		c3.019,0,5.464-2.445,5.464-5.464S171,57.377,167.981,57.377z M140.659,57.377c-3.019,0-5.465,2.446-5.465,5.465
		s2.446,5.464,5.465,5.464s5.464-2.445,5.464-5.464S143.678,57.377,140.659,57.377z M110.604,38.251
		c-1.502,0-2.732,1.229-2.732,2.732c0,1.502,1.229,2.732,2.732,2.732h21.858c1.502,0,2.732-1.229,2.732-2.732
		c0-1.503-1.229-2.732-2.732-2.732H110.604z M116.069,27.323c-1.502,0-2.732,1.229-2.732,2.732s1.23,2.732,2.732,2.732h21.858
		c1.502,0,2.732-1.229,2.732-2.732s-1.23-2.732-2.732-2.732H116.069z M133.145,49.126c0,0-0.027,0.003-0.027-0.025
		c-0.027,0-0.024-0.002-0.052,0.025H133.145z M113.336,0c-1.502-0.028-2.759,1.175-2.759,2.705c-0.027,1.503,1.177,2.732,2.68,2.76
		h5.219c0.601,0,1.115,0.38,1.306,0.98l4.538,15.413h13.606c4.508,0,8.196,3.688,8.196,8.196c0,3.771-2.57,6.97-6.068,7.899
		c0.382,0.929,0.604,1.964,0.604,3.03c0,4.262-3.306,7.814-7.514,8.142c1.503,1.721,3.744,2.787,6.148,2.787h29.975
		c3.689,0,6.935-2.489,7.918-6.041l7.082-26.036c0.41-1.447-0.44-2.954-1.915-3.336c-0.219-0.082-0.465-0.106-0.71-0.106h-53.251
		l-3.364-11.505C124.154,1.992,121.481,0,118.476,0H113.336z"/>
</g>
</svg>
