<?xml version="1.0" encoding="utf-8"?>
<!-- Generator: Adobe Illustrator 15.0.0, SVG Export Plug-In . SVG Version: 6.00 Build 0)  -->
<!DOCTYPE svg PUBLIC "-//W3C//DTD SVG 1.1//EN" "http://www.w3.org/Graphics/SVG/1.1/DTD/svg11.dtd">
<svg version="1.1" id="Layer_1" xmlns="http://www.w3.org/2000/svg" xmlns:xlink="http://www.w3.org/1999/xlink" x="0px" y="0px"
	 width="76.499px" height="68.306px" viewBox="0 0 76.499 68.306" enable-background="new 0 0 76.499 68.306" xml:space="preserve">
<path fill="#48C3D2" d="M60.109,57.377c-3.019,0-5.464,2.446-5.464,5.465s2.445,5.464,5.464,5.464c3.019,0,5.464-2.445,5.464-5.464
	S63.128,57.377,60.109,57.377z M32.787,57.377c-3.019,0-5.465,2.446-5.465,5.465s2.446,5.464,5.465,5.464s5.464-2.445,5.464-5.464
	S35.806,57.377,32.787,57.377z M2.732,38.251C1.229,38.251,0,39.481,0,40.984c0,1.502,1.229,2.732,2.732,2.732H24.59
	c1.502,0,2.732-1.229,2.732-2.732c0-1.503-1.229-2.732-2.732-2.732H2.732z M8.197,27.323c-1.502,0-2.732,1.229-2.732,2.732
	s1.23,2.732,2.732,2.732h21.858c1.502,0,2.732-1.229,2.732-2.732s-1.23-2.732-2.732-2.732H8.197z M25.273,49.126
	c0,0-0.027,0.003-0.027-0.025c-0.027,0-0.024-0.002-0.052,0.025H25.273z M5.464,0C3.962-0.027,2.705,1.175,2.705,2.705
	c-0.027,1.503,1.177,2.732,2.68,2.76h5.219c0.601,0,1.115,0.38,1.306,0.98l4.538,15.413h13.606c4.508,0,8.196,3.688,8.196,8.196
	c0,3.771-2.57,6.97-6.068,7.899c0.382,0.929,0.604,1.964,0.604,3.03c0,4.262-3.306,7.814-7.514,8.142
	c1.503,1.721,3.744,2.787,6.148,2.787h29.975c3.689,0,6.935-2.489,7.918-6.041l7.082-26.036c0.41-1.447-0.44-2.954-1.915-3.336
	c-0.219-0.082-0.465-0.106-0.71-0.106H20.519L17.155,4.888C16.282,1.992,13.609,0,10.604,0H5.464z"/>
</svg>
