<?xml version="1.0" encoding="utf-8"?>
<!-- Generator: Adobe Illustrator 15.0.0, SVG Export Plug-In . SVG Version: 6.00 Build 0)  -->
<!DOCTYPE svg PUBLIC "-//W3C//DTD SVG 1.1//EN" "http://www.w3.org/Graphics/SVG/1.1/DTD/svg11.dtd">
<svg version="1.1" id="Layer_1" xmlns:serif="http://www.serif.com/"
	 xmlns="http://www.w3.org/2000/svg" xmlns:xlink="http://www.w3.org/1999/xlink" x="0px" y="0px" width="30px" height="5.823px"
	 viewBox="0 12.102 30 5.823" enable-background="new 0 12.102 30 5.823" xml:space="preserve">
<g transform="matrix(0.16,0,0,0.159836,0,0)">
	<path fill="#FFFFFF" d="M18.628,94.708c0,2.798-0.83,5.157-2.502,7.069c-1.743,1.992-4.007,3-6.781,3c-2.78,0-5.038-1.008-6.781-3
		c-1.672-1.912-2.509-4.271-2.509-7.069c0-2.807,0.836-5.163,2.509-7.066c1.764-1.983,4.028-2.972,6.781-2.972
		c2.774,0,5.038,0.99,6.781,2.972C17.798,89.545,18.628,91.9,18.628,94.708z M13.107,94.708c0-1.268-0.302-2.337-0.909-3.205
		c-0.681-0.984-1.633-1.469-2.853-1.469s-2.173,0.486-2.853,1.469c-0.613,0.868-0.916,1.937-0.916,3.205
		c0,1.262,0.302,2.34,0.916,3.232c0.681,0.99,1.633,1.479,2.853,1.479s2.173-0.489,2.853-1.479
		C12.805,97.048,13.107,95.969,13.107,94.708z M38.589,94.708c0,2.615-0.754,4.9-2.264,6.849c-1.617,2.145-3.705,3.22-6.241,3.22
		c-1.788,0-3.308-0.519-4.547-1.552c0,0.238,0.024,0.813,0.079,1.729c0.052,0.929,0.076,1.674,0.076,2.273
		c0,3.281-0.977,4.918-2.93,4.918c-0.8,0-1.453-0.287-1.974-0.843c-0.516-0.568-0.772-1.253-0.772-2.053V87.898
		c0-0.779,0.262-1.451,0.79-2.019c0.528-0.562,1.184-0.843,1.962-0.843c1.175,0,2.032,0.583,2.576,1.754
		c1.154-1.411,2.734-2.12,4.733-2.12c2.542,0,4.623,1.057,6.247,3.177C37.83,89.808,38.589,92.093,38.589,94.708z M33.069,94.708
		c0-1.268-0.308-2.337-0.916-3.205c-0.681-0.984-1.633-1.469-2.853-1.469s-2.173,0.486-2.853,1.469
		c-0.607,0.868-0.909,1.937-0.909,3.205c0,1.262,0.302,2.34,0.909,3.232c0.681,0.99,1.633,1.479,2.853,1.479
		s2.173-0.489,2.853-1.479C32.761,97.048,33.069,95.969,33.069,94.708z M58.676,94.115c0,0.923-0.217,1.555-0.653,1.912
		c-0.436,0.351-1.117,0.528-2.036,0.528h-9.964c0,1.054,0.497,1.873,1.486,2.435c0.8,0.446,1.776,0.672,2.933,0.672
		c0.897,0,1.974-0.299,3.235-0.886c1.263-0.593,2.075-0.886,2.423-0.886c0.641,0,1.184,0.232,1.633,0.709
		c0.443,0.464,0.665,1.033,0.665,1.686c0,1.515-1.129,2.688-3.387,3.531c-1.721,0.635-3.473,0.959-5.261,0.959
		c-2.881,0-5.203-0.959-6.979-2.865s-2.667-4.301-2.667-7.203c0-2.762,0.925-5.117,2.771-7.084c1.843-1.97,4.135-2.954,6.87-2.954
		c2.542,0,4.666,0.932,6.372,2.795C57.819,89.325,58.676,91.546,58.676,94.115z M53.156,92.725c-0.024-0.843-0.415-1.61-1.169-2.303
		c-0.751-0.693-1.55-1.036-2.396-1.036c-0.873,0-1.685,0.342-2.435,1.036c-0.754,0.693-1.132,1.46-1.132,2.303H53.156z
		 M77.225,101.514c0,0.806-0.256,1.485-0.772,2.053c-0.522,0.562-1.175,0.849-1.974,0.849c-1.929,0-2.893-1.534-2.893-4.595
		c0-0.587,0.04-1.509,0.119-2.786c0.085-1.265,0.125-2.196,0.125-2.783c0-3.244-1.05-4.866-3.143-4.866s-3.134,1.622-3.134,4.866
		c0,0.587,0.031,1.518,0.092,2.783c0.067,1.277,0.098,2.2,0.098,2.786c0,3.061-0.949,4.595-2.85,4.595
		c-0.8,0-1.453-0.287-1.968-0.849c-0.522-0.568-0.778-1.246-0.778-2.053V87.895c0-0.803,0.256-1.482,0.778-2.028
		c0.516-0.556,1.175-0.831,1.974-0.831c1.321,0,2.237,0.583,2.753,1.754c0.891-1.411,2.469-2.12,4.727-2.12
		c2.094,0,3.757,0.556,4.98,1.659c1.248,1.182,1.868,2.807,1.868,4.873V101.514z M94.543,100.927c0,1.246-0.809,2.242-2.435,2.963
		c-1.288,0.587-2.686,0.892-4.102,0.886c-2.78,0-5.038-1.008-6.781-3c-1.669-1.912-2.509-4.271-2.509-7.069
		c0-2.807,0.851-5.178,2.563-7.118c1.709-1.949,3.946-2.92,6.726-2.92c1.605,0,2.985,0.238,4.135,0.709
		c1.602,0.632,2.402,1.622,2.402,2.969c0,0.681-0.211,1.283-0.632,1.802c-0.424,0.516-0.964,0.782-1.627,0.782
		c-0.449,0-1.096-0.153-1.941-0.449c-0.845-0.305-1.517-0.449-2.011-0.449c-1.315,0-2.341,0.467-3.073,1.405
		c-0.681,0.846-1.022,1.928-1.022,3.269c0,1.262,0.302,2.328,0.919,3.195c0.677,1.014,1.636,1.515,2.856,1.515
		c0.543,0,1.282-0.159,2.228-0.489c0.943-0.312,1.624-0.477,2.045-0.477c0.616,0,1.144,0.263,1.593,0.776
		C94.321,99.748,94.543,100.31,94.543,100.927z M114.612,101.514c0,0.806-0.256,1.485-0.769,2.053
		c-0.525,0.562-1.184,0.849-1.99,0.849c-1.196,0-2.057-0.587-2.57-1.76c-1.154,1.417-2.734,2.12-4.736,2.12
		c-2.557,0-4.657-1.075-6.287-3.22c-1.477-1.949-2.222-4.234-2.222-6.849s0.745-4.9,2.222-6.861c1.654-2.12,3.741-3.177,6.287-3.177
		c2.002,0,3.583,0.709,4.736,2.12c0.513-1.17,1.373-1.754,2.57-1.754c0.781,0,1.44,0.281,1.965,0.843
		c0.525,0.568,0.793,1.234,0.793,2.016V101.514z M109.094,94.708c0-1.268-0.305-2.337-0.916-3.205
		c-0.708-0.984-1.66-1.469-2.85-1.469c-1.227,0-2.173,0.486-2.85,1.469c-0.616,0.868-0.916,1.937-0.916,3.205
		c0,1.262,0.293,2.34,0.879,3.232c0.702,0.99,1.66,1.479,2.887,1.479c1.221,0,2.173-0.489,2.85-1.479
		C108.789,97.048,109.094,95.969,109.094,94.708z M128.699,87.529c0,1.182-0.574,1.995-1.727,2.438
		c-1.062,0.357-2.118,0.721-3.174,1.094c-1.154,0.663-1.727,1.891-1.727,3.675v6.779c0,0.806-0.269,1.485-0.781,2.053
		c-0.525,0.562-1.184,0.849-1.984,0.849s-1.465-0.287-1.984-0.849c-0.519-0.568-0.775-1.246-0.775-2.053V87.895
		c0-0.803,0.256-1.482,0.775-2.028c0.519-0.556,1.184-0.831,1.978-0.831c1.318,0,2.234,0.583,2.753,1.754
		c1.184-1.411,2.448-2.12,3.815-2.12c0.781,0,1.453,0.284,2.002,0.846C128.418,86.084,128.699,86.756,128.699,87.529z
		 M143.097,87.779c0,1.228-0.482,2.001-1.434,2.334c-0.476,0.165-1.459,0.25-2.954,0.25v11.15c0,0.806-0.269,1.485-0.781,2.053
		c-0.525,0.562-1.184,0.849-1.978,0.849c-0.781,0-1.44-0.287-1.971-0.849c-0.531-0.568-0.787-1.246-0.787-2.053v-11.15
		c-1.141,0-1.965-0.147-2.49-0.431c-0.708-0.394-1.062-1.115-1.062-2.154c0-1.036,0.366-1.741,1.099-2.12
		c0.494-0.275,1.312-0.422,2.454-0.422v-2.361c0-2.78,0.916-4.167,2.759-4.167c1.831,0,2.759,1.387,2.759,4.167v2.361
		c1.495,0,2.478,0.086,2.954,0.25C142.615,85.818,143.097,86.585,143.097,87.779z M187.445,84.428
		c-0.018-1.695-3.143-2.465-11.255-2.465c-19.025,0-23.846-0.813-29.01-6.247c2.173,3.263,3.357,9.385,23.462,9.079
		c20.984-0.321,8.185,5.41,4.462,11.887c6.714-5.994,12.323-9.944,12.341-12.229V84.428z M160.718,101.832
		c0,1.576-1.3,2.872-2.875,2.872c-1.593,0-2.881-1.289-2.881-2.872c0,0,0,0,0-0.006c0-1.576,1.3-2.872,2.875-2.872c0,0,0,0,0.006,0
		C159.424,98.954,160.718,100.237,160.718,101.832z M173.816,101.832c0,1.576-1.294,2.872-2.875,2.872
		c-1.593,0-2.875-1.289-2.875-2.872c0,0,0,0,0-0.006c0-1.576,1.294-2.872,2.875-2.872l0,0
		C172.528,98.954,173.816,100.237,173.816,101.832z"/>
</g>
</svg>
