<?xml version="1.0" encoding="utf-8"?>
<!-- Generator: Adobe Illustrator 15.0.0, SVG Export Plug-In . SVG Version: 6.00 Build 0)  -->
<!DOCTYPE svg PUBLIC "-//W3C//DTD SVG 1.1//EN" "http://www.w3.org/Graphics/SVG/1.1/DTD/svg11.dtd">
<svg version="1.1" id="Layer_1" xmlns="http://www.w3.org/2000/svg" xmlns:xlink="http://www.w3.org/1999/xlink" x="0px" y="0px"
	 width="23px" height="24px" viewBox="0 0 23 24" enable-background="new 0 0 23 24" xml:space="preserve">
<path fill="#FFFFFF" d="M11.733,0.425C5.339,0.425,0.154,5.607,0.154,12c0,6.392,5.185,11.575,11.579,11.575
	c9.656,0,11.831-8.965,10.925-13.504h-1.283h-2.188h-7.458v3.858h7.463c-0.857,3.325-3.87,5.788-7.463,5.788
	c-4.262,0-7.717-3.455-7.717-7.717c0-4.263,3.455-7.717,7.717-7.717c1.938,0,3.703,0.719,5.058,1.899l2.741-2.739
	C17.47,1.567,14.736,0.425,11.733,0.425z"/>
</svg>
