<?xml version="1.0" encoding="utf-8"?>
<!-- Generator: Adobe Illustrator 15.0.0, SVG Export Plug-In . SVG Version: 6.00 Build 0)  -->
<!DOCTYPE svg PUBLIC "-//W3C//DTD SVG 1.1//EN" "http://www.w3.org/Graphics/SVG/1.1/DTD/svg11.dtd">
<svg version="1.1" id="Layer_1" xmlns="http://www.w3.org/2000/svg" xmlns:xlink="http://www.w3.org/1999/xlink" x="0px" y="0px"
	 width="23px" height="24px" viewBox="0 0 23 24" enable-background="new 0 0 23 24" xml:space="preserve">
<path fill="#FFFFFF" d="M11.12,0.721C5.398,0.908,0.582,5.537,0.186,11.25c-0.419,6.045,3.903,11.152,9.619,12.01v-8.197H7.975
	c-0.824,0-1.491-0.667-1.491-1.49s0.667-1.49,1.491-1.49h1.829v-1.984c0-3.285,1.602-4.727,4.331-4.727
	c0.405,0,0.751,0.009,1.045,0.023c0.721,0.036,1.28,0.636,1.28,1.359c0,0.752-0.609,1.361-1.361,1.361h-0.501
	c-1.159,0-1.563,1.099-1.563,2.337v1.63h2.12c0.671,0,1.183,0.598,1.082,1.26l-0.123,0.795c-0.083,0.533-0.541,0.927-1.081,0.927
	h-1.999v8.22c5.538-0.752,9.809-5.487,9.809-11.228C22.842,5.667,17.557,0.513,11.12,0.721z"/>
</svg>
