<?xml version="1.0" encoding="utf-8"?>
<!-- Generator: Adobe Illustrator 15.0.0, SVG Export Plug-In . SVG Version: 6.00 Build 0)  -->
<!DOCTYPE svg PUBLIC "-//W3C//DTD SVG 1.1//EN" "http://www.w3.org/Graphics/SVG/1.1/DTD/svg11.dtd">
<svg version="1.1" id="Layer_1" xmlns="http://www.w3.org/2000/svg" xmlns:xlink="http://www.w3.org/1999/xlink" x="0px" y="0px"
	 width="23px" height="24px" viewBox="0 0 23 24" enable-background="new 0 0 23 24" xml:space="preserve">
<path fill="#FFFFFF" d="M11.5,8.25c-2.071,0-3.75,1.678-3.75,3.75c0,2.071,1.679,3.75,3.75,3.75s3.75-1.679,3.75-3.75
	C15.25,9.928,13.571,8.25,11.5,8.25z M11.5,6.375c3.102,0,5.625,2.522,5.625,5.625c0,3.102-2.523,5.625-5.625,5.625
	S5.875,15.102,5.875,12C5.875,8.897,8.398,6.375,11.5,6.375z M18.063,4.5C18.58,4.5,19,4.919,19,5.438
	c0,0.517-0.42,0.938-0.938,0.938s-0.938-0.42-0.938-0.938C17.125,4.919,17.545,4.5,18.063,4.5z M6.811,0.75
	c-3.618,0-6.561,2.945-6.561,6.564v9.375c0,3.617,2.945,6.561,6.564,6.561h9.375c3.618,0,6.561-2.946,6.561-6.565V7.31
	c0-3.617-2.946-6.56-6.564-6.56H6.811z"/>
</svg>
