<?xml version="1.0" encoding="utf-8"?>
<!-- Generator: Adobe Illustrator 15.0.0, SVG Export Plug-In . SVG Version: 6.00 Build 0)  -->
<!DOCTYPE svg PUBLIC "-//W3C//DTD SVG 1.1//EN" "http://www.w3.org/Graphics/SVG/1.1/DTD/svg11.dtd">
<svg version="1.1" id="Layer_1" xmlns="http://www.w3.org/2000/svg" xmlns:xlink="http://www.w3.org/1999/xlink" x="0px" y="0px"
	 width="23px" height="24px" viewBox="0 0 23 24" enable-background="new 0 0 23 24" xml:space="preserve">
<path fill="#FFFFFF" d="M18.111,16.722h-2.668v-4.129c0-1.142-0.711-1.405-0.978-1.405s-1.155,0.175-1.155,1.405v4.129h-2.755V9.167
	h2.756v1.053c0.354-0.614,1.066-1.053,2.399-1.053c1.334,0,2.4,1.053,2.4,3.426V16.722z M8.667,16.722H5.833V9.167h2.833V16.722z
	 M7.246,5.77c0.795,0,1.325,0.53,1.325,1.236s-0.53,1.236-1.413,1.236c-0.795,0-1.325-0.53-1.325-1.236S6.363,5.77,7.246,5.77z
	 M11.5,0.667C5.241,0.667,0.167,5.74,0.167,12c0,6.259,5.074,11.333,11.333,11.333S22.833,18.259,22.833,12
	C22.833,5.74,17.759,0.667,11.5,0.667z"/>
</svg>
