<?xml version="1.0" encoding="utf-8"?>
<!-- Generator: Adobe Illustrator 15.0.0, SVG Export Plug-In . SVG Version: 6.00 Build 0)  -->
<!DOCTYPE svg PUBLIC "-//W3C//DTD SVG 1.1//EN" "http://www.w3.org/Graphics/SVG/1.1/DTD/svg11.dtd">
<svg version="1.1" id="Layer_1" xmlns="http://www.w3.org/2000/svg" xmlns:xlink="http://www.w3.org/1999/xlink" x="0px" y="0px"
	 width="23px" height="28.232px" viewBox="0 0 23 28.232" enable-background="new 0 0 23 28.232" xml:space="preserve">
<path fill="#FFFFFF" d="M11.5,16.133c-1.479,0-2.689,1.21-2.689,2.688s1.21,2.688,2.689,2.688c1.479,0,2.688-1.21,2.688-2.688
	S12.979,16.133,11.5,16.133z M3.434,12.099h16.133v13.444H3.434V12.099z M11.5,2.688c3.06,0,5.377,2.317,5.377,5.377V9.41H6.123
	V8.065C6.123,5.006,8.44,2.688,11.5,2.688z M11.5,0C7.032,0,3.434,3.597,3.434,8.065V9.41c-1.47,0-2.689,1.22-2.689,2.688v13.444
	c0,1.47,1.22,2.689,2.689,2.689h16.133c1.469,0,2.688-1.22,2.688-2.689V12.099c0-1.469-1.22-2.688-2.688-2.688V8.065
	C19.567,3.597,15.969,0,11.5,0z"/>
</svg>
