<?xml version="1.0" encoding="utf-8"?>
<!-- Generator: Adobe Illustrator 15.0.0, SVG Export Plug-In . SVG Version: 6.00 Build 0)  -->
<!DOCTYPE svg PUBLIC "-//W3C//DTD SVG 1.1//EN" "http://www.w3.org/Graphics/SVG/1.1/DTD/svg11.dtd">
<svg version="1.1" id="Layer_1" xmlns="http://www.w3.org/2000/svg" xmlns:xlink="http://www.w3.org/1999/xlink" x="0px" y="0px"
	 width="30px" height="8.541px" viewBox="0 10.721 30 8.541" enable-background="new 0 10.721 30 8.541" xml:space="preserve">
<title>Logos</title>
<g>
	<path id="s" fill="#FFFFFF" d="M10.373,15.47c-0.259-0.14-0.391-0.257-0.391-0.424c0-0.212,0.185-0.34,0.472-0.34
		c0.219,0.004,0.436,0.052,0.637,0.14l0.236-0.722c0,0-0.212-0.17-0.85-0.17c-0.888,0-1.504,0.51-1.504,1.223
		c0,0.406,0.289,0.715,0.671,0.936c0.31,0.177,0.425,0.303,0.425,0.486c0,0.186-0.155,0.347-0.442,0.347
		c-0.291-0.009-0.575-0.081-0.834-0.212l-0.249,0.722c0.301,0.169,0.642,0.253,0.987,0.244c0.916,0,1.569-0.45,1.569-1.261
		C11.101,16.002,10.77,15.699,10.373,15.47z"/>
	<path id="h" fill="#FFFFFF" d="M14.017,13.954c-0.422,0.004-0.819,0.203-1.077,0.537h-0.015l0.391-2.041h-1.021l-0.988,5.187h1.011
		l0.34-1.775c0.131-0.669,0.478-1.083,0.803-1.083c0.227,0,0.316,0.155,0.316,0.375c0,0.151-0.015,0.302-0.045,0.45l-0.382,2.033
		h1.018l0.397-2.098c0.044-0.22,0.069-0.442,0.074-0.666C14.845,14.302,14.541,13.954,14.017,13.954z"/>
	<path id="o" fill="#FFFFFF" d="M17.143,13.954c-1.223,0-2.032,1.104-2.032,2.336c0,0.79,0.486,1.423,1.399,1.423
		c1.2,0,2.012-1.076,2.012-2.336C18.521,14.646,18.094,13.954,17.143,13.954z M16.642,16.928c-0.347,0.002-0.501-0.289-0.501-0.661
		c0-0.581,0.301-1.533,0.85-1.533c0.361,0,0.479,0.31,0.479,0.612c0.013,0.626-0.291,1.584-0.828,1.584V16.928z"/>
	<path id="p" fill="#FFFFFF" d="M21.123,13.954c-0.434,0.022-0.832,0.245-1.077,0.603h-0.015l0.06-0.546h-0.898
		c-0.045,0.37-0.126,0.93-0.212,1.349l-0.703,3.72h1.018l0.279-1.501h0.021c0.184,0.095,0.39,0.14,0.597,0.132
		c1.194,0,1.976-1.223,1.976-2.461C22.168,14.566,21.875,13.954,21.123,13.954z M20.15,16.944c-0.154,0.005-0.307-0.048-0.425-0.146
		l0.169-0.952c0.117-0.637,0.449-1.061,0.804-1.061c0.308,0,0.405,0.287,0.405,0.561C21.107,16.002,20.717,16.944,20.15,16.944z"/>
	<path id="dot" fill="#FFFFFF" d="M23.62,12.495c-0.319-0.001-0.581,0.257-0.582,0.578c0,0.003,0,0.007,0.001,0.011
		c-0.024,0.257,0.165,0.484,0.422,0.508c0.019,0.001,0.037,0.002,0.055,0.001h0.016c0.317,0.012,0.584-0.236,0.596-0.553
		c0.001-0.012,0.001-0.025,0.001-0.037c0.015-0.266-0.189-0.493-0.455-0.507C23.655,12.494,23.638,12.494,23.62,12.495z"/>
	<polygon id="i" fill="#FFFFFF" points="22.197,17.637 23.215,17.637 23.907,14.035 22.883,14.035 	"/>
	<path id="f" fill="#FFFFFF" d="M26.494,14.026h-0.707l0.035-0.168c0.06-0.346,0.266-0.656,0.604-0.656
		c0.11,0,0.22,0.017,0.324,0.051l0.2-0.796c-0.176-0.067-0.364-0.097-0.552-0.087c-0.361-0.01-0.715,0.11-0.996,0.338
		c-0.322,0.305-0.531,0.711-0.588,1.151l-0.03,0.168h-0.472l-0.148,0.767h0.471l-0.537,2.844h1.018l0.537-2.844h0.701L26.494,14.026
		z"/>
	<path id="y" fill="#FFFFFF" d="M28.938,14.035c0,0-0.637,1.602-0.919,2.477h-0.015c-0.02-0.283-0.251-2.477-0.251-2.477h-1.062
		l0.611,3.309c0.016,0.057,0.008,0.117-0.023,0.168c-0.131,0.245-0.32,0.455-0.552,0.611c-0.177,0.123-0.37,0.221-0.573,0.289
		l0.277,0.85c0.373-0.098,0.717-0.287,0.996-0.553c0.463-0.425,0.893-1.104,1.334-2.018l1.244-2.667L28.938,14.035z"/>
	<path fill="#FFFFFF" d="M5.021,11.699l-0.25,0.076c-0.03-0.101-0.07-0.199-0.119-0.293c-0.128-0.302-0.419-0.503-0.748-0.516l0,0
		H3.84l-0.028-0.032c-0.133-0.145-0.324-0.223-0.52-0.212c-0.406,0.011-0.807,0.302-1.134,0.82
		c-0.229,0.361-0.385,0.764-0.458,1.185l-0.792,0.246c-0.233,0.072-0.24,0.081-0.272,0.3c-0.023,0.167-0.637,4.903-0.637,4.903
		l5.082,0.879v-7.367C5.06,11.689,5.04,11.693,5.021,11.699z M3.846,12.062l-0.85,0.265c0.074-0.309,0.219-0.596,0.425-0.839
		c0.08-0.091,0.18-0.164,0.291-0.212C3.812,11.525,3.857,11.793,3.846,12.062z M3.296,11c0.086-0.004,0.171,0.018,0.244,0.063
		c-0.118,0.063-0.224,0.146-0.314,0.244c-0.273,0.318-0.457,0.703-0.531,1.115L1.99,12.635c0.134-0.648,0.684-1.621,1.306-1.64V11z
		 M2.51,14.697c0.028,0.425,1.164,0.527,1.229,1.537c0.049,0.799-0.425,1.343-1.104,1.385c-0.466,0.047-0.929-0.108-1.274-0.424
		l0.172-0.737c0,0,0.455,0.342,0.818,0.321c0.177-0.001,0.32-0.145,0.32-0.322c0-0.01,0-0.021-0.001-0.031
		c-0.036-0.564-0.962-0.531-1.019-1.458c-0.051-0.78,0.46-1.57,1.593-1.64c0.222-0.026,0.447,0.002,0.656,0.083l-0.257,0.966
		c-0.201-0.083-0.419-0.121-0.637-0.108c-0.495,0.034-0.499,0.344-0.495,0.425V14.697z M4.116,11.979
		c0-0.25-0.041-0.499-0.123-0.735c0.306,0.058,0.457,0.403,0.521,0.612L4.116,11.979z"/>
	<path fill="#FFFFFF" d="M5.25,19.036l2.109-0.524l-0.916-6.18c-0.006-0.036-0.036-0.064-0.072-0.068l-0.624-0.011L5.25,11.769
		V19.036z"/>
</g>
</svg>
