<?xml version="1.0" encoding="utf-8"?>
<!-- Generator: Adobe Illustrator 15.0.0, SVG Export Plug-In . SVG Version: 6.00 Build 0)  -->
<!DOCTYPE svg PUBLIC "-//W3C//DTD SVG 1.1//EN" "http://www.w3.org/Graphics/SVG/1.1/DTD/svg11.dtd">
<svg version="1.1" id="Layer_1" xmlns="http://www.w3.org/2000/svg" xmlns:xlink="http://www.w3.org/1999/xlink" x="0px" y="0px"
	 width="23px" height="28.232px" viewBox="0 0 23 28.232" enable-background="new 0 0 23 28.232" xml:space="preserve">
<path fill="#FFFFFF" d="M11,1.116c-5,0-11,4-11,11v4v1c0,1.517,0.664,2.597,1.343,3.188c0.413,0.362,0.586,0.368,0.862,0.477
	c0.363,0.939,2.687,6.335,8.795,6.335c0.034,0,0.066-0.005,0.101-0.005h0.007c2.291-0.025,4.117-0.866,5.516-1.995H11
	c-5.332,0-7.051-5.316-7.051-5.316l-0.174-0.522l-0.533-0.133c0,0-0.261-0.061-0.584-0.343C2.336,18.519,2,18.099,2,17.116v-1h1
	c0-7,10-2,13-9c0,0,3,2.76,3,9v3h0.818c-0.409,1.167-1.503,2-2.818,2h-4.092c-0.206-0.581-0.756-1-1.408-1h-1
	c-0.827,0-1.5,0.672-1.5,1.5c0,0.827,0.673,1.5,1.5,1.5h1c0.09,0,0.178-0.013,0.263-0.027c0.078,0.018,0.157,0.027,0.237,0.027h5
	c2.491,0,4.567-1.851,4.937-4.242C22.566,18.537,23,17.881,23,17.116v-1c0-0.739-0.403-1.377-1-1.724v-2.276c0-4-2-9-6-9
	C16,3.116,15,1.116,11,1.116z"/>
</svg>
