<?xml version="1.0" encoding="utf-8"?>
<!-- Generator: Adobe Illustrator 15.0.0, SVG Export Plug-In . SVG Version: 6.00 Build 0)  -->
<!DOCTYPE svg PUBLIC "-//W3C//DTD SVG 1.1//EN" "http://www.w3.org/Graphics/SVG/1.1/DTD/svg11.dtd">
<svg version="1.1"
	 id="Capa_1" xmlns:inkscape="http://www.inkscape.org/namespaces/inkscape" xmlns:sodipodi="http://sodipodi.sourceforge.net/DTD/sodipodi-0.dtd" xmlns:svg="http://www.w3.org/2000/svg" sodipodi:docname="Logo de Tiendanube.svg" inkscape:version="1.1 (c68e22c387, 2021-05-23)"
	 xmlns="http://www.w3.org/2000/svg" xmlns:xlink="http://www.w3.org/1999/xlink" x="0px" y="0px" width="1619.968px"
	 height="272.57px" viewBox="0 0 1619.968 272.57" enable-background="new 0 0 1619.968 272.57" xml:space="preserve">
<sodipodi:namedview  inkscape:pagecheckerboard="0" id="namedview45" borderopacity="1.0" bordercolor="#666666" showgrid="false" inkscape:cx="992.166" inkscape:zoom="0.37140962" inkscape:cy="-205.97205" fit-margin-top="0" fit-margin-left="0" pagecolor="#ffffff" inkscape:window-maximized="1" inkscape:current-layer="Capa_1" inkscape:pageopacity="0.0" inkscape:window-x="1912" inkscape:window-height="1017" inkscape:window-y="-8" fit-margin-right="0" fit-margin-bottom="0" inkscape:window-width="1920" inkscape:pageshadow="2">
	</sodipodi:namedview>
<g id="g42" transform="translate(499.91269,-273.51633)">
	<g id="g40">
		<path id="path4" fill="#FFFFFF" d="M-258.818,273.533c-32.753-0.54-63.339,11.888-91.217,35.992
			c-2.494,2.156-4.319,2.663-7.412,1.469c-16.804-6.488-34.226-8.335-52.02-5.762c-56.83,8.22-96.447,60.187-89.697,117.494
			c7.95,67.496,77.066,110.019,140.818,86.516c3.597-1.325,5.779-0.99,8.711,1.654c25.664,23.149,55.958,34.623,90.445,35.125
			c6.38,0.284,12.695-0.397,18.953-1.277c74.695-10.509,126.886-79.825,115.252-154.637c-8.175-52.571-38.043-89.541-87.879-107.678
			C-228.595,276.704-243.931,273.779-258.818,273.533z M-257.592,304.265c48.492,0.865,94.393,35.427,102.788,89.443
			c9.383,60.37-34.065,116.107-94.709,121.496c-59.848,5.317-111.997-40.171-114.596-100.145c-0.176-4.063-1.167-5.413-5.338-5.195
			c-6.979,0.364-14,0.295-20.988,0.02c-3.583-0.142-4.438,0.956-4.273,4.479c1.08,23.036,7.118,44.576,18.789,64.504
			c0.654,1.118,1.233,2.281,1.871,3.465c-38.125,12.638-81.891-11.907-92.936-51.875c-11.525-41.704,13.703-84.271,55.785-94.125
			c41.494-9.717,82.888,17.678,90.891,60.191c0.553,2.94,1.138,5.966,1.006,8.92c-0.165,3.684,0.918,4.849,4.721,4.656
			c6.981-0.35,14.01-0.405,20.984,0.014c4.293,0.259,4.833-1.471,4.615-5.07c-1.724-28.546-12.624-52.868-33.629-72.338
			c-3.787-3.51-2.931-4.771,0.568-7.395C-302.21,310.442-279.633,303.872-257.592,304.265z"/>
		<path id="path6" fill="#FFFFFF" d="M429.792,319.136c-2.686,0.117-3.697,1.217-3.592,4.637c0.291,9.487,0.096,18.991,0.096,28.486
			v28.629c-18.846-23.365-54.535-24.487-76.598-6.363c-27.148,22.3-30.939,66.612-8.021,93.982
			c21.512,25.692,62.461,27.649,83.344,2.094c0.135-0.165,0.539-0.114,1.275-0.246c0,4.005,0.143,7.947-0.051,11.873
			c-0.139,2.792,0.738,3.808,3.643,3.719c6.49-0.196,13.004-0.321,19.484,0.031c4.234,0.231,5.662-0.722,5.596-5.359
			c-0.303-20.323-0.131-40.65-0.131-60.977c0-31.988-0.049-63.977,0.07-95.965c0.012-3.389-0.744-4.699-4.375-4.537
			c-6.486,0.291-13.002,0.283-19.486,0.002C430.591,319.123,430.175,319.12,429.792,319.136L429.792,319.136z M390.849,387.931
			c20.551-0.185,36.582,16.024,36.783,37.191c0.193,20.652-15.855,37.556-35.859,37.76c-19.979,0.203-36.209-16.262-36.555-37.084
			C354.87,405.103,370.858,388.111,390.849,387.931z"/>
		<path id="path8" fill="#FFFFFF" d="M864.727,319.103c-2.979,0.116-3.885,1.443-3.859,5.141
			c0.193,28.991,0.104,57.985,0.104,86.977c0,23.494,0.049,46.987-0.064,70.479c-0.016,3.095,0.539,4.421,4.029,4.271
			c6.818-0.292,13.664-0.255,20.488-0.011c3.186,0.114,4.037-0.991,3.854-3.982c-0.23-3.713-0.055-7.45-0.055-11.443
			c0.904,0.424,1.289,0.482,1.461,0.705c16.846,21.846,56.264,24.813,80.059,0.594c21.082-21.461,24.479-58.296,7.494-83.993
			c-13.07-19.77-35.664-29.351-58.918-24.824c-11.852,2.306-21.57,8.355-30.096,18.816c0-2.72,0-3.85,0.002-4.982
			c0-17.828-0.08-35.658,0.072-53.484c0.027-3.272-0.85-4.349-4.178-4.217c-6.322,0.251-12.674,0.341-18.984-0.023
			C865.622,319.095,865.151,319.087,864.727,319.103L864.727,319.103z M923.675,387.931c20.604-0.184,36.506,15.964,36.637,37.207
			c0.125,20.869-15.676,37.561-35.734,37.744c-20.006,0.185-36.305-16.374-36.504-37.092
			C887.87,404.921,903.679,388.109,923.675,387.931z"/>
		<path id="path10" fill="#FFFFFF" d="M125.004,361.668c-2.955-0.006-5.949,0.214-8.965,0.672
			c-24.798,3.769-42.188,17.446-49.701,41.293c-7.869,24.976-4.429,48.72,14.793,67.959c15.824,15.839,35.818,19.642,57.287,16.039
			c16.935-2.843,30.107-11.837,39.43-26.393c1.729-2.7,2.216-4.255-1.504-5.656c-4.647-1.751-9.218-3.892-13.469-6.449
			c-4.528-2.727-7.05-2.151-10.322,2.369c-8.549,11.81-20.894,15.087-34.604,12.088c-13.34-2.918-22.371-11.104-26.098-24.678
			c-1.043-3.799-0.563-5.104,3.805-5.016c13.818,0.277,27.646,0.102,41.471,0.102c14.322,0,28.646-0.079,42.967,0.065
			c2.936,0.03,4.125-0.561,4.021-3.777c-0.193-5.986-0.109-11.951-1.053-17.918C178.389,382.817,153.561,361.724,125.004,361.668
			L125.004,361.668z M123.475,385.322c14.536-0.171,27.21,9.038,31.246,22.535c1.104,3.695,1.13,5.604-3.834,5.375
			c-9.121-0.421-18.277-0.119-27.418-0.119c-9.474,0-18.948-0.108-28.418,0.063c-2.968,0.054-3.711-0.72-2.986-3.615
			C95.334,396.47,109.476,385.486,123.475,385.322z"/>
		<path id="path12" fill="#FFFFFF" d="M1058.134,361.593c-11.32,0.269-22.852,3.775-33.301,11.078
			c-21.9,15.306-31.381,44.127-23.715,72.096c6.977,25.455,28.055,42.362,56.131,43.885c23.775,1.291,43.338-7.018,56.648-27.717
			c1.768-2.747,1.471-4.015-1.617-5.283c-4.908-2.019-9.846-4.139-14.373-6.875c-4.186-2.532-6.25-1.657-9.049,2.23
			c-8.766,12.181-21.238,15.702-35.359,12.488c-13.547-3.083-22.486-11.552-25.982-25.393c-0.867-3.438-0.061-4.217,3.371-4.176
			c14.156,0.169,28.313,0.07,42.469,0.07c14.158,0,28.314-0.103,42.465,0.078c3.26,0.04,4.34-0.866,4.225-4.137
			c-0.189-5.487-0.172-10.95-0.941-16.43c-4.508-32.16-32.045-52.604-60.973-51.916H1058.134z M1060.013,385.334
			c14.42-0.05,27.789,10.146,30.883,23.746c0.592,2.604,0.813,4.167-2.959,4.127c-19.441-0.202-38.887-0.093-58.328-0.107
			c-0.646-0.002-1.295-0.161-1.939-0.248c1.678-14.55,15.428-26.709,30.945-27.48
			C1059.081,385.348,1059.546,385.336,1060.013,385.334z"/>
		<path id="path14" fill="#FFFFFF" d="M527.749,361.777c-2.576-0.014-5.164,0.118-7.754,0.383
			c-20.236,2.073-35.535,11.324-43.252,31.092c-1.184,3.031-0.535,4.079,2.48,4.734c5.031,1.095,10.086,2.238,14.957,3.879
			c4.992,1.682,7.826,1.443,10.375-4.338c4.512-10.239,16.211-14.369,28.135-11.324c9.475,2.421,14.529,9.922,14.402,20.682
			c-0.035,2.939-1.219,3.647-3.707,3.936c-8.6,0.995-17.186,2.102-25.773,3.193c-10.971,1.394-21.697,3.675-31.051,9.98
			c-12.6,8.492-16.604,20.804-14.594,35.26c1.869,13.468,9.926,22.189,22.49,26.82c16.09,5.933,39.607,2.827,53.656-14.836
			c0,4.427,0.143,7.54-0.045,10.633c-0.172,2.869,0.506,4.22,3.803,4.09c6.49-0.257,13-0.212,19.492-0.014
			c2.895,0.089,3.631-0.89,3.619-3.688c-0.104-25.995,0.297-52.001-0.211-77.988c-0.338-17.288-7.746-30.838-24.395-37.961
			c-7.283-3.117-14.902-4.489-22.631-4.533H527.749z M545.046,431.916c2.213,0.096,2.188,1.534,2.113,6.201
			c0.227,22.582-22.563,30.731-36.967,26.686c-5.297-1.485-9.191-4.837-10.109-10.557c-0.986-6.147,1.166-11.095,6.473-14.566
			c6.701-4.387,14.512-4.407,22.016-5.615c3.938-0.635,7.92-1.006,11.861-1.623C542.569,432.106,544.038,431.873,545.046,431.916z"
			/>
		<path id="path16" fill="#FFFFFF" d="M227.998,380.55c11.725-15.854,26.954-20.385,44.395-18.201
			c21.906,2.741,36.217,17.887,38.561,40.056c0.525,4.959,0.77,9.97,0.789,14.958c0.084,21.333-0.025,42.667,0.102,63.999
			c0.02,3.277-0.533,4.781-4.287,4.611c-6.819-0.311-13.67-0.273-20.493-0.008c-3.381,0.131-4.121-1.026-4.101-4.22
			c0.136-20.499,0.08-40.999,0.057-61.499c-0.003-2.662,0.062-5.359-0.312-7.984c-2.151-15.197-10.796-23.316-25.311-23.943
			c-13.969-0.604-25.188,8.551-28.293,23.154c-0.797,3.752-1.145,7.553-1.133,11.41c0.057,19.5-0.093,39.002,0.127,58.498
			c0.043,3.869-1.1,4.754-4.744,4.59c-6.653-0.301-13.338-0.28-19.993-0.006c-3.428,0.144-4.137-1.098-4.129-4.263
			c0.094-37.5,0.109-75-0.019-112.499c-0.014-3.56,1.045-4.518,4.486-4.393c6.99,0.252,13.999,0.188,20.995,0.018
			c2.627-0.063,3.514,0.705,3.354,3.356C227.836,371.828,227.998,375.494,227.998,380.55z"/>
		<path id="path18" fill="#FFFFFF" d="M626.292,379.281c2.266-0.56,2.818-2.304,3.854-3.474
			c17.836-20.138,54.756-18.452,70.457,3.315c6.449,8.94,9.201,19.218,9.313,30.046c0.246,24.319,0.039,48.643,0.191,72.963
			c0.02,3.186-0.977,3.914-3.971,3.82c-6.824-0.215-13.668-0.281-20.484,0.018c-3.697,0.164-4.363-1.244-4.342-4.578
			c0.137-20.322,0.086-40.646,0.053-60.971c-0.006-4.156-0.088-8.3-1.104-12.398c-2.563-10.343-8.607-17.153-19.332-19.032
			c-11.809-2.068-21.832,0.926-28.791,11.283c-4.635,6.898-5.797,14.793-5.824,22.883c-0.061,19.157-0.189,38.317,0.105,57.47
			c0.07,4.6-1.344,5.6-5.592,5.354c-6.309-0.363-12.658-0.22-18.982-0.038c-2.855,0.082-4.094-0.419-4.082-3.737
			c0.119-37.979,0.098-75.962,0.027-113.942c-0.004-2.532,0.586-3.5,3.303-3.435c7.324,0.177,14.66,0.179,21.984,0
			c2.773-0.067,3.371,1.027,3.258,3.496C626.171,371.907,626.292,375.505,626.292,379.281L626.292,379.281z"/>
		<path id="path20" fill="#FFFFFF" d="M838.069,406.981c-0.504,10.876,1.197,24.27-0.793,37.494
			c-4.191,27.859-21.498,43.115-49.73,44.33c-8.217,0.354-16.313-0.573-24.131-3.174c-18.77-6.24-31.441-22.517-32.186-43.816
			c-0.861-24.629-0.346-49.304-0.477-73.958c-0.012-1.979,0.348-3.046,2.691-3.011c7.662,0.115,15.33,0.168,22.988-0.011
			c3.814-0.09,2.754,2.505,2.758,4.403c0.049,19.991-0.023,39.983,0.076,59.976c0.02,4.146,0.219,8.365,1.01,12.422
			c2.695,13.842,11.965,21.086,25.779,20.526c12.471-0.503,21.219-9.144,22.861-22.791c0.438-3.627,0.523-7.313,0.533-10.973
			c0.049-19.825,0.066-39.65-0.023-59.475c-0.014-2.794,0.35-4.242,3.723-4.118c7.154,0.264,14.328,0.227,21.486,0.011
			c3.014-0.091,3.51,1.095,3.482,3.748C838.003,380.56,838.069,392.555,838.069,406.981L838.069,406.981z"/>
		<path id="path22" fill="#FFFFFF" d="M-18.222,437.242c0,14.819-0.082,29.642,0.064,44.459c0.032,3.17-0.705,4.396-4.119,4.263
			c-6.817-0.266-13.661-0.3-20.475,0.01c-3.692,0.168-4.303-1.213-4.287-4.534c0.122-29.14-0.029-58.281,0.18-87.42
			c0.031-4.257-1.135-5.468-5.229-5.065c-3.793,0.372-7.656-0.048-11.479,0.123c-2.604,0.116-3.915-0.39-3.792-3.449
			c0.233-5.819,0.2-11.658,0.01-17.479c-0.089-2.719,0.903-3.424,3.448-3.309c3.988,0.182,8.025-0.283,11.978,0.136
			c4.405,0.468,5.188-1.306,5.052-5.288c-0.305-8.814,0.021-17.649-0.157-26.471c-0.063-3.067,0.501-4.413,4.001-4.271
			c7.147,0.291,14.319,0.189,21.476,0.034c2.642-0.057,3.421,0.813,3.385,3.417c-0.136,9.323,0.154,18.656-0.151,27.971
			c-0.128,3.894,1.162,4.695,4.783,4.626c5.081-0.098,12.07-2.32,14.751,0.913c2.564,3.096,0.81,9.822,0.843,14.954
			c0.053,8.172,0.014,8.172-8.395,8.172c-11.884,0-11.884,0-11.884,11.743C-18.222,412.93-18.222,425.087-18.222,437.242
			L-18.222,437.242z"/>
		<path id="path24" fill="#FFFFFF" d="M46.163,425.469c0,18.482-0.092,36.967,0.075,55.446c0.033,3.685-0.586,5.324-4.793,5.074
			c-6.637-0.396-13.315-0.205-19.974-0.056c-2.648,0.06-3.832-0.478-3.825-3.502c0.093-38.131,0.077-76.26,0.022-114.391
			c-0.003-2.281,0.522-3.254,3.028-3.206c7.49,0.143,14.99,0.213,22.477-0.019c3.63-0.111,2.983,2.126,2.984,4.206
			C46.165,387.84,46.163,406.655,46.163,425.469L46.163,425.469z"/>
		<path id="path26" fill="#FFFFFF" d="M49.371,329.751c-0.101,9.966-7.847,17.438-17.938,17.303
			c-9.523-0.127-17.355-8.101-17.3-17.613c0.058-9.805,8.025-17.656,17.834-17.571C41.889,311.955,49.472,319.746,49.371,329.751z"
			/>
	</g>
</g>
</svg>
