<?xml version="1.0" encoding="utf-8"?>
<!-- Generator: Adobe Illustrator 15.0.0, SVG Export Plug-In . SVG Version: 6.00 Build 0)  -->
<!DOCTYPE svg PUBLIC "-//W3C//DTD SVG 1.1//EN" "http://www.w3.org/Graphics/SVG/1.1/DTD/svg11.dtd">
<svg version="1.1" id="Layer_1" xmlns="http://www.w3.org/2000/svg" xmlns:xlink="http://www.w3.org/1999/xlink" x="0px" y="0px"
	 width="30px" height="6.059px" viewBox="0 11.966 30 6.059" enable-background="new 0 11.966 30 6.059" xml:space="preserve">
<title>Logos</title>
<g>
	<path fill="#FFFFFF" d="M8.614,13.682c-0.142-0.027-0.289,0.047-0.425,0.259c-0.103,0.148-0.175,0.316-0.212,0.493
		c-0.021,0.1-0.031,0.202-0.029,0.304c0.001,0.129,0.027,0.258,0.076,0.378c0.062,0.164,0.145,0.25,0.244,0.27
		c0.127,0.013,0.252-0.036,0.336-0.131c0.169-0.166,0.28-0.382,0.316-0.616c0.014-0.101,0.019-0.204,0.015-0.306
		c-0.001-0.129-0.027-0.257-0.074-0.378C8.796,13.791,8.714,13.704,8.614,13.682z"/>
	<path fill="#FFFFFF" d="M9.226,11.966H0.943c-0.003,0-0.006,0-0.008,0C0.413,11.972-0.006,12.4,0,12.922v3.158
		c0,0.523,0.424,0.947,0.947,0.947H4.87l1.791,0.998l-0.408-0.998h2.973c0.523,0,0.947-0.424,0.947-0.947v-3.167
		C10.173,12.39,9.749,11.966,9.226,11.966z M4.158,16.146c0.01,0.095-0.007,0.189-0.049,0.274c-0.041,0.082-0.121,0.139-0.212,0.148
		c-0.126,0.002-0.248-0.055-0.327-0.152c-0.447-0.507-0.763-1.115-0.919-1.771c-0.269,0.534-0.469,0.933-0.599,1.197
		c-0.25,0.463-0.461,0.7-0.635,0.712c-0.112,0-0.212-0.087-0.291-0.287c-0.212-0.544-0.441-1.595-0.686-3.153
		c-0.015-0.098,0.01-0.198,0.068-0.278c0.063-0.081,0.159-0.127,0.261-0.127c0.165-0.032,0.324,0.076,0.356,0.241
		c0.003,0.02,0.005,0.039,0.005,0.059c0.129,0.867,0.27,1.604,0.425,2.205l0.909-1.731c0.053-0.129,0.17-0.22,0.308-0.24
		c0.183-0.013,0.295,0.104,0.34,0.349c0.086,0.485,0.219,0.962,0.395,1.423c0.107-1.055,0.29-1.816,0.548-2.285
		c0.051-0.107,0.156-0.178,0.274-0.185c0.096-0.007,0.19,0.023,0.263,0.085c0.075,0.056,0.122,0.142,0.127,0.235
		c0.006,0.069-0.008,0.138-0.04,0.2c-0.212,0.476-0.348,0.982-0.404,1.5C4.182,15.084,4.143,15.615,4.158,16.146z M6.711,15.481
		c-0.182,0.375-0.558,0.616-0.975,0.625c-0.076,0-0.151-0.009-0.225-0.025c-0.283-0.053-0.527-0.229-0.665-0.482
		c-0.139-0.251-0.208-0.535-0.199-0.822c-0.004-0.414,0.108-0.82,0.325-1.172c0.185-0.372,0.56-0.611,0.975-0.622
		c0.075,0,0.15,0.009,0.223,0.025c0.282,0.053,0.526,0.229,0.665,0.48v-0.004c0.14,0.25,0.209,0.534,0.2,0.82
		C7.039,14.718,6.927,15.126,6.711,15.481z M9.304,15.481c-0.183,0.375-0.56,0.617-0.977,0.625c-0.071-0.002-0.143-0.01-0.212-0.025
		c-0.283-0.053-0.527-0.229-0.665-0.482c-0.139-0.251-0.208-0.535-0.2-0.822c-0.004-0.413,0.108-0.819,0.323-1.172
		c0.255-0.41,0.578-0.622,0.977-0.622c0.076,0,0.151,0.009,0.225,0.025c0.282,0.053,0.526,0.229,0.665,0.48v-0.004
		c0.139,0.25,0.207,0.534,0.198,0.82C9.639,14.719,9.524,15.127,9.304,15.481z"/>
	<path fill="#FFFFFF" d="M6.248,13.954c-0.062-0.164-0.145-0.25-0.244-0.272c-0.143-0.027-0.287,0.047-0.425,0.259
		c-0.103,0.148-0.175,0.316-0.212,0.493c-0.019,0.1-0.028,0.202-0.028,0.304c0.002,0.129,0.027,0.257,0.075,0.378
		c0.062,0.164,0.144,0.25,0.244,0.27c0.127,0.013,0.253-0.036,0.337-0.131c0.168-0.167,0.279-0.382,0.316-0.616H6.295
		c0.019-0.101,0.028-0.203,0.027-0.306C6.321,14.203,6.296,14.075,6.248,13.954z"/>
</g>
<path fill="#FFFFFF" d="M11.213,13.453c-0.282,0.274-0.436,0.654-0.425,1.047c-0.017,0.407,0.131,0.804,0.412,1.1
	c0.284,0.286,0.674,0.439,1.077,0.426c0.144-0.004,0.287-0.026,0.425-0.068v-0.678c-0.123,0.037-0.25,0.058-0.378,0.062
	c-0.198,0.011-0.391-0.067-0.527-0.212c-0.138-0.173-0.204-0.393-0.185-0.614c-0.01-0.211,0.06-0.419,0.195-0.582
	c0.12-0.148,0.302-0.233,0.493-0.229c0.144,0.001,0.287,0.022,0.425,0.062v-0.667c-0.148-0.039-0.3-0.057-0.453-0.055
	C11.878,13.025,11.494,13.174,11.213,13.453z M14.098,13.041c-0.342-0.016-0.673,0.125-0.898,0.382
	c-0.23,0.304-0.344,0.681-0.321,1.062c-0.027,0.404,0.086,0.804,0.321,1.134c0.23,0.271,0.575,0.417,0.93,0.395
	c0.349,0.02,0.687-0.127,0.911-0.395c0.229-0.321,0.342-0.711,0.318-1.104c0.025-0.393-0.089-0.781-0.323-1.098
	c-0.24-0.261-0.585-0.399-0.938-0.378V13.041z M14.424,15.201c-0.069,0.114-0.194,0.181-0.327,0.176
	c-0.124-0.001-0.236-0.069-0.293-0.178c-0.09-0.222-0.125-0.462-0.104-0.701c0-0.543,0.136-0.815,0.425-0.815
	s0.442,0.274,0.442,0.828c0.009,0.238-0.04,0.474-0.143,0.688V15.201z M17.414,13.117l-0.15,0.637
	c-0.035,0.162-0.074,0.327-0.107,0.497l-0.084,0.442c-0.078-0.442-0.187-0.964-0.322-1.576h-0.967l-0.36,2.831h0.718l0.195-1.95
	l0.494,1.95h0.515l0.474-1.945l0.213,1.945h0.756l-0.383-2.831H17.414z M20.874,13.117l-0.148,0.637
	c-0.038,0.162-0.074,0.327-0.108,0.497l-0.082,0.442c-0.079-0.442-0.188-0.964-0.326-1.576h-0.966l-0.36,2.831h0.722l0.195-1.95
	l0.495,1.95h0.518l0.47-1.945l0.212,1.945h0.756l-0.382-2.831H20.874z M23.225,14.829h0.678v-0.586h-0.678v-0.518h0.773v-0.603
	h-1.546v2.829h1.55V15.35h-0.785L23.225,14.829z M26.162,14.381c0.219-0.34,0.135-0.791-0.191-1.03
	c-0.25-0.168-0.548-0.25-0.85-0.234h-0.887v2.831h0.764v-1.289h0.014l0.617,1.289h0.808l-0.612-1.274
	c0.14-0.061,0.257-0.164,0.336-0.293H26.162z M24.992,14.336v-0.671c0.137-0.008,0.272,0.023,0.391,0.091
	c0.084,0.069,0.127,0.175,0.115,0.283c-0.002,0.193-0.172,0.293-0.508,0.297H24.992z M26.729,13.453
	c-0.282,0.274-0.437,0.654-0.425,1.047c-0.018,0.407,0.13,0.804,0.41,1.1c0.284,0.285,0.674,0.439,1.076,0.426
	c0.145-0.004,0.287-0.026,0.425-0.068v-0.678c-0.122,0.037-0.249,0.058-0.378,0.062c-0.199,0.01-0.393-0.067-0.529-0.212
	c-0.139-0.168-0.21-0.383-0.199-0.601c-0.008-0.211,0.063-0.418,0.195-0.582c0.123-0.158,0.316-0.247,0.517-0.238
	c0.144,0.001,0.286,0.022,0.425,0.062v-0.671c-0.148-0.039-0.301-0.057-0.455-0.055C27.396,13.026,27.012,13.175,26.729,13.453z
	 M29.21,15.343v-0.518h0.678v-0.584H29.21v-0.52h0.786v-0.604h-1.538v2.831h1.55v-0.603h-0.789L29.21,15.343z"/>
</svg>
