<?xml version="1.0" encoding="utf-8"?>
<!-- Generator: Adobe Illustrator 15.0.0, SVG Export Plug-In . SVG Version: 6.00 Build 0)  -->
<!DOCTYPE svg PUBLIC "-//W3C//DTD SVG 1.1//EN" "http://www.w3.org/Graphics/SVG/1.1/DTD/svg11.dtd">
<svg version="1.1" id="Layer_1" xmlns="http://www.w3.org/2000/svg" xmlns:xlink="http://www.w3.org/1999/xlink" x="0px" y="0px"
	 width="43.971px" height="44px" viewBox="0 0 43.971 44" enable-background="new 0 0 43.971 44" xml:space="preserve">
<rect x="8.766" y="1.167" fill-rule="evenodd" clip-rule="evenodd" fill="none" width="40" height="40"/>
<path fill="#4BC4D2" d="M32.452,29.569c-0.453,1.272-2.677,2.499-3.675,2.588c-0.998,0.092-1.935,0.452-6.534-1.361
	c-5.534-2.181-9.03-7.856-9.3-8.218c-0.272-0.365-2.223-2.953-2.223-5.631c0-2.679,1.407-3.997,1.907-4.54
	c0.5-0.545,1.089-0.681,1.453-0.681c0.362,0,0.727,0,1.042,0.014c0.389,0.016,0.819,0.034,1.227,0.94
	c0.484,1.078,1.542,3.77,1.677,4.043c0.136,0.272,0.228,0.591,0.047,0.954c-0.182,0.362-0.272,0.589-0.544,0.907
	c-0.272,0.319-0.571,0.709-0.815,0.954c-0.273,0.27-0.558,0.567-0.241,1.11c0.319,0.545,1.41,2.327,3.029,3.77
	c2.082,1.854,3.833,2.428,4.378,2.702c0.546,0.273,0.861,0.228,1.181-0.137c0.319-0.362,1.361-1.589,1.723-2.134
	c0.362-0.544,0.727-0.454,1.227-0.272c0.499,0.181,3.177,1.5,3.72,1.771c0.545,0.273,0.907,0.409,1.042,0.635
	C32.907,27.206,32.907,28.297,32.452,29.569z M37.206,6.387C32.666,1.842,26.469-0.45,19.964,0.074
	C11.217,0.776,3.551,6.858,0.985,15.249c-1.833,5.996-1.062,12.255,1.922,17.425L0.08,42.062c-0.271,0.901,0.552,1.749,1.461,1.507
	l9.827-2.634c3.182,1.737,6.764,2.651,10.411,2.653h0.009c9.151,0,17.607-5.599,20.534-14.27
	C45.172,20.863,43.064,12.251,37.206,6.387z"/>
</svg>
